SplineFontDB: 3.0
FontName: FontAwesome
FullName: FontAwesome
FamilyName: FontAwesome
Weight: Regular
ItalicAngle: 0
UnderlinePosition: 0
UnderlineWidth: 0
Ascent: 1536
Descent: 256
InvalidEm: 0
LayerCount: 2
Layer: 0 1 "Back" 1
Layer: 1 1 "Fore" 0
XUID: [1021 531 -454588547 13686990]
OS2Version: 0
OS2_WeightWidthSlopeOnly: 0
OS2_UseTypoMetrics: 0
CreationTime: 1513898307
ModificationTime: 1513931807
PfmFamily: 17
TTFWeight: 400
TTFWidth: 5
LineGap: 161
VLineGap: 161
Panose: 0 0 0 0 0 0 0 0 0 0
OS2TypoAscent: 0
OS2TypoAOffset: 1
OS2TypoDescent: 0
OS2TypoDOffset: 1
OS2TypoLinegap: 161
OS2WinAscent: 0
OS2WinAOffset: 1
OS2WinDescent: 0
OS2WinDOffset: 1
HheadAscent: 0
HheadAOffset: 1
HheadDescent: 0
HheadDOffset: 1
OS2Vendor: 'PfEd'
DEI: 91125
Encoding: Original
UnicodeInterp: none
NameList: AGL For New Fonts
DisplaySize: -48
AntiAlias: 1
FitToEm: 0
WinInfo: 660 15 4
BeginChars: 710 710

StartChar: .notdef
Encoding: 0 0 0
Width: 896
Flags: W
LayerCount: 2
Fore
SplineSet
224 112 m 1
 672 112 l 1
 672 1424 l 1
 224 1424 l 1
 224 112 l 1
112 0 m 1
 112 1536 l 1
 784 1536 l 1
 784 0 l 1
 112 0 l 1
EndSplineSet
EndChar

StartChar: .notdef
Encoding: 1 -1 1
Width: 896
Flags: W
LayerCount: 2
Fore
SplineSet
224 112 m 1
 672 112 l 1
 672 1424 l 1
 224 1424 l 1
 224 112 l 1
112 0 m 1
 112 1536 l 1
 784 1536 l 1
 784 0 l 1
 112 0 l 1
EndSplineSet
EndChar

StartChar: .notdef
Encoding: 2 -1 2
Width: 896
Flags: W
LayerCount: 2
Fore
SplineSet
224 112 m 1
 672 112 l 1
 672 1424 l 1
 224 1424 l 1
 224 112 l 1
112 0 m 1
 112 1536 l 1
 784 1536 l 1
 784 0 l 1
 112 0 l 1
EndSplineSet
EndChar

StartChar: .notdef
Encoding: 3 -1 3
Width: 896
Flags: W
LayerCount: 2
Fore
SplineSet
224 112 m 1
 672 112 l 1
 672 1424 l 1
 224 1424 l 1
 224 112 l 1
112 0 m 1
 112 1536 l 1
 784 1536 l 1
 784 0 l 1
 112 0 l 1
EndSplineSet
EndChar

StartChar: glass
Encoding: 16 61440 16
Width: 1792
Flags: W
LayerCount: 2
Fore
SplineSet
1699 1350 m 0
 1699 1315 1699 1315 1656 1272 c 2
 1024 640 l 1
 1024 -128 l 1
 1344 -128 l 2
 1370 -128 1370 -128 1389 -147 c 0
 1408 -166 1408 -166 1408 -192 c 0
 1408 -218 1408 -218 1389 -237 c 0
 1370 -256 1370 -256 1344 -256 c 2
 448 -256 l 2
 422 -256 422 -256 403 -237 c 0
 384 -218 384 -218 384 -192 c 0
 384 -166 384 -166 403 -147 c 0
 422 -128 422 -128 448 -128 c 2
 768 -128 l 1
 768 640 l 1
 136 1272 l 2
 93 1315 93 1315 93 1350 c 0
 93 1373 93 1373 111 1386.5 c 0
 129 1400 129 1400 149 1404 c 0
 169 1408 169 1408 192 1408 c 2
 1600 1408 l 2
 1623 1408 1623 1408 1643 1404 c 0
 1663 1400 1663 1400 1681 1386.5 c 0
 1699 1373 1699 1373 1699 1350 c 0
EndSplineSet
EndChar

StartChar: music
Encoding: 17 61441 17
Width: 1536
LayerCount: 2
Fore
SplineSet
1536 1312 m 2
 1536 192 l 2
 1536 142 1536 142 1502 103 c 0
 1468 64 1468 64 1416 42.5 c 0
 1364 21 1364 21 1312.5 10.5 c 0
 1261 0 1261 0 1216 0 c 0
 1171 0 1171 0 1119.5 10.5 c 0
 1068 21 1068 21 1016 42.5 c 0
 964 64 964 64 930 103 c 0
 896 142 896 142 896 192 c 0
 896 242 896 242 930 281 c 0
 964 320 964 320 1016 341.5 c 0
 1068 363 1068 363 1119.5 373.5 c 0
 1171 384 1171 384 1216 384 c 0
 1321 384 1321 384 1408 345 c 1
 1408 882 l 1
 640 645 l 1
 640 -64 l 2
 640 -114 640 -114 606 -153 c 0
 572 -192 572 -192 520 -213.5 c 0
 468 -235 468 -235 416.5 -245.5 c 0
 365 -256 365 -256 320 -256 c 0
 275 -256 275 -256 223.5 -245.5 c 0
 172 -235 172 -235 120 -213.5 c 0
 68 -192 68 -192 34 -153 c 0
 0 -114 0 -114 0 -64 c 0
 0 -14 0 -14 34 25 c 0
 68 64 68 64 120 85.5 c 0
 172 107 172 107 223.5 117.5 c 0
 275 128 275 128 320 128 c 0
 425 128 425 128 512 89 c 1
 512 1056 l 2
 512 1087 512 1087 531 1112.5 c 0
 550 1138 550 1138 580 1148 c 2
 1412 1404 l 2
 1424 1408 1424 1408 1440 1408 c 0
 1480 1408 1480 1408 1508 1380 c 0
 1536 1352 1536 1352 1536 1312 c 2
EndSplineSet
EndChar

StartChar: search
Encoding: 18 61442 18
Width: 1664
Flags: W
LayerCount: 2
Fore
SplineSet
1152 704 m 0
 1152 889 1152 889 1020.5 1020.5 c 0
 889 1152 889 1152 704 1152 c 0
 519 1152 519 1152 387.5 1020.5 c 0
 256 889 256 889 256 704 c 0
 256 519 256 519 387.5 387.5 c 0
 519 256 519 256 704 256 c 0
 889 256 889 256 1020.5 387.5 c 0
 1152 519 1152 519 1152 704 c 0
1664 -128 m 0
 1664 -180 1664 -180 1626 -218 c 0
 1588 -256 1588 -256 1536 -256 c 0
 1482 -256 1482 -256 1446 -218 c 2
 1103 124 l 1
 924 0 924 0 704 0 c 0
 561 0 561 0 430.5 55.5 c 0
 300 111 300 111 205.5 205.5 c 0
 111 300 111 300 55.5 430.5 c 0
 0 561 0 561 0 704 c 0
 0 847 0 847 55.5 977.5 c 0
 111 1108 111 1108 205.5 1202.5 c 0
 300 1297 300 1297 430.5 1352.5 c 0
 561 1408 561 1408 704 1408 c 0
 847 1408 847 1408 977.5 1352.5 c 0
 1108 1297 1108 1297 1202.5 1202.5 c 0
 1297 1108 1297 1108 1352.5 977.5 c 0
 1408 847 1408 847 1408 704 c 0
 1408 484 1408 484 1284 305 c 1
 1627 -38 l 2
 1664 -75 1664 -75 1664 -128 c 0
EndSplineSet
EndChar

StartChar: envelope
Encoding: 19 61443 19
Width: 1792
Flags: W
LayerCount: 2
Fore
SplineSet
1664 32 m 2
 1664 800 l 1
 1632 764 1632 764 1595 734 c 0
 1327 528 1327 528 1169 396 c 0
 1118 353 1118 353 1086 329 c 0
 1054 305 1054 305 999.5 280.5 c 0
 945 256 945 256 897 256 c 2
 896 256 l 1
 895 256 l 2
 847 256 847 256 792.5 280.5 c 0
 738 305 738 305 706 329 c 0
 674 353 674 353 623 396 c 0
 465 528 465 528 197 734 c 0
 160 764 160 764 128 800 c 1
 128 32 l 2
 128 19 128 19 137.5 9.5 c 0
 147 0 147 0 160 0 c 2
 1632 0 l 2
 1645 0 1645 0 1654.5 9.5 c 0
 1664 19 1664 19 1664 32 c 2
1664 1083 m 2
 1664 1094 l 1
 1664 1107.5 l 1
 1663.5 1120.5 l 1
 1660.5 1133 l 1
 1655 1142 l 1
 1646 1149.5 l 1
 1632 1152 l 1
 160 1152 l 2
 147 1152 147 1152 137.5 1142.5 c 0
 128 1133 128 1133 128 1120 c 0
 128 952 128 952 275 836 c 0
 468 684 468 684 676 519 c 0
 682 514 682 514 711 489.5 c 0
 740 465 740 465 757 452 c 0
 774 439 774 439 801.5 420.5 c 0
 829 402 829 402 852 393 c 0
 875 384 875 384 895 384 c 2
 896 384 l 1
 897 384 l 2
 917 384 917 384 940 393 c 0
 963 402 963 402 990.5 420.5 c 0
 1018 439 1018 439 1035 452 c 0
 1052 465 1052 465 1081 489.5 c 0
 1110 514 1110 514 1116 519 c 0
 1324 684 1324 684 1517 836 c 0
 1571 879 1571 879 1617.5 951.5 c 0
 1664 1024 1664 1024 1664 1083 c 2
1792 1120 m 2
 1792 32 l 2
 1792 -34 1792 -34 1745 -81 c 0
 1698 -128 1698 -128 1632 -128 c 2
 160 -128 l 2
 94 -128 94 -128 47 -81 c 0
 0 -34 0 -34 0 32 c 2
 0 1120 l 2
 0 1186 0 1186 47 1233 c 0
 94 1280 94 1280 160 1280 c 2
 1632 1280 l 2
 1698 1280 1698 1280 1745 1233 c 0
 1792 1186 1792 1186 1792 1120 c 2
EndSplineSet
EndChar

StartChar: heart
Encoding: 20 61444 20
Width: 1792
Flags: W
LayerCount: 2
Fore
SplineSet
896 -128 m 0
 870 -128 870 -128 852 -110 c 2
 228 492 l 2
 218 500 218 500 200.5 518 c 0
 183 536 183 536 145 583.5 c 0
 107 631 107 631 77 681 c 0
 47 731 47 731 23.5 802 c 0
 0 873 0 873 0 940 c 0
 0 1160 0 1160 127 1284 c 0
 254 1408 254 1408 478 1408 c 0
 540 1408 540 1408 604.5 1386.5 c 0
 669 1365 669 1365 724.5 1328.5 c 0
 780 1292 780 1292 820 1260 c 0
 860 1228 860 1228 896 1192 c 1
 932 1228 932 1228 972 1260 c 0
 1012 1292 1012 1292 1067.5 1328.5 c 0
 1123 1365 1123 1365 1187.5 1386.5 c 0
 1252 1408 1252 1408 1314 1408 c 0
 1538 1408 1538 1408 1665 1284 c 0
 1792 1160 1792 1160 1792 940 c 0
 1792 719 1792 719 1563 490 c 1
 940 -110 l 2
 922 -128 922 -128 896 -128 c 0
EndSplineSet
EndChar

StartChar: star
Encoding: 21 61445 21
Width: 1664
Flags: W
LayerCount: 2
Fore
SplineSet
1664 889 m 0
 1664 867 1664 867 1638 841 c 2
 1275 487 l 1
 1361 -13 l 2
 1362 -20 1362 -20 1362 -33 c 0
 1362 -54 1362 -54 1351.5 -68.5 c 0
 1341 -83 1341 -83 1321 -83 c 0
 1302 -83 1302 -83 1281 -71 c 2
 832 165 l 1
 383 -71 l 2
 361 -83 361 -83 343 -83 c 0
 322 -83 322 -83 311.5 -68.5 c 0
 301 -54 301 -54 301 -33 c 0
 301 -27 301 -27 303 -13 c 2
 389 487 l 1
 25 841 l 2
 0 868 0 868 0 889 c 0
 0 926 0 926 56 935 c 2
 558 1008 l 1
 783 1463 l 2
 802 1504 802 1504 832 1504 c 0
 862 1504 862 1504 881 1463 c 2
 1106 1008 l 1
 1608 935 l 2
 1664 926 1664 926 1664 889 c 0
EndSplineSet
EndChar

StartChar: star_empty
Encoding: 22 61446 22
Width: 1664
Flags: W
LayerCount: 2
Fore
SplineSet
1137 532 m 1
 1443 829 l 1
 1021 891 l 1
 832 1273 l 1
 643 891 l 1
 221 829 l 1
 527 532 l 1
 454 111 l 1
 832 310 l 1
 1209 111 l 1
 1137 532 l 1
1664 889 m 0
 1664 867 1664 867 1638 841 c 2
 1275 487 l 1
 1361 -13 l 2
 1362 -20 1362 -20 1362 -33 c 0
 1362 -83 1362 -83 1321 -83 c 0
 1302 -83 1302 -83 1281 -71 c 2
 832 165 l 1
 383 -71 l 2
 361 -83 361 -83 343 -83 c 0
 322 -83 322 -83 311.5 -68.5 c 0
 301 -54 301 -54 301 -33 c 0
 301 -27 301 -27 303 -13 c 2
 389 487 l 1
 25 841 l 2
 0 868 0 868 0 889 c 0
 0 926 0 926 56 935 c 2
 558 1008 l 1
 783 1463 l 2
 802 1504 802 1504 832 1504 c 0
 862 1504 862 1504 881 1463 c 2
 1106 1008 l 1
 1608 935 l 2
 1664 926 1664 926 1664 889 c 0
EndSplineSet
EndChar

StartChar: user
Encoding: 23 61447 23
Width: 1280
Flags: W
LayerCount: 2
Fore
SplineSet
1280 137 m 0
 1280 28 1280 28 1217.5 -50 c 0
 1155 -128 1155 -128 1067 -128 c 2
 213 -128 l 2
 125 -128 125 -128 62.5 -50 c 0
 0 28 0 28 0 137 c 0
 0 222 0 222 8.5 297.5 c 0
 17 373 17 373 40 449.5 c 0
 63 526 63 526 98.5 580.5 c 0
 134 635 134 635 192.5 669.5 c 0
 251 704 251 704 327 704 c 1
 458 576 458 576 640 576 c 0
 822 576 822 576 953 704 c 1
 1029 704 1029 704 1087.5 669.5 c 0
 1146 635 1146 635 1181.5 580.5 c 0
 1217 526 1217 526 1240 449.5 c 0
 1263 373 1263 373 1271.5 297.5 c 0
 1280 222 1280 222 1280 137 c 0
1024 1024 m 0
 1024 865 1024 865 911.5 752.5 c 0
 799 640 799 640 640 640 c 0
 481 640 481 640 368.5 752.5 c 0
 256 865 256 865 256 1024 c 0
 256 1183 256 1183 368.5 1295.5 c 0
 481 1408 481 1408 640 1408 c 0
 799 1408 799 1408 911.5 1295.5 c 0
 1024 1183 1024 1183 1024 1024 c 0
EndSplineSet
EndChar

StartChar: film
Encoding: 24 61448 24
Width: 1920
Flags: W
LayerCount: 2
Fore
SplineSet
384 -64 m 2
 384 64 l 2
 384 90 384 90 365 109 c 0
 346 128 346 128 320 128 c 2
 192 128 l 2
 166 128 166 128 147 109 c 0
 128 90 128 90 128 64 c 2
 128 -64 l 2
 128 -90 128 -90 147 -109 c 0
 166 -128 166 -128 192 -128 c 2
 320 -128 l 2
 346 -128 346 -128 365 -109 c 0
 384 -90 384 -90 384 -64 c 2
384 320 m 2
 384 448 l 2
 384 474 384 474 365 493 c 0
 346 512 346 512 320 512 c 2
 192 512 l 2
 166 512 166 512 147 493 c 0
 128 474 128 474 128 448 c 2
 128 320 l 2
 128 294 128 294 147 275 c 0
 166 256 166 256 192 256 c 2
 320 256 l 2
 346 256 346 256 365 275 c 0
 384 294 384 294 384 320 c 2
384 704 m 2
 384 832 l 2
 384 858 384 858 365 877 c 0
 346 896 346 896 320 896 c 2
 192 896 l 2
 166 896 166 896 147 877 c 0
 128 858 128 858 128 832 c 2
 128 704 l 2
 128 678 128 678 147 659 c 0
 166 640 166 640 192 640 c 2
 320 640 l 2
 346 640 346 640 365 659 c 0
 384 678 384 678 384 704 c 2
1408 -64 m 2
 1408 448 l 2
 1408 474 1408 474 1389 493 c 0
 1370 512 1370 512 1344 512 c 2
 576 512 l 2
 550 512 550 512 531 493 c 0
 512 474 512 474 512 448 c 2
 512 -64 l 2
 512 -90 512 -90 531 -109 c 0
 550 -128 550 -128 576 -128 c 2
 1344 -128 l 2
 1370 -128 1370 -128 1389 -109 c 0
 1408 -90 1408 -90 1408 -64 c 2
384 1088 m 2
 384 1216 l 2
 384 1242 384 1242 365 1261 c 0
 346 1280 346 1280 320 1280 c 2
 192 1280 l 2
 166 1280 166 1280 147 1261 c 0
 128 1242 128 1242 128 1216 c 2
 128 1088 l 2
 128 1062 128 1062 147 1043 c 0
 166 1024 166 1024 192 1024 c 2
 320 1024 l 2
 346 1024 346 1024 365 1043 c 0
 384 1062 384 1062 384 1088 c 2
1792 -64 m 2
 1792 64 l 2
 1792 90 1792 90 1773 109 c 0
 1754 128 1754 128 1728 128 c 2
 1600 128 l 2
 1574 128 1574 128 1555 109 c 0
 1536 90 1536 90 1536 64 c 2
 1536 -64 l 2
 1536 -90 1536 -90 1555 -109 c 0
 1574 -128 1574 -128 1600 -128 c 2
 1728 -128 l 2
 1754 -128 1754 -128 1773 -109 c 0
 1792 -90 1792 -90 1792 -64 c 2
1408 704 m 2
 1408 1216 l 2
 1408 1242 1408 1242 1389 1261 c 0
 1370 1280 1370 1280 1344 1280 c 2
 576 1280 l 2
 550 1280 550 1280 531 1261 c 0
 512 1242 512 1242 512 1216 c 2
 512 704 l 2
 512 678 512 678 531 659 c 0
 550 640 550 640 576 640 c 2
 1344 640 l 2
 1370 640 1370 640 1389 659 c 0
 1408 678 1408 678 1408 704 c 2
1792 320 m 2
 1792 448 l 2
 1792 474 1792 474 1773 493 c 0
 1754 512 1754 512 1728 512 c 2
 1600 512 l 2
 1574 512 1574 512 1555 493 c 0
 1536 474 1536 474 1536 448 c 2
 1536 320 l 2
 1536 294 1536 294 1555 275 c 0
 1574 256 1574 256 1600 256 c 2
 1728 256 l 2
 1754 256 1754 256 1773 275 c 0
 1792 294 1792 294 1792 320 c 2
1792 704 m 2
 1792 832 l 2
 1792 858 1792 858 1773 877 c 0
 1754 896 1754 896 1728 896 c 2
 1600 896 l 2
 1574 896 1574 896 1555 877 c 0
 1536 858 1536 858 1536 832 c 2
 1536 704 l 2
 1536 678 1536 678 1555 659 c 0
 1574 640 1574 640 1600 640 c 2
 1728 640 l 2
 1754 640 1754 640 1773 659 c 0
 1792 678 1792 678 1792 704 c 2
1792 1088 m 2
 1792 1216 l 2
 1792 1242 1792 1242 1773 1261 c 0
 1754 1280 1754 1280 1728 1280 c 2
 1600 1280 l 2
 1574 1280 1574 1280 1555 1261 c 0
 1536 1242 1536 1242 1536 1216 c 2
 1536 1088 l 2
 1536 1062 1536 1062 1555 1043 c 0
 1574 1024 1574 1024 1600 1024 c 2
 1728 1024 l 2
 1754 1024 1754 1024 1773 1043 c 0
 1792 1062 1792 1062 1792 1088 c 2
1920 1248 m 2
 1920 -96 l 2
 1920 -162 1920 -162 1873 -209 c 0
 1826 -256 1826 -256 1760 -256 c 2
 160 -256 l 2
 94 -256 94 -256 47 -209 c 0
 0 -162 0 -162 0 -96 c 2
 0 1248 l 2
 0 1314 0 1314 47 1361 c 0
 94 1408 94 1408 160 1408 c 2
 1760 1408 l 2
 1826 1408 1826 1408 1873 1361 c 0
 1920 1314 1920 1314 1920 1248 c 2
EndSplineSet
EndChar

StartChar: th_large
Encoding: 25 61449 25
Width: 1664
Flags: W
LayerCount: 2
Fore
SplineSet
768 512 m 2
 768 128 l 2
 768 76 768 76 730 38 c 0
 692 0 692 0 640 0 c 2
 128 0 l 2
 76 0 76 0 38 38 c 0
 0 76 0 76 0 128 c 2
 0 512 l 2
 0 564 0 564 38 602 c 0
 76 640 76 640 128 640 c 2
 640 640 l 2
 692 640 692 640 730 602 c 0
 768 564 768 564 768 512 c 2
768 1280 m 2
 768 896 l 2
 768 844 768 844 730 806 c 0
 692 768 692 768 640 768 c 2
 128 768 l 2
 76 768 76 768 38 806 c 0
 0 844 0 844 0 896 c 2
 0 1280 l 2
 0 1332 0 1332 38 1370 c 0
 76 1408 76 1408 128 1408 c 2
 640 1408 l 2
 692 1408 692 1408 730 1370 c 0
 768 1332 768 1332 768 1280 c 2
1664 512 m 2
 1664 128 l 2
 1664 76 1664 76 1626 38 c 0
 1588 0 1588 0 1536 0 c 2
 1024 0 l 2
 972 0 972 0 934 38 c 0
 896 76 896 76 896 128 c 2
 896 512 l 2
 896 564 896 564 934 602 c 0
 972 640 972 640 1024 640 c 2
 1536 640 l 2
 1588 640 1588 640 1626 602 c 0
 1664 564 1664 564 1664 512 c 2
1664 1280 m 2
 1664 896 l 2
 1664 844 1664 844 1626 806 c 0
 1588 768 1588 768 1536 768 c 2
 1024 768 l 2
 972 768 972 768 934 806 c 0
 896 844 896 844 896 896 c 2
 896 1280 l 2
 896 1332 896 1332 934 1370 c 0
 972 1408 972 1408 1024 1408 c 2
 1536 1408 l 2
 1588 1408 1588 1408 1626 1370 c 0
 1664 1332 1664 1332 1664 1280 c 2
EndSplineSet
EndChar

StartChar: th
Encoding: 26 61450 26
Width: 1792
Flags: W
LayerCount: 2
Fore
SplineSet
512 288 m 2
 512 96 l 2
 512 56 512 56 484 28 c 0
 456 0 456 0 416 0 c 2
 96 0 l 2
 56 0 56 0 28 28 c 0
 0 56 0 56 0 96 c 2
 0 288 l 2
 0 328 0 328 28 356 c 0
 56 384 56 384 96 384 c 2
 416 384 l 2
 456 384 456 384 484 356 c 0
 512 328 512 328 512 288 c 2
512 800 m 2
 512 608 l 2
 512 568 512 568 484 540 c 0
 456 512 456 512 416 512 c 2
 96 512 l 2
 56 512 56 512 28 540 c 0
 0 568 0 568 0 608 c 2
 0 800 l 2
 0 840 0 840 28 868 c 0
 56 896 56 896 96 896 c 2
 416 896 l 2
 456 896 456 896 484 868 c 0
 512 840 512 840 512 800 c 2
1152 288 m 2
 1152 96 l 2
 1152 56 1152 56 1124 28 c 0
 1096 0 1096 0 1056 0 c 2
 736 0 l 2
 696 0 696 0 668 28 c 0
 640 56 640 56 640 96 c 2
 640 288 l 2
 640 328 640 328 668 356 c 0
 696 384 696 384 736 384 c 2
 1056 384 l 2
 1096 384 1096 384 1124 356 c 0
 1152 328 1152 328 1152 288 c 2
512 1312 m 2
 512 1120 l 2
 512 1080 512 1080 484 1052 c 0
 456 1024 456 1024 416 1024 c 2
 96 1024 l 2
 56 1024 56 1024 28 1052 c 0
 0 1080 0 1080 0 1120 c 2
 0 1312 l 2
 0 1352 0 1352 28 1380 c 0
 56 1408 56 1408 96 1408 c 2
 416 1408 l 2
 456 1408 456 1408 484 1380 c 0
 512 1352 512 1352 512 1312 c 2
1152 800 m 2
 1152 608 l 2
 1152 568 1152 568 1124 540 c 0
 1096 512 1096 512 1056 512 c 2
 736 512 l 2
 696 512 696 512 668 540 c 0
 640 568 640 568 640 608 c 2
 640 800 l 2
 640 840 640 840 668 868 c 0
 696 896 696 896 736 896 c 2
 1056 896 l 2
 1096 896 1096 896 1124 868 c 0
 1152 840 1152 840 1152 800 c 2
1792 288 m 2
 1792 96 l 2
 1792 56 1792 56 1764 28 c 0
 1736 0 1736 0 1696 0 c 2
 1376 0 l 2
 1336 0 1336 0 1308 28 c 0
 1280 56 1280 56 1280 96 c 2
 1280 288 l 2
 1280 328 1280 328 1308 356 c 0
 1336 384 1336 384 1376 384 c 2
 1696 384 l 2
 1736 384 1736 384 1764 356 c 0
 1792 328 1792 328 1792 288 c 2
1152 1312 m 2
 1152 1120 l 2
 1152 1080 1152 1080 1124 1052 c 0
 1096 1024 1096 1024 1056 1024 c 2
 736 1024 l 2
 696 1024 696 1024 668 1052 c 0
 640 1080 640 1080 640 1120 c 2
 640 1312 l 2
 640 1352 640 1352 668 1380 c 0
 696 1408 696 1408 736 1408 c 2
 1056 1408 l 2
 1096 1408 1096 1408 1124 1380 c 0
 1152 1352 1152 1352 1152 1312 c 2
1792 800 m 2
 1792 608 l 2
 1792 568 1792 568 1764 540 c 0
 1736 512 1736 512 1696 512 c 2
 1376 512 l 2
 1336 512 1336 512 1308 540 c 0
 1280 568 1280 568 1280 608 c 2
 1280 800 l 2
 1280 840 1280 840 1308 868 c 0
 1336 896 1336 896 1376 896 c 2
 1696 896 l 2
 1736 896 1736 896 1764 868 c 0
 1792 840 1792 840 1792 800 c 2
1792 1312 m 2
 1792 1120 l 2
 1792 1080 1792 1080 1764 1052 c 0
 1736 1024 1736 1024 1696 1024 c 2
 1376 1024 l 2
 1336 1024 1336 1024 1308 1052 c 0
 1280 1080 1280 1080 1280 1120 c 2
 1280 1312 l 2
 1280 1352 1280 1352 1308 1380 c 0
 1336 1408 1336 1408 1376 1408 c 2
 1696 1408 l 2
 1736 1408 1736 1408 1764 1380 c 0
 1792 1352 1792 1352 1792 1312 c 2
EndSplineSet
EndChar

StartChar: th_list
Encoding: 27 61451 27
Width: 1792
Flags: W
LayerCount: 2
Fore
SplineSet
512 288 m 2
 512 96 l 2
 512 56 512 56 484 28 c 0
 456 0 456 0 416 0 c 2
 96 0 l 2
 56 0 56 0 28 28 c 0
 0 56 0 56 0 96 c 2
 0 288 l 2
 0 328 0 328 28 356 c 0
 56 384 56 384 96 384 c 2
 416 384 l 2
 456 384 456 384 484 356 c 0
 512 328 512 328 512 288 c 2
512 800 m 2
 512 608 l 2
 512 568 512 568 484 540 c 0
 456 512 456 512 416 512 c 2
 96 512 l 2
 56 512 56 512 28 540 c 0
 0 568 0 568 0 608 c 2
 0 800 l 2
 0 840 0 840 28 868 c 0
 56 896 56 896 96 896 c 2
 416 896 l 2
 456 896 456 896 484 868 c 0
 512 840 512 840 512 800 c 2
1792 288 m 2
 1792 96 l 2
 1792 56 1792 56 1764 28 c 0
 1736 0 1736 0 1696 0 c 2
 736 0 l 2
 696 0 696 0 668 28 c 0
 640 56 640 56 640 96 c 2
 640 288 l 2
 640 328 640 328 668 356 c 0
 696 384 696 384 736 384 c 2
 1696 384 l 2
 1736 384 1736 384 1764 356 c 0
 1792 328 1792 328 1792 288 c 2
512 1312 m 2
 512 1120 l 2
 512 1080 512 1080 484 1052 c 0
 456 1024 456 1024 416 1024 c 2
 96 1024 l 2
 56 1024 56 1024 28 1052 c 0
 0 1080 0 1080 0 1120 c 2
 0 1312 l 2
 0 1352 0 1352 28 1380 c 0
 56 1408 56 1408 96 1408 c 2
 416 1408 l 2
 456 1408 456 1408 484 1380 c 0
 512 1352 512 1352 512 1312 c 2
1792 800 m 2
 1792 608 l 2
 1792 568 1792 568 1764 540 c 0
 1736 512 1736 512 1696 512 c 2
 736 512 l 2
 696 512 696 512 668 540 c 0
 640 568 640 568 640 608 c 2
 640 800 l 2
 640 840 640 840 668 868 c 0
 696 896 696 896 736 896 c 2
 1696 896 l 2
 1736 896 1736 896 1764 868 c 0
 1792 840 1792 840 1792 800 c 2
1792 1312 m 2
 1792 1120 l 2
 1792 1080 1792 1080 1764 1052 c 0
 1736 1024 1736 1024 1696 1024 c 2
 736 1024 l 2
 696 1024 696 1024 668 1052 c 0
 640 1080 640 1080 640 1120 c 2
 640 1312 l 2
 640 1352 640 1352 668 1380 c 0
 696 1408 696 1408 736 1408 c 2
 1696 1408 l 2
 1736 1408 1736 1408 1764 1380 c 0
 1792 1352 1792 1352 1792 1312 c 2
EndSplineSet
EndChar

StartChar: ok
Encoding: 28 61452 28
Width: 1792
Flags: W
LayerCount: 2
Fore
SplineSet
1671 970 m 0
 1671 930 1671 930 1643 902 c 2
 919 178 l 1
 783 42 l 2
 755 14 755 14 715 14 c 0
 675 14 675 14 647 42 c 2
 511 178 l 1
 149 540 l 2
 121 568 121 568 121 608 c 0
 121 648 121 648 149 676 c 2
 285 812 l 2
 313 840 313 840 353 840 c 0
 393 840 393 840 421 812 c 2
 715 517 l 1
 1371 1174 l 2
 1399 1202 1399 1202 1439 1202 c 0
 1479 1202 1479 1202 1507 1174 c 2
 1643 1038 l 2
 1671 1010 1671 1010 1671 970 c 0
EndSplineSet
EndChar

StartChar: remove
Encoding: 29 61453 29
Width: 1408
Flags: W
LayerCount: 2
Fore
SplineSet
1298 214 m 0
 1298 174 1298 174 1270 146 c 2
 1134 10 l 2
 1106 -18 1106 -18 1066 -18 c 0
 1026 -18 1026 -18 998 10 c 2
 704 304 l 1
 410 10 l 2
 382 -18 382 -18 342 -18 c 0
 302 -18 302 -18 274 10 c 2
 138 146 l 2
 110 174 110 174 110 214 c 0
 110 254 110 254 138 282 c 2
 432 576 l 1
 138 870 l 2
 110 898 110 898 110 938 c 0
 110 978 110 978 138 1006 c 2
 274 1142 l 2
 302 1170 302 1170 342 1170 c 0
 382 1170 382 1170 410 1142 c 2
 704 848 l 1
 998 1142 l 2
 1026 1170 1026 1170 1066 1170 c 0
 1106 1170 1106 1170 1134 1142 c 2
 1270 1006 l 2
 1298 978 1298 978 1298 938 c 0
 1298 898 1298 898 1270 870 c 2
 976 576 l 1
 1270 282 l 2
 1298 254 1298 254 1298 214 c 0
EndSplineSet
EndChar

StartChar: zoom_in
Encoding: 30 61454 30
Width: 1664
Flags: W
LayerCount: 2
Fore
SplineSet
1024 736 m 2
 1024 672 l 2
 1024 659 1024 659 1014.5 649.5 c 0
 1005 640 1005 640 992 640 c 2
 768 640 l 1
 768 416 l 2
 768 403 768 403 758.5 393.5 c 0
 749 384 749 384 736 384 c 2
 672 384 l 2
 659 384 659 384 649.5 393.5 c 0
 640 403 640 403 640 416 c 2
 640 640 l 1
 416 640 l 2
 403 640 403 640 393.5 649.5 c 0
 384 659 384 659 384 672 c 2
 384 736 l 2
 384 749 384 749 393.5 758.5 c 0
 403 768 403 768 416 768 c 2
 640 768 l 1
 640 992 l 2
 640 1005 640 1005 649.5 1014.5 c 0
 659 1024 659 1024 672 1024 c 2
 736 1024 l 2
 749 1024 749 1024 758.5 1014.5 c 0
 768 1005 768 1005 768 992 c 2
 768 768 l 1
 992 768 l 2
 1005 768 1005 768 1014.5 758.5 c 0
 1024 749 1024 749 1024 736 c 2
1152 704 m 0
 1152 889 1152 889 1020.5 1020.5 c 0
 889 1152 889 1152 704 1152 c 0
 519 1152 519 1152 387.5 1020.5 c 0
 256 889 256 889 256 704 c 0
 256 519 256 519 387.5 387.5 c 0
 519 256 519 256 704 256 c 0
 889 256 889 256 1020.5 387.5 c 0
 1152 519 1152 519 1152 704 c 0
1664 -128 m 0
 1664 -181 1664 -181 1626.5 -218.5 c 0
 1589 -256 1589 -256 1536 -256 c 0
 1482 -256 1482 -256 1446 -218 c 2
 1103 124 l 1
 924 0 924 0 704 0 c 0
 561 0 561 0 430.5 55.5 c 0
 300 111 300 111 205.5 205.5 c 0
 111 300 111 300 55.5 430.5 c 0
 0 561 0 561 0 704 c 0
 0 847 0 847 55.5 977.5 c 0
 111 1108 111 1108 205.5 1202.5 c 0
 300 1297 300 1297 430.5 1352.5 c 0
 561 1408 561 1408 704 1408 c 0
 847 1408 847 1408 977.5 1352.5 c 0
 1108 1297 1108 1297 1202.5 1202.5 c 0
 1297 1108 1297 1108 1352.5 977.5 c 0
 1408 847 1408 847 1408 704 c 0
 1408 484 1408 484 1284 305 c 1
 1627 -38 l 2
 1664 -75 1664 -75 1664 -128 c 0
EndSplineSet
EndChar

StartChar: zoom_out
Encoding: 31 61456 31
Width: 1664
Flags: W
LayerCount: 2
Fore
SplineSet
1024 736 m 2
 1024 672 l 2
 1024 659 1024 659 1014.5 649.5 c 0
 1005 640 1005 640 992 640 c 2
 416 640 l 2
 403 640 403 640 393.5 649.5 c 0
 384 659 384 659 384 672 c 2
 384 736 l 2
 384 749 384 749 393.5 758.5 c 0
 403 768 403 768 416 768 c 2
 992 768 l 2
 1005 768 1005 768 1014.5 758.5 c 0
 1024 749 1024 749 1024 736 c 2
1152 704 m 0
 1152 889 1152 889 1020.5 1020.5 c 0
 889 1152 889 1152 704 1152 c 0
 519 1152 519 1152 387.5 1020.5 c 0
 256 889 256 889 256 704 c 0
 256 519 256 519 387.5 387.5 c 0
 519 256 519 256 704 256 c 0
 889 256 889 256 1020.5 387.5 c 0
 1152 519 1152 519 1152 704 c 0
1664 -128 m 0
 1664 -181 1664 -181 1626.5 -218.5 c 0
 1589 -256 1589 -256 1536 -256 c 0
 1482 -256 1482 -256 1446 -218 c 2
 1103 124 l 1
 924 0 924 0 704 0 c 0
 561 0 561 0 430.5 55.5 c 0
 300 111 300 111 205.5 205.5 c 0
 111 300 111 300 55.5 430.5 c 0
 0 561 0 561 0 704 c 0
 0 847 0 847 55.5 977.5 c 0
 111 1108 111 1108 205.5 1202.5 c 0
 300 1297 300 1297 430.5 1352.5 c 0
 561 1408 561 1408 704 1408 c 0
 847 1408 847 1408 977.5 1352.5 c 0
 1108 1297 1108 1297 1202.5 1202.5 c 0
 1297 1108 1297 1108 1352.5 977.5 c 0
 1408 847 1408 847 1408 704 c 0
 1408 484 1408 484 1284 305 c 1
 1627 -38 l 2
 1664 -75 1664 -75 1664 -128 c 0
EndSplineSet
EndChar

StartChar: off
Encoding: 32 61457 32
Width: 1536
LayerCount: 2
Fore
SplineSet
1536 640 m 0
 1536 484 1536 484 1475 342 c 0
 1414 200 1414 200 1311 97 c 0
 1208 -6 1208 -6 1066 -67 c 0
 924 -128 924 -128 768 -128 c 0
 612 -128 612 -128 470 -67 c 0
 328 -6 328 -6 225 97 c 0
 122 200 122 200 61 342 c 0
 0 484 0 484 0 640 c 0
 0 822 0 822 80.5 983 c 0
 161 1144 161 1144 307 1253 c 0
 350 1285 350 1285 402.5 1278 c 0
 455 1271 455 1271 486 1228 c 0
 518 1186 518 1186 510.5 1133.5 c 0
 503 1081 503 1081 461 1049 c 0
 363 975 363 975 309.5 868 c 0
 256 761 256 761 256 640 c 0
 256 536 256 536 296.5 441.5 c 0
 337 347 337 347 406 278 c 0
 475 209 475 209 569.5 168.5 c 0
 664 128 664 128 768 128 c 0
 872 128 872 128 966.5 168.5 c 0
 1061 209 1061 209 1130 278 c 0
 1199 347 1199 347 1239.5 441.5 c 0
 1280 536 1280 536 1280 640 c 0
 1280 761 1280 761 1226.5 868 c 0
 1173 975 1173 975 1075 1049 c 0
 1033 1081 1033 1081 1025.5 1133.5 c 0
 1018 1186 1018 1186 1050 1228 c 0
 1081 1271 1081 1271 1134 1278 c 0
 1187 1285 1187 1285 1229 1253 c 0
 1375 1144 1375 1144 1455.5 983 c 0
 1536 822 1536 822 1536 640 c 0
896 1408 m 2
 896 768 l 2
 896 716 896 716 858 678 c 0
 820 640 820 640 768 640 c 0
 716 640 716 640 678 678 c 0
 640 716 640 716 640 768 c 2
 640 1408 l 2
 640 1460 640 1460 678 1498 c 0
 716 1536 716 1536 768 1536 c 0
 820 1536 820 1536 858 1498 c 0
 896 1460 896 1460 896 1408 c 2
EndSplineSet
EndChar

StartChar: signal
Encoding: 33 61458 33
Width: 1792
Flags: W
LayerCount: 2
Fore
SplineSet
256 96 m 2
 256 -96 l 2
 256 -110 256 -110 247 -119 c 0
 238 -128 238 -128 224 -128 c 2
 32 -128 l 2
 18 -128 18 -128 9 -119 c 0
 0 -110 0 -110 0 -96 c 2
 0 96 l 2
 0 110 0 110 9 119 c 0
 18 128 18 128 32 128 c 2
 224 128 l 2
 238 128 238 128 247 119 c 0
 256 110 256 110 256 96 c 2
640 224 m 2
 640 -96 l 2
 640 -110 640 -110 631 -119 c 0
 622 -128 622 -128 608 -128 c 2
 416 -128 l 2
 402 -128 402 -128 393 -119 c 0
 384 -110 384 -110 384 -96 c 2
 384 224 l 2
 384 238 384 238 393 247 c 0
 402 256 402 256 416 256 c 2
 608 256 l 2
 622 256 622 256 631 247 c 0
 640 238 640 238 640 224 c 2
1024 480 m 2
 1024 -96 l 2
 1024 -110 1024 -110 1015 -119 c 0
 1006 -128 1006 -128 992 -128 c 2
 800 -128 l 2
 786 -128 786 -128 777 -119 c 0
 768 -110 768 -110 768 -96 c 2
 768 480 l 2
 768 494 768 494 777 503 c 0
 786 512 786 512 800 512 c 2
 992 512 l 2
 1006 512 1006 512 1015 503 c 0
 1024 494 1024 494 1024 480 c 2
1408 864 m 2
 1408 -96 l 2
 1408 -110 1408 -110 1399 -119 c 0
 1390 -128 1390 -128 1376 -128 c 2
 1184 -128 l 2
 1170 -128 1170 -128 1161 -119 c 0
 1152 -110 1152 -110 1152 -96 c 2
 1152 864 l 2
 1152 878 1152 878 1161 887 c 0
 1170 896 1170 896 1184 896 c 2
 1376 896 l 2
 1390 896 1390 896 1399 887 c 0
 1408 878 1408 878 1408 864 c 2
1792 1376 m 2
 1792 -96 l 2
 1792 -110 1792 -110 1783 -119 c 0
 1774 -128 1774 -128 1760 -128 c 2
 1568 -128 l 2
 1554 -128 1554 -128 1545 -119 c 0
 1536 -110 1536 -110 1536 -96 c 2
 1536 1376 l 2
 1536 1390 1536 1390 1545 1399 c 0
 1554 1408 1554 1408 1568 1408 c 2
 1760 1408 l 2
 1774 1408 1774 1408 1783 1399 c 0
 1792 1390 1792 1390 1792 1376 c 2
EndSplineSet
EndChar

StartChar: cog
Encoding: 34 61459 34
Width: 1536
LayerCount: 2
Fore
SplineSet
1024 640 m 0
 1024 746 1024 746 949 821 c 0
 874 896 874 896 768 896 c 0
 662 896 662 896 587 821 c 0
 512 746 512 746 512 640 c 0
 512 534 512 534 587 459 c 0
 662 384 662 384 768 384 c 0
 874 384 874 384 949 459 c 0
 1024 534 1024 534 1024 640 c 0
1536 749 m 2
 1536 527 l 2
 1536 515 1536 515 1528 504 c 0
 1520 493 1520 493 1508 491 c 2
 1323 463 l 1
 1304 409 1304 409 1284 372 c 1
 1319 322 1319 322 1391 234 c 0
 1401 222 1401 222 1401 209 c 0
 1401 196 1401 196 1392 186 c 0
 1365 149 1365 149 1293 78 c 0
 1221 7 1221 7 1199 7 c 0
 1187 7 1187 7 1173 16 c 2
 1035 124 l 1
 991 101 991 101 944 86 c 1
 928 -50 928 -50 915 -100 c 0
 908 -128 908 -128 879 -128 c 2
 657 -128 l 2
 643 -128 643 -128 632.5 -119.5 c 0
 622 -111 622 -111 621 -98 c 2
 593 86 l 1
 544 102 544 102 503 123 c 1
 362 16 l 2
 352 7 352 7 337 7 c 0
 323 7 323 7 312 18 c 0
 186 132 186 132 147 186 c 0
 140 196 140 196 140 209 c 0
 140 221 140 221 148 232 c 0
 163 253 163 253 199 298.5 c 0
 235 344 235 344 253 369 c 1
 226 419 226 419 212 468 c 1
 29 495 l 2
 16 497 16 497 8 507.5 c 0
 0 518 0 518 0 531 c 2
 0 753 l 2
 0 765 0 765 8 776 c 0
 16 787 16 787 27 789 c 2
 213 817 l 1
 227 863 227 863 252 909 c 1
 212 966 212 966 145 1047 c 0
 135 1059 135 1059 135 1071 c 0
 135 1081 135 1081 144 1094 c 0
 170 1130 170 1130 242.5 1201.5 c 0
 315 1273 315 1273 337 1273 c 0
 350 1273 350 1273 363 1263 c 2
 501 1156 l 1
 545 1179 545 1179 592 1194 c 1
 608 1330 608 1330 621 1380 c 0
 628 1408 628 1408 657 1408 c 2
 879 1408 l 2
 893 1408 893 1408 903.5 1399.5 c 0
 914 1391 914 1391 915 1378 c 2
 943 1194 l 1
 992 1178 992 1178 1033 1157 c 1
 1175 1264 l 2
 1184 1273 1184 1273 1199 1273 c 0
 1212 1273 1212 1273 1224 1263 c 0
 1353 1144 1353 1144 1389 1093 c 0
 1396 1085 1396 1085 1396 1071 c 0
 1396 1059 1396 1059 1388 1048 c 0
 1373 1027 1373 1027 1337 981.5 c 0
 1301 936 1301 936 1283 911 c 1
 1309 861 1309 861 1324 813 c 1
 1507 785 l 2
 1520 783 1520 783 1528 772.5 c 0
 1536 762 1536 762 1536 749 c 2
EndSplineSet
EndChar

StartChar: trash
Encoding: 35 61460 35
Width: 1408
Flags: W
LayerCount: 2
Fore
SplineSet
512 800 m 2
 512 224 l 2
 512 210 512 210 503 201 c 0
 494 192 494 192 480 192 c 2
 416 192 l 2
 402 192 402 192 393 201 c 0
 384 210 384 210 384 224 c 2
 384 800 l 2
 384 814 384 814 393 823 c 0
 402 832 402 832 416 832 c 2
 480 832 l 2
 494 832 494 832 503 823 c 0
 512 814 512 814 512 800 c 2
768 800 m 2
 768 224 l 2
 768 210 768 210 759 201 c 0
 750 192 750 192 736 192 c 2
 672 192 l 2
 658 192 658 192 649 201 c 0
 640 210 640 210 640 224 c 2
 640 800 l 2
 640 814 640 814 649 823 c 0
 658 832 658 832 672 832 c 2
 736 832 l 2
 750 832 750 832 759 823 c 0
 768 814 768 814 768 800 c 2
1024 800 m 2
 1024 224 l 2
 1024 210 1024 210 1015 201 c 0
 1006 192 1006 192 992 192 c 2
 928 192 l 2
 914 192 914 192 905 201 c 0
 896 210 896 210 896 224 c 2
 896 800 l 2
 896 814 896 814 905 823 c 0
 914 832 914 832 928 832 c 2
 992 832 l 2
 1006 832 1006 832 1015 823 c 0
 1024 814 1024 814 1024 800 c 2
1152 76 m 2
 1152 1024 l 1
 256 1024 l 1
 256 76 l 2
 256 54 256 54 263 35.5 c 0
 270 17 270 17 277.5 8.5 c 0
 285 0 285 0 288 0 c 2
 1120 0 l 2
 1123 0 1123 0 1130.5 8.5 c 0
 1138 17 1138 17 1145 35.5 c 0
 1152 54 1152 54 1152 76 c 2
480 1152 m 1
 928 1152 l 1
 880 1269 l 2
 873 1278 873 1278 863 1280 c 2
 546 1280 l 2
 536 1278 536 1278 529 1269 c 2
 480 1152 l 1
1408 1120 m 2
 1408 1056 l 2
 1408 1042 1408 1042 1399 1033 c 0
 1390 1024 1390 1024 1376 1024 c 2
 1280 1024 l 1
 1280 76 l 2
 1280 -7 1280 -7 1233 -67.5 c 0
 1186 -128 1186 -128 1120 -128 c 2
 288 -128 l 2
 222 -128 222 -128 175 -69.5 c 0
 128 -11 128 -11 128 72 c 2
 128 1024 l 1
 32 1024 l 2
 18 1024 18 1024 9 1033 c 0
 0 1042 0 1042 0 1056 c 2
 0 1120 l 2
 0 1134 0 1134 9 1143 c 0
 18 1152 18 1152 32 1152 c 2
 341 1152 l 1
 411 1319 l 2
 426 1356 426 1356 465 1382 c 0
 504 1408 504 1408 544 1408 c 2
 864 1408 l 2
 904 1408 904 1408 943 1382 c 0
 982 1356 982 1356 997 1319 c 2
 1067 1152 l 1
 1376 1152 l 2
 1390 1152 1390 1152 1399 1143 c 0
 1408 1134 1408 1134 1408 1120 c 2
EndSplineSet
EndChar

StartChar: home
Encoding: 36 61461 36
Width: 1664
Flags: W
LayerCount: 2
Fore
SplineSet
1408 544 m 2
 1408 64 l 2
 1408 38 1408 38 1389 19 c 0
 1370 0 1370 0 1344 0 c 2
 960 0 l 1
 960 384 l 1
 704 384 l 1
 704 0 l 1
 320 0 l 2
 294 0 294 0 275 19 c 0
 256 38 256 38 256 64 c 2
 256 544 l 2
 256 545 256 545 256.5 547 c 0
 257 549 257 549 257 550 c 2
 832 1024 l 1
 1407 550 l 2
 1408 548 1408 548 1408 544 c 2
1631 613 m 2
 1569 539 l 2
 1561 530 1561 530 1548 528 c 2
 1545 528 l 2
 1532 528 1532 528 1524 535 c 2
 832 1112 l 1
 140 535 l 2
 128 527 128 527 116 528 c 0
 103 530 103 530 95 539 c 2
 33 613 l 2
 25 623 25 623 26 636.5 c 0
 27 650 27 650 37 658 c 2
 756 1257 l 2
 788 1283 788 1283 832 1283 c 0
 876 1283 876 1283 908 1257 c 2
 1152 1053 l 1
 1152 1248 l 2
 1152 1262 1152 1262 1161 1271 c 0
 1170 1280 1170 1280 1184 1280 c 2
 1376 1280 l 2
 1390 1280 1390 1280 1399 1271 c 0
 1408 1262 1408 1262 1408 1248 c 2
 1408 840 l 1
 1627 658 l 2
 1637 650 1637 650 1638 636.5 c 0
 1639 623 1639 623 1631 613 c 2
EndSplineSet
EndChar

StartChar: file_alt
Encoding: 37 61462 37
Width: 1536
LayerCount: 2
Fore
SplineSet
1468 1156 m 2
 1496 1128 1496 1128 1516 1080 c 0
 1536 1032 1536 1032 1536 992 c 2
 1536 -160 l 2
 1536 -200 1536 -200 1508 -228 c 0
 1480 -256 1480 -256 1440 -256 c 2
 96 -256 l 2
 56 -256 56 -256 28 -228 c 0
 0 -200 0 -200 0 -160 c 2
 0 1440 l 2
 0 1480 0 1480 28 1508 c 0
 56 1536 56 1536 96 1536 c 2
 992 1536 l 2
 1032 1536 1032 1536 1080 1516 c 0
 1128 1496 1128 1496 1156 1468 c 2
 1468 1156 l 2
1024 1400 m 1
 1024 1024 l 1
 1400 1024 l 1
 1390 1053 1390 1053 1378 1065 c 2
 1065 1378 l 2
 1053 1390 1053 1390 1024 1400 c 1
1408 -128 m 1
 1408 896 l 1
 992 896 l 2
 952 896 952 896 924 924 c 0
 896 952 896 952 896 992 c 2
 896 1408 l 1
 128 1408 l 1
 128 -128 l 1
 1408 -128 l 1
EndSplineSet
EndChar

StartChar: time
Encoding: 38 61463 38
Width: 1536
LayerCount: 2
Fore
SplineSet
896 992 m 2
 896 544 l 2
 896 530 896 530 887 521 c 0
 878 512 878 512 864 512 c 2
 544 512 l 2
 530 512 530 512 521 521 c 0
 512 530 512 530 512 544 c 2
 512 608 l 2
 512 622 512 622 521 631 c 0
 530 640 530 640 544 640 c 2
 768 640 l 1
 768 992 l 2
 768 1006 768 1006 777 1015 c 0
 786 1024 786 1024 800 1024 c 2
 864 1024 l 2
 878 1024 878 1024 887 1015 c 0
 896 1006 896 1006 896 992 c 2
1312 640 m 0
 1312 788 1312 788 1239 913 c 0
 1166 1038 1166 1038 1041 1111 c 0
 916 1184 916 1184 768 1184 c 0
 620 1184 620 1184 495 1111 c 0
 370 1038 370 1038 297 913 c 0
 224 788 224 788 224 640 c 0
 224 492 224 492 297 367 c 0
 370 242 370 242 495 169 c 0
 620 96 620 96 768 96 c 0
 916 96 916 96 1041 169 c 0
 1166 242 1166 242 1239 367 c 0
 1312 492 1312 492 1312 640 c 0
1536 640 m 0
 1536 431 1536 431 1433 254.5 c 0
 1330 78 1330 78 1153.5 -25 c 0
 977 -128 977 -128 768 -128 c 0
 559 -128 559 -128 382.5 -25 c 0
 206 78 206 78 103 254.5 c 0
 0 431 0 431 0 640 c 0
 0 849 0 849 103 1025.5 c 0
 206 1202 206 1202 382.5 1305 c 0
 559 1408 559 1408 768 1408 c 0
 977 1408 977 1408 1153.5 1305 c 0
 1330 1202 1330 1202 1433 1025.5 c 0
 1536 849 1536 849 1536 640 c 0
EndSplineSet
EndChar

StartChar: road
Encoding: 39 61464 39
Width: 1920
Flags: W
LayerCount: 2
Fore
SplineSet
1111 540 m 2
 1111 544 l 1
 1087 864 l 2
 1086 877 1086 877 1076 886.5 c 0
 1066 896 1066 896 1053 896 c 2
 867 896 l 2
 854 896 854 896 844 886.5 c 0
 834 877 834 877 833 864 c 2
 809 544 l 1
 809 540 l 2
 808 528 808 528 817 520 c 0
 826 512 826 512 838 512 c 2
 1082 512 l 2
 1094 512 1094 512 1103 520 c 0
 1112 528 1112 528 1111 540 c 2
1870 73 m 0
 1870 0 1870 0 1824 0 c 2
 1120 0 l 2
 1133 0 1133 0 1142 9.5 c 0
 1151 19 1151 19 1150 32 c 2
 1130 288 l 2
 1129 301 1129 301 1119 310.5 c 0
 1109 320 1109 320 1096 320 c 2
 824 320 l 2
 811 320 811 320 801 310.5 c 0
 791 301 791 301 790 288 c 2
 770 32 l 2
 769 19 769 19 778 9.5 c 0
 787 0 787 0 800 0 c 2
 96 0 l 2
 50 0 50 0 50 73 c 0
 50 127 50 127 76 189 c 2
 493 1233 l 2
 501 1252 501 1252 519 1266 c 0
 537 1280 537 1280 557 1280 c 2
 896 1280 l 2
 883 1280 883 1280 873 1270.5 c 0
 863 1261 863 1261 862 1248 c 2
 847 1056 l 2
 846 1042 846 1042 855 1033 c 0
 864 1024 864 1024 877 1024 c 2
 1043 1024 l 2
 1056 1024 1056 1024 1065 1033 c 0
 1074 1042 1074 1042 1073 1056 c 2
 1058 1248 l 2
 1057 1261 1057 1261 1047 1270.5 c 0
 1037 1280 1037 1280 1024 1280 c 2
 1363 1280 l 2
 1383 1280 1383 1280 1401 1266 c 0
 1419 1252 1419 1252 1427 1233 c 2
 1844 189 l 2
 1870 127 1870 127 1870 73 c 0
EndSplineSet
EndChar

StartChar: download_alt
Encoding: 40 61465 40
Width: 1664
Flags: W
LayerCount: 2
Fore
SplineSet
1280 192 m 0
 1280 218 1280 218 1261 237 c 0
 1242 256 1242 256 1216 256 c 0
 1190 256 1190 256 1171 237 c 0
 1152 218 1152 218 1152 192 c 0
 1152 166 1152 166 1171 147 c 0
 1190 128 1190 128 1216 128 c 0
 1242 128 1242 128 1261 147 c 0
 1280 166 1280 166 1280 192 c 0
1536 192 m 0
 1536 218 1536 218 1517 237 c 0
 1498 256 1498 256 1472 256 c 0
 1446 256 1446 256 1427 237 c 0
 1408 218 1408 218 1408 192 c 0
 1408 166 1408 166 1427 147 c 0
 1446 128 1446 128 1472 128 c 0
 1498 128 1498 128 1517 147 c 0
 1536 166 1536 166 1536 192 c 0
1664 416 m 2
 1664 96 l 2
 1664 56 1664 56 1636 28 c 0
 1608 0 1608 0 1568 0 c 2
 96 0 l 2
 56 0 56 0 28 28 c 0
 0 56 0 56 0 96 c 2
 0 416 l 2
 0 456 0 456 28 484 c 0
 56 512 56 512 96 512 c 2
 561 512 l 1
 696 376 l 2
 754 320 754 320 832 320 c 0
 910 320 910 320 968 376 c 2
 1104 512 l 1
 1568 512 l 2
 1608 512 1608 512 1636 484 c 0
 1664 456 1664 456 1664 416 c 2
1339 985 m 0
 1356 944 1356 944 1325 915 c 2
 877 467 l 2
 859 448 859 448 832 448 c 0
 805 448 805 448 787 467 c 2
 339 915 l 2
 308 944 308 944 325 985 c 0
 342 1024 342 1024 384 1024 c 2
 640 1024 l 1
 640 1472 l 2
 640 1498 640 1498 659 1517 c 0
 678 1536 678 1536 704 1536 c 2
 960 1536 l 2
 986 1536 986 1536 1005 1517 c 0
 1024 1498 1024 1498 1024 1472 c 2
 1024 1024 l 1
 1280 1024 l 2
 1322 1024 1322 1024 1339 985 c 0
EndSplineSet
EndChar

StartChar: download
Encoding: 41 61466 41
Width: 1536
LayerCount: 2
Fore
SplineSet
1120 608 m 0
 1120 596 1120 596 1110 584 c 2
 791 265 l 2
 780 256 780 256 768 256 c 0
 756 256 756 256 745 265 c 2
 425 585 l 2
 410 601 410 601 418 620 c 0
 426 640 426 640 448 640 c 2
 640 640 l 1
 640 992 l 2
 640 1006 640 1006 649 1015 c 0
 658 1024 658 1024 672 1024 c 2
 864 1024 l 2
 878 1024 878 1024 887 1015 c 0
 896 1006 896 1006 896 992 c 2
 896 640 l 1
 1088 640 l 2
 1102 640 1102 640 1111 631 c 0
 1120 622 1120 622 1120 608 c 0
768 1184 m 0
 620 1184 620 1184 495 1111 c 0
 370 1038 370 1038 297 913 c 0
 224 788 224 788 224 640 c 0
 224 492 224 492 297 367 c 0
 370 242 370 242 495 169 c 0
 620 96 620 96 768 96 c 0
 916 96 916 96 1041 169 c 0
 1166 242 1166 242 1239 367 c 0
 1312 492 1312 492 1312 640 c 0
 1312 788 1312 788 1239 913 c 0
 1166 1038 1166 1038 1041 1111 c 0
 916 1184 916 1184 768 1184 c 0
1536 640 m 0
 1536 431 1536 431 1433 254.5 c 0
 1330 78 1330 78 1153.5 -25 c 0
 977 -128 977 -128 768 -128 c 0
 559 -128 559 -128 382.5 -25 c 0
 206 78 206 78 103 254.5 c 0
 0 431 0 431 0 640 c 0
 0 849 0 849 103 1025.5 c 0
 206 1202 206 1202 382.5 1305 c 0
 559 1408 559 1408 768 1408 c 0
 977 1408 977 1408 1153.5 1305 c 0
 1330 1202 1330 1202 1433 1025.5 c 0
 1536 849 1536 849 1536 640 c 0
EndSplineSet
EndChar

StartChar: upload
Encoding: 42 61467 42
Width: 1536
LayerCount: 2
Fore
SplineSet
1118 660 m 0
 1110 640 1110 640 1088 640 c 2
 896 640 l 1
 896 288 l 2
 896 274 896 274 887 265 c 0
 878 256 878 256 864 256 c 2
 672 256 l 2
 658 256 658 256 649 265 c 0
 640 274 640 274 640 288 c 2
 640 640 l 1
 448 640 l 2
 434 640 434 640 425 649 c 0
 416 658 416 658 416 672 c 0
 416 684 416 684 426 696 c 2
 745 1015 l 2
 756 1024 756 1024 768 1024 c 0
 780 1024 780 1024 791 1015 c 2
 1111 695 l 2
 1126 679 1126 679 1118 660 c 0
768 1184 m 0
 620 1184 620 1184 495 1111 c 0
 370 1038 370 1038 297 913 c 0
 224 788 224 788 224 640 c 0
 224 492 224 492 297 367 c 0
 370 242 370 242 495 169 c 0
 620 96 620 96 768 96 c 0
 916 96 916 96 1041 169 c 0
 1166 242 1166 242 1239 367 c 0
 1312 492 1312 492 1312 640 c 0
 1312 788 1312 788 1239 913 c 0
 1166 1038 1166 1038 1041 1111 c 0
 916 1184 916 1184 768 1184 c 0
1536 640 m 0
 1536 431 1536 431 1433 254.5 c 0
 1330 78 1330 78 1153.5 -25 c 0
 977 -128 977 -128 768 -128 c 0
 559 -128 559 -128 382.5 -25 c 0
 206 78 206 78 103 254.5 c 0
 0 431 0 431 0 640 c 0
 0 849 0 849 103 1025.5 c 0
 206 1202 206 1202 382.5 1305 c 0
 559 1408 559 1408 768 1408 c 0
 977 1408 977 1408 1153.5 1305 c 0
 1330 1202 1330 1202 1433 1025.5 c 0
 1536 849 1536 849 1536 640 c 0
EndSplineSet
EndChar

StartChar: inbox
Encoding: 43 61468 43
Width: 1536
LayerCount: 2
Fore
SplineSet
1023 576 m 1
 1339 576 l 2
 1338 579 1338 579 1336.5 584.5 c 0
 1335 590 1335 590 1334 592 c 2
 1122 1088 l 1
 414 1088 l 1
 202 592 l 2
 201 589 201 589 199.5 583.5 c 0
 198 578 198 578 197 576 c 2
 513 576 l 1
 608 384 l 1
 928 384 l 1
 1023 576 l 1
1536 546 m 2
 1536 64 l 2
 1536 38 1536 38 1517 19 c 0
 1498 0 1498 0 1472 0 c 2
 64 0 l 2
 38 0 38 0 19 19 c 0
 0 38 0 38 0 64 c 2
 0 546 l 2
 0 608 0 608 25 669 c 2
 263 1221 l 2
 273 1246 273 1246 299.5 1263 c 0
 326 1280 326 1280 352 1280 c 2
 1184 1280 l 2
 1210 1280 1210 1280 1236.5 1263 c 0
 1263 1246 1263 1246 1273 1221 c 2
 1511 669 l 2
 1536 608 1536 608 1536 546 c 2
EndSplineSet
EndChar

StartChar: play_circle
Encoding: 44 61469 44
Width: 1536
LayerCount: 2
Fore
SplineSet
1184 640 m 0
 1184 603 1184 603 1152 585 c 2
 608 265 l 2
 593 256 593 256 576 256 c 0
 560 256 560 256 544 264 c 0
 512 283 512 283 512 320 c 2
 512 960 l 2
 512 997 512 997 544 1016 c 0
 577 1034 577 1034 608 1015 c 2
 1152 695 l 2
 1184 677 1184 677 1184 640 c 0
1312 640 m 0
 1312 788 1312 788 1239 913 c 0
 1166 1038 1166 1038 1041 1111 c 0
 916 1184 916 1184 768 1184 c 0
 620 1184 620 1184 495 1111 c 0
 370 1038 370 1038 297 913 c 0
 224 788 224 788 224 640 c 0
 224 492 224 492 297 367 c 0
 370 242 370 242 495 169 c 0
 620 96 620 96 768 96 c 0
 916 96 916 96 1041 169 c 0
 1166 242 1166 242 1239 367 c 0
 1312 492 1312 492 1312 640 c 0
1536 640 m 0
 1536 431 1536 431 1433 254.5 c 0
 1330 78 1330 78 1153.5 -25 c 0
 977 -128 977 -128 768 -128 c 0
 559 -128 559 -128 382.5 -25 c 0
 206 78 206 78 103 254.5 c 0
 0 431 0 431 0 640 c 0
 0 849 0 849 103 1025.5 c 0
 206 1202 206 1202 382.5 1305 c 0
 559 1408 559 1408 768 1408 c 0
 977 1408 977 1408 1153.5 1305 c 0
 1330 1202 1330 1202 1433 1025.5 c 0
 1536 849 1536 849 1536 640 c 0
EndSplineSet
EndChar

StartChar: repeat
Encoding: 45 61470 45
Width: 1536
LayerCount: 2
Fore
SplineSet
1536 1280 m 2
 1536 832 l 2
 1536 806 1536 806 1517 787 c 0
 1498 768 1498 768 1472 768 c 2
 1024 768 l 2
 982 768 982 768 965 808 c 0
 948 847 948 847 979 877 c 2
 1117 1015 l 1
 969 1152 969 1152 768 1152 c 0
 664 1152 664 1152 569.5 1111.5 c 0
 475 1071 475 1071 406 1002 c 0
 337 933 337 933 296.5 838.5 c 0
 256 744 256 744 256 640 c 0
 256 536 256 536 296.5 441.5 c 0
 337 347 337 347 406 278 c 0
 475 209 475 209 569.5 168.5 c 0
 664 128 664 128 768 128 c 0
 887 128 887 128 993 180 c 0
 1099 232 1099 232 1172 327 c 0
 1179 337 1179 337 1195 339 c 0
 1210 339 1210 339 1220 330 c 2
 1357 192 l 2
 1366 184 1366 184 1366.5 171.5 c 0
 1367 159 1367 159 1359 149 c 0
 1250 17 1250 17 1095 -55.5 c 0
 940 -128 940 -128 768 -128 c 0
 612 -128 612 -128 470 -67 c 0
 328 -6 328 -6 225 97 c 0
 122 200 122 200 61 342 c 0
 0 484 0 484 0 640 c 0
 0 796 0 796 61 938 c 0
 122 1080 122 1080 225 1183 c 0
 328 1286 328 1286 470 1347 c 0
 612 1408 612 1408 768 1408 c 0
 915 1408 915 1408 1052.5 1352.5 c 0
 1190 1297 1190 1297 1297 1196 c 1
 1427 1325 l 2
 1456 1356 1456 1356 1497 1339 c 0
 1536 1322 1536 1322 1536 1280 c 2
EndSplineSet
EndChar

StartChar: refresh
Encoding: 46 61473 46
Width: 1536
LayerCount: 2
Fore
SplineSet
1511 480 m 0
 1511 475 1511 475 1510 473 c 0
 1446 205 1446 205 1242 38.5 c 0
 1038 -128 1038 -128 764 -128 c 0
 618 -128 618 -128 481.5 -73 c 0
 345 -18 345 -18 238 84 c 1
 109 -45 l 2
 90 -64 90 -64 64 -64 c 0
 38 -64 38 -64 19 -45 c 0
 0 -26 0 -26 0 0 c 2
 0 448 l 2
 0 474 0 474 19 493 c 0
 38 512 38 512 64 512 c 2
 512 512 l 2
 538 512 538 512 557 493 c 0
 576 474 576 474 576 448 c 0
 576 422 576 422 557 403 c 2
 420 266 l 1
 491 200 491 200 581 164 c 0
 671 128 671 128 768 128 c 0
 902 128 902 128 1018 193 c 0
 1134 258 1134 258 1204 372 c 0
 1215 389 1215 389 1257 489 c 0
 1265 512 1265 512 1287 512 c 2
 1479 512 l 2
 1492 512 1492 512 1501.5 502.5 c 0
 1511 493 1511 493 1511 480 c 0
1536 1280 m 2
 1536 832 l 2
 1536 806 1536 806 1517 787 c 0
 1498 768 1498 768 1472 768 c 2
 1024 768 l 2
 998 768 998 768 979 787 c 0
 960 806 960 806 960 832 c 0
 960 858 960 858 979 877 c 2
 1117 1015 l 1
 969 1152 969 1152 768 1152 c 0
 634 1152 634 1152 518 1087 c 0
 402 1022 402 1022 332 908 c 0
 321 891 321 891 279 791 c 0
 271 768 271 768 249 768 c 2
 50 768 l 2
 37 768 37 768 27.5 777.5 c 0
 18 787 18 787 18 800 c 2
 18 807 l 1
 83 1075 83 1075 288 1241.5 c 0
 493 1408 493 1408 768 1408 c 0
 914 1408 914 1408 1052 1352.5 c 0
 1190 1297 1190 1297 1297 1196 c 1
 1427 1325 l 2
 1446 1344 1446 1344 1472 1344 c 0
 1498 1344 1498 1344 1517 1325 c 0
 1536 1306 1536 1306 1536 1280 c 2
EndSplineSet
EndChar

StartChar: list_alt
Encoding: 47 61474 47
Width: 1792
Flags: W
LayerCount: 2
Fore
SplineSet
384 352 m 2
 384 288 l 2
 384 275 384 275 374.5 265.5 c 0
 365 256 365 256 352 256 c 2
 288 256 l 2
 275 256 275 256 265.5 265.5 c 0
 256 275 256 275 256 288 c 2
 256 352 l 2
 256 365 256 365 265.5 374.5 c 0
 275 384 275 384 288 384 c 2
 352 384 l 2
 365 384 365 384 374.5 374.5 c 0
 384 365 384 365 384 352 c 2
384 608 m 2
 384 544 l 2
 384 531 384 531 374.5 521.5 c 0
 365 512 365 512 352 512 c 2
 288 512 l 2
 275 512 275 512 265.5 521.5 c 0
 256 531 256 531 256 544 c 2
 256 608 l 2
 256 621 256 621 265.5 630.5 c 0
 275 640 275 640 288 640 c 2
 352 640 l 2
 365 640 365 640 374.5 630.5 c 0
 384 621 384 621 384 608 c 2
384 864 m 2
 384 800 l 2
 384 787 384 787 374.5 777.5 c 0
 365 768 365 768 352 768 c 2
 288 768 l 2
 275 768 275 768 265.5 777.5 c 0
 256 787 256 787 256 800 c 2
 256 864 l 2
 256 877 256 877 265.5 886.5 c 0
 275 896 275 896 288 896 c 2
 352 896 l 2
 365 896 365 896 374.5 886.5 c 0
 384 877 384 877 384 864 c 2
1536 352 m 2
 1536 288 l 2
 1536 275 1536 275 1526.5 265.5 c 0
 1517 256 1517 256 1504 256 c 2
 544 256 l 2
 531 256 531 256 521.5 265.5 c 0
 512 275 512 275 512 288 c 2
 512 352 l 2
 512 365 512 365 521.5 374.5 c 0
 531 384 531 384 544 384 c 2
 1504 384 l 2
 1517 384 1517 384 1526.5 374.5 c 0
 1536 365 1536 365 1536 352 c 2
1536 608 m 2
 1536 544 l 2
 1536 531 1536 531 1526.5 521.5 c 0
 1517 512 1517 512 1504 512 c 2
 544 512 l 2
 531 512 531 512 521.5 521.5 c 0
 512 531 512 531 512 544 c 2
 512 608 l 2
 512 621 512 621 521.5 630.5 c 0
 531 640 531 640 544 640 c 2
 1504 640 l 2
 1517 640 1517 640 1526.5 630.5 c 0
 1536 621 1536 621 1536 608 c 2
1536 864 m 2
 1536 800 l 2
 1536 787 1536 787 1526.5 777.5 c 0
 1517 768 1517 768 1504 768 c 2
 544 768 l 2
 531 768 531 768 521.5 777.5 c 0
 512 787 512 787 512 800 c 2
 512 864 l 2
 512 877 512 877 521.5 886.5 c 0
 531 896 531 896 544 896 c 2
 1504 896 l 2
 1517 896 1517 896 1526.5 886.5 c 0
 1536 877 1536 877 1536 864 c 2
1664 160 m 2
 1664 992 l 2
 1664 1005 1664 1005 1654.5 1014.5 c 0
 1645 1024 1645 1024 1632 1024 c 2
 160 1024 l 2
 147 1024 147 1024 137.5 1014.5 c 0
 128 1005 128 1005 128 992 c 2
 128 160 l 2
 128 147 128 147 137.5 137.5 c 0
 147 128 147 128 160 128 c 2
 1632 128 l 2
 1645 128 1645 128 1654.5 137.5 c 0
 1664 147 1664 147 1664 160 c 2
1792 1248 m 2
 1792 160 l 2
 1792 94 1792 94 1745 47 c 0
 1698 0 1698 0 1632 0 c 2
 160 0 l 2
 94 0 94 0 47 47 c 0
 0 94 0 94 0 160 c 2
 0 1248 l 2
 0 1314 0 1314 47 1361 c 0
 94 1408 94 1408 160 1408 c 2
 1632 1408 l 2
 1698 1408 1698 1408 1745 1361 c 0
 1792 1314 1792 1314 1792 1248 c 2
EndSplineSet
EndChar

StartChar: lock
Encoding: 48 61475 48
Width: 1152
Flags: W
LayerCount: 2
Fore
SplineSet
320 768 m 1
 832 768 l 1
 832 960 l 2
 832 1066 832 1066 757 1141 c 0
 682 1216 682 1216 576 1216 c 0
 470 1216 470 1216 395 1141 c 0
 320 1066 320 1066 320 960 c 2
 320 768 l 1
1152 672 m 2
 1152 96 l 2
 1152 56 1152 56 1124 28 c 0
 1096 0 1096 0 1056 0 c 2
 96 0 l 2
 56 0 56 0 28 28 c 0
 0 56 0 56 0 96 c 2
 0 672 l 2
 0 712 0 712 28 740 c 0
 56 768 56 768 96 768 c 2
 128 768 l 1
 128 960 l 2
 128 1144 128 1144 260 1276 c 0
 392 1408 392 1408 576 1408 c 0
 760 1408 760 1408 892 1276 c 0
 1024 1144 1024 1144 1024 960 c 2
 1024 768 l 1
 1056 768 l 2
 1096 768 1096 768 1124 740 c 0
 1152 712 1152 712 1152 672 c 2
EndSplineSet
EndChar

StartChar: flag
Encoding: 49 61476 49
Width: 1792
Flags: W
LayerCount: 2
Fore
SplineSet
320 1280 m 0
 320 1208 320 1208 256 1170 c 1
 256 -96 l 2
 256 -109 256 -109 246.5 -118.5 c 0
 237 -128 237 -128 224 -128 c 2
 160 -128 l 2
 147 -128 147 -128 137.5 -118.5 c 0
 128 -109 128 -109 128 -96 c 2
 128 1170 l 1
 64 1208 64 1208 64 1280 c 0
 64 1333 64 1333 101.5 1370.5 c 0
 139 1408 139 1408 192 1408 c 0
 245 1408 245 1408 282.5 1370.5 c 0
 320 1333 320 1333 320 1280 c 0
1792 1216 m 2
 1792 453 l 2
 1792 428 1792 428 1779.5 414.5 c 0
 1767 401 1767 401 1740 387 c 0
 1525 271 1525 271 1371 271 c 0
 1310 271 1310 271 1247.5 293 c 0
 1185 315 1185 315 1139 341 c 0
 1093 367 1093 367 1023.5 389 c 0
 954 411 954 411 881 411 c 0
 689 411 689 411 417 265 c 0
 400 256 400 256 384 256 c 0
 358 256 358 256 339 275 c 0
 320 294 320 294 320 320 c 2
 320 1062 l 2
 320 1094 320 1094 351 1117 c 0
 372 1131 372 1131 430 1160 c 0
 666 1280 666 1280 851 1280 c 0
 958 1280 958 1280 1051 1251 c 0
 1144 1222 1144 1222 1270 1163 c 0
 1308 1144 1308 1144 1358 1144 c 0
 1412 1144 1412 1144 1475.5 1165 c 0
 1539 1186 1539 1186 1585.5 1212 c 0
 1632 1238 1632 1238 1673.5 1259 c 0
 1715 1280 1715 1280 1728 1280 c 0
 1754 1280 1754 1280 1773 1261 c 0
 1792 1242 1792 1242 1792 1216 c 2
EndSplineSet
EndChar

StartChar: headphones
Encoding: 50 61477 50
Width: 1664
Flags: W
LayerCount: 2
Fore
SplineSet
1664 650 m 0
 1664 484 1664 484 1604 336 c 2
 1584 287 l 1
 1399 254 l 1
 1377 171 1377 171 1308.5 117.5 c 0
 1240 64 1240 64 1152 64 c 1
 1152 32 l 2
 1152 18 1152 18 1143 9 c 0
 1134 0 1134 0 1120 0 c 2
 1056 0 l 2
 1042 0 1042 0 1033 9 c 0
 1024 18 1024 18 1024 32 c 2
 1024 608 l 2
 1024 622 1024 622 1033 631 c 0
 1042 640 1042 640 1056 640 c 2
 1120 640 l 2
 1134 640 1134 640 1143 631 c 0
 1152 622 1152 622 1152 608 c 2
 1152 576 l 1
 1223 576 1223 576 1282 540.5 c 0
 1341 505 1341 505 1375 445 c 1
 1443 457 l 1
 1472 552 1472 552 1472 650 c 0
 1472 798 1472 798 1384 929 c 0
 1296 1060 1296 1060 1147.5 1138 c 0
 999 1216 999 1216 832 1216 c 0
 665 1216 665 1216 516.5 1138 c 0
 368 1060 368 1060 280 929 c 0
 192 798 192 798 192 650 c 0
 192 552 192 552 221 457 c 1
 289 445 l 1
 323 505 323 505 382 540.5 c 0
 441 576 441 576 512 576 c 1
 512 608 l 2
 512 622 512 622 521 631 c 0
 530 640 530 640 544 640 c 2
 608 640 l 2
 622 640 622 640 631 631 c 0
 640 622 640 622 640 608 c 2
 640 32 l 2
 640 18 640 18 631 9 c 0
 622 0 622 0 608 0 c 2
 544 0 l 2
 530 0 530 0 521 9 c 0
 512 18 512 18 512 32 c 2
 512 64 l 1
 424 64 424 64 355.5 117.5 c 0
 287 171 287 171 265 254 c 1
 80 287 l 1
 60 336 l 2
 0 484 0 484 0 650 c 0
 0 801 0 801 67 941 c 0
 134 1081 134 1081 246 1183.5 c 0
 358 1286 358 1286 512 1347 c 0
 666 1408 666 1408 832 1408 c 0
 998 1408 998 1408 1152 1347 c 0
 1306 1286 1306 1286 1418 1183.5 c 0
 1530 1081 1530 1081 1597 941 c 0
 1664 801 1664 801 1664 650 c 0
EndSplineSet
EndChar

StartChar: volume_off
Encoding: 51 61478 51
Width: 768
Flags: W
LayerCount: 2
Fore
SplineSet
768 1184 m 2
 768 96 l 2
 768 70 768 70 749 51 c 0
 730 32 730 32 704 32 c 0
 678 32 678 32 659 51 c 2
 326 384 l 1
 64 384 l 2
 38 384 38 384 19 403 c 0
 0 422 0 422 0 448 c 2
 0 832 l 2
 0 858 0 858 19 877 c 0
 38 896 38 896 64 896 c 2
 326 896 l 1
 659 1229 l 2
 678 1248 678 1248 704 1248 c 0
 730 1248 730 1248 749 1229 c 0
 768 1210 768 1210 768 1184 c 2
EndSplineSet
EndChar

StartChar: volume_down
Encoding: 52 61479 52
Width: 1152
Flags: W
LayerCount: 2
Fore
SplineSet
768 1184 m 2
 768 96 l 2
 768 70 768 70 749 51 c 0
 730 32 730 32 704 32 c 0
 678 32 678 32 659 51 c 2
 326 384 l 1
 64 384 l 2
 38 384 38 384 19 403 c 0
 0 422 0 422 0 448 c 2
 0 832 l 2
 0 858 0 858 19 877 c 0
 38 896 38 896 64 896 c 2
 326 896 l 1
 659 1229 l 2
 678 1248 678 1248 704 1248 c 0
 730 1248 730 1248 749 1229 c 0
 768 1210 768 1210 768 1184 c 2
1152 640 m 0
 1152 564 1152 564 1109.5 498.5 c 0
 1067 433 1067 433 997 405 c 0
 987 400 987 400 972 400 c 0
 946 400 946 400 927 418.5 c 0
 908 437 908 437 908 464 c 0
 908 485 908 485 920 499.5 c 0
 932 514 932 514 949 524.5 c 0
 966 535 966 535 983 547.5 c 0
 1000 560 1000 560 1012 583.5 c 0
 1024 607 1024 607 1024 640 c 0
 1024 673 1024 673 1012 696.5 c 0
 1000 720 1000 720 983 732.5 c 0
 966 745 966 745 949 755.5 c 0
 932 766 932 766 920 780.5 c 0
 908 795 908 795 908 816 c 0
 908 843 908 843 927 861.5 c 0
 946 880 946 880 972 880 c 0
 987 880 987 880 997 875 c 0
 1067 848 1067 848 1109.5 782 c 0
 1152 716 1152 716 1152 640 c 0
EndSplineSet
EndChar

StartChar: volume_up
Encoding: 53 61480 53
Width: 1664
Flags: W
LayerCount: 2
Fore
SplineSet
768 1184 m 2
 768 96 l 2
 768 70 768 70 749 51 c 0
 730 32 730 32 704 32 c 0
 678 32 678 32 659 51 c 2
 326 384 l 1
 64 384 l 2
 38 384 38 384 19 403 c 0
 0 422 0 422 0 448 c 2
 0 832 l 2
 0 858 0 858 19 877 c 0
 38 896 38 896 64 896 c 2
 326 896 l 1
 659 1229 l 2
 678 1248 678 1248 704 1248 c 0
 730 1248 730 1248 749 1229 c 0
 768 1210 768 1210 768 1184 c 2
1152 640 m 0
 1152 564 1152 564 1109.5 498.5 c 0
 1067 433 1067 433 997 405 c 0
 987 400 987 400 972 400 c 0
 946 400 946 400 927 418.5 c 0
 908 437 908 437 908 464 c 0
 908 485 908 485 920 499.5 c 0
 932 514 932 514 949 524.5 c 0
 966 535 966 535 983 547.5 c 0
 1000 560 1000 560 1012 583.5 c 0
 1024 607 1024 607 1024 640 c 0
 1024 673 1024 673 1012 696.5 c 0
 1000 720 1000 720 983 732.5 c 0
 966 745 966 745 949 755.5 c 0
 932 766 932 766 920 780.5 c 0
 908 795 908 795 908 816 c 0
 908 843 908 843 927 861.5 c 0
 946 880 946 880 972 880 c 0
 987 880 987 880 997 875 c 0
 1067 848 1067 848 1109.5 782 c 0
 1152 716 1152 716 1152 640 c 0
1408 640 m 0
 1408 487 1408 487 1323 357.5 c 0
 1238 228 1238 228 1098 169 c 0
 1085 164 1085 164 1073 164 c 0
 1046 164 1046 164 1027 183 c 0
 1008 202 1008 202 1008 228 c 0
 1008 267 1008 267 1047 287 c 0
 1103 316 1103 316 1123 331 c 0
 1197 385 1197 385 1238.5 466.5 c 0
 1280 548 1280 548 1280 640 c 0
 1280 732 1280 732 1238.5 813.5 c 0
 1197 895 1197 895 1123 949 c 0
 1103 964 1103 964 1047 993 c 0
 1008 1013 1008 1013 1008 1052 c 0
 1008 1078 1008 1078 1027 1097 c 0
 1046 1116 1046 1116 1072 1116 c 0
 1085 1116 1085 1116 1098 1111 c 0
 1238 1052 1238 1052 1323 922.5 c 0
 1408 793 1408 793 1408 640 c 0
1664 640 m 0
 1664 410 1664 410 1537 217.5 c 0
 1410 25 1410 25 1199 -66 c 0
 1186 -71 1186 -71 1173 -71 c 0
 1147 -71 1147 -71 1128 -52 c 0
 1109 -33 1109 -33 1109 -7 c 0
 1109 29 1109 29 1148 52 c 0
 1155 56 1155 56 1170.5 62.5 c 0
 1186 69 1186 69 1193 73 c 0
 1239 98 1239 98 1275 124 c 0
 1398 215 1398 215 1467 351 c 0
 1536 487 1536 487 1536 640 c 0
 1536 793 1536 793 1467 929 c 0
 1398 1065 1398 1065 1275 1156 c 0
 1239 1182 1239 1182 1193 1207 c 0
 1186 1211 1186 1211 1170.5 1217.5 c 0
 1155 1224 1155 1224 1148 1228 c 0
 1109 1251 1109 1251 1109 1287 c 0
 1109 1313 1109 1313 1128 1332 c 0
 1147 1351 1147 1351 1173 1351 c 0
 1186 1351 1186 1351 1199 1346 c 0
 1410 1255 1410 1255 1537 1062.5 c 0
 1664 870 1664 870 1664 640 c 0
EndSplineSet
EndChar

StartChar: qrcode
Encoding: 54 61481 54
Width: 1408
Flags: W
LayerCount: 2
Fore
SplineSet
384 384 m 1
 384 256 l 1
 256 256 l 1
 256 384 l 1
 384 384 l 1
384 1152 m 1
 384 1024 l 1
 256 1024 l 1
 256 1152 l 1
 384 1152 l 1
1152 1152 m 1
 1152 1024 l 1
 1024 1024 l 1
 1024 1152 l 1
 1152 1152 l 1
128 129 m 1
 512 129 l 1
 512 512 l 1
 128 512 l 1
 128 129 l 1
128 896 m 1
 512 896 l 1
 512 1280 l 1
 128 1280 l 1
 128 896 l 1
896 896 m 1
 1280 896 l 1
 1280 1280 l 1
 896 1280 l 1
 896 896 l 1
640 640 m 1
 640 0 l 1
 0 0 l 1
 0 640 l 1
 640 640 l 1
1152 128 m 1
 1152 0 l 1
 1024 0 l 1
 1024 128 l 1
 1152 128 l 1
1408 128 m 1
 1408 0 l 1
 1280 0 l 1
 1280 128 l 1
 1408 128 l 1
1408 640 m 1
 1408 256 l 1
 1024 256 l 1
 1024 384 l 1
 896 384 l 1
 896 0 l 1
 768 0 l 1
 768 640 l 1
 1152 640 l 1
 1152 512 l 1
 1280 512 l 1
 1280 640 l 1
 1408 640 l 1
640 1408 m 1
 640 768 l 1
 0 768 l 1
 0 1408 l 1
 640 1408 l 1
1408 1408 m 1
 1408 768 l 1
 768 768 l 1
 768 1408 l 1
 1408 1408 l 1
EndSplineSet
EndChar

StartChar: barcode
Encoding: 55 61482 55
Width: 1792
Flags: W
LayerCount: 2
Fore
SplineSet
63 0 m 1
 0 0 l 1
 0 1408 l 1
 63 1408 l 1
 63 0 l 1
126 1 m 1
 94 1 l 1
 94 1408 l 1
 126 1408 l 1
 126 1 l 1
220 1 m 1
 189 1 l 1
 189 1408 l 1
 220 1408 l 1
 220 1 l 1
377 1 m 1
 346 1 l 1
 346 1408 l 1
 377 1408 l 1
 377 1 l 1
534 1 m 1
 472 1 l 1
 472 1408 l 1
 534 1408 l 1
 534 1 l 1
660 1 m 1
 629 1 l 1
 629 1408 l 1
 660 1408 l 1
 660 1 l 1
723 1 m 1
 692 1 l 1
 692 1408 l 1
 723 1408 l 1
 723 1 l 1
786 1 m 1
 755 1 l 1
 755 1408 l 1
 786 1408 l 1
 786 1 l 1
943 1 m 1
 880 1 l 1
 880 1408 l 1
 943 1408 l 1
 943 1 l 1
1100 1 m 1
 1037 1 l 1
 1037 1408 l 1
 1100 1408 l 1
 1100 1 l 1
1226 1 m 1
 1163 1 l 1
 1163 1408 l 1
 1226 1408 l 1
 1226 1 l 1
1352 1 m 1
 1289 1 l 1
 1289 1408 l 1
 1352 1408 l 1
 1352 1 l 1
1446 1 m 1
 1383 1 l 1
 1383 1408 l 1
 1446 1408 l 1
 1446 1 l 1
1635 1 m 1
 1541 1 l 1
 1541 1408 l 1
 1635 1408 l 1
 1635 1 l 1
1698 1 m 1
 1666 1 l 1
 1666 1408 l 1
 1698 1408 l 1
 1698 1 l 1
1792 0 m 1
 1729 0 l 1
 1729 1408 l 1
 1792 1408 l 1
 1792 0 l 1
EndSplineSet
EndChar

StartChar: tag
Encoding: 56 61483 56
Width: 1536
LayerCount: 2
Fore
SplineSet
448 1088 m 0
 448 1141 448 1141 410.5 1178.5 c 0
 373 1216 373 1216 320 1216 c 0
 267 1216 267 1216 229.5 1178.5 c 0
 192 1141 192 1141 192 1088 c 0
 192 1035 192 1035 229.5 997.5 c 0
 267 960 267 960 320 960 c 0
 373 960 373 960 410.5 997.5 c 0
 448 1035 448 1035 448 1088 c 0
1515 512 m 0
 1515 459 1515 459 1478 422 c 2
 987 -70 l 2
 948 -107 948 -107 896 -107 c 0
 843 -107 843 -107 806 -70 c 2
 91 646 l 2
 53 683 53 683 26.5 747 c 0
 0 811 0 811 0 864 c 2
 0 1280 l 2
 0 1332 0 1332 38 1370 c 0
 76 1408 76 1408 128 1408 c 2
 544 1408 l 2
 597 1408 597 1408 661 1381.5 c 0
 725 1355 725 1355 763 1317 c 2
 1478 603 l 2
 1515 564 1515 564 1515 512 c 0
EndSplineSet
EndChar

StartChar: tags
Encoding: 57 61484 57
Width: 1920
Flags: W
LayerCount: 2
Fore
SplineSet
448 1088 m 0
 448 1141 448 1141 410.5 1178.5 c 0
 373 1216 373 1216 320 1216 c 0
 267 1216 267 1216 229.5 1178.5 c 0
 192 1141 192 1141 192 1088 c 0
 192 1035 192 1035 229.5 997.5 c 0
 267 960 267 960 320 960 c 0
 373 960 373 960 410.5 997.5 c 0
 448 1035 448 1035 448 1088 c 0
1515 512 m 0
 1515 459 1515 459 1478 422 c 2
 987 -70 l 2
 948 -107 948 -107 896 -107 c 0
 843 -107 843 -107 806 -70 c 2
 91 646 l 2
 53 683 53 683 26.5 747 c 0
 0 811 0 811 0 864 c 2
 0 1280 l 2
 0 1332 0 1332 38 1370 c 0
 76 1408 76 1408 128 1408 c 2
 544 1408 l 2
 597 1408 597 1408 661 1381.5 c 0
 725 1355 725 1355 763 1317 c 2
 1478 603 l 2
 1515 564 1515 564 1515 512 c 0
1899 512 m 0
 1899 459 1899 459 1862 422 c 2
 1371 -70 l 2
 1332 -107 1332 -107 1280 -107 c 0
 1244 -107 1244 -107 1221 -93 c 0
 1198 -79 1198 -79 1168 -48 c 1
 1638 422 l 2
 1675 459 1675 459 1675 512 c 0
 1675 564 1675 564 1638 603 c 2
 923 1317 l 2
 885 1355 885 1355 821 1381.5 c 0
 757 1408 757 1408 704 1408 c 2
 928 1408 l 2
 981 1408 981 1408 1045 1381.5 c 0
 1109 1355 1109 1355 1147 1317 c 2
 1862 603 l 2
 1899 564 1899 564 1899 512 c 0
EndSplineSet
EndChar

StartChar: book
Encoding: 58 61485 58
Width: 1664
Flags: W
LayerCount: 2
Fore
SplineSet
1639 1058 m 0
 1679 1001 1679 1001 1657 929 c 2
 1382 23 l 2
 1363 -41 1363 -41 1305.5 -84.5 c 0
 1248 -128 1248 -128 1183 -128 c 2
 260 -128 l 2
 183 -128 183 -128 111.5 -74.5 c 0
 40 -21 40 -21 12 57 c 0
 -12 124 -12 124 10 184 c 0
 10 188 10 188 13 211 c 0
 16 234 16 234 17 248 c 0
 18 256 18 256 14 269.5 c 0
 10 283 10 283 11 289 c 0
 13 300 13 300 19 310 c 0
 25 320 25 320 35.5 333.5 c 0
 46 347 46 347 52 357 c 0
 75 395 75 395 97 448.5 c 0
 119 502 119 502 127 540 c 0
 130 550 130 550 127.5 570 c 0
 125 590 125 590 127 598 c 0
 130 609 130 609 144 626 c 0
 158 643 158 643 161 649 c 0
 182 685 182 685 203 741 c 0
 224 797 224 797 228 831 c 0
 229 840 229 840 225.5 863 c 0
 222 886 222 886 226 891 c 0
 230 904 230 904 248 921.5 c 0
 266 939 266 939 270 944 c 0
 289 970 289 970 312.5 1028.5 c 0
 336 1087 336 1087 340 1125 c 0
 341 1133 341 1133 337 1150.5 c 0
 333 1168 333 1168 335 1177 c 0
 337 1185 337 1185 344 1195 c 0
 351 1205 351 1205 362 1218 c 0
 373 1231 373 1231 379 1239 c 0
 387 1251 387 1251 395.5 1269.5 c 0
 404 1288 404 1288 410.5 1304.5 c 0
 417 1321 417 1321 426.5 1340.5 c 0
 436 1360 436 1360 446 1372.5 c 0
 456 1385 456 1385 472.5 1396 c 0
 489 1407 489 1407 508.5 1407.5 c 0
 528 1408 528 1408 556 1402 c 1
 555 1399 l 1
 593 1408 593 1408 606 1408 c 2
 1367 1408 l 2
 1441 1408 1441 1408 1481 1352 c 0
 1521 1296 1521 1296 1499 1222 c 2
 1225 316 l 2
 1189 197 1189 197 1153.5 162.5 c 0
 1118 128 1118 128 1025 128 c 2
 156 128 l 2
 129 128 129 128 118 113 c 0
 107 97 107 97 117 70 c 0
 141 0 141 0 261 0 c 2
 1184 0 l 2
 1213 0 1213 0 1240 15.5 c 0
 1267 31 1267 31 1275 57 c 2
 1575 1044 l 2
 1582 1066 1582 1066 1580 1101 c 1
 1618 1086 1618 1086 1639 1058 c 0
575 1056 m 2
 571 1043 571 1043 577 1033.5 c 0
 583 1024 583 1024 597 1024 c 2
 1205 1024 l 2
 1218 1024 1218 1024 1230.5 1033.5 c 0
 1243 1043 1243 1043 1247 1056 c 2
 1268 1120 l 2
 1272 1133 1272 1133 1266 1142.5 c 0
 1260 1152 1260 1152 1246 1152 c 2
 638 1152 l 2
 625 1152 625 1152 612.5 1142.5 c 0
 600 1133 600 1133 596 1120 c 2
 575 1056 l 2
492 800 m 2
 488 787 488 787 494 777.5 c 0
 500 768 500 768 514 768 c 2
 1122 768 l 2
 1135 768 1135 768 1147.5 777.5 c 0
 1160 787 1160 787 1164 800 c 2
 1185 864 l 2
 1189 877 1189 877 1183 886.5 c 0
 1177 896 1177 896 1163 896 c 2
 555 896 l 2
 542 896 542 896 529.5 886.5 c 0
 517 877 517 877 513 864 c 2
 492 800 l 2
EndSplineSet
EndChar

StartChar: bookmark
Encoding: 59 61486 59
Width: 1280
Flags: W
LayerCount: 2
Fore
SplineSet
1164 1408 m 2
 1187 1408 1187 1408 1208 1399 c 0
 1241 1386 1241 1386 1260.5 1358 c 0
 1280 1330 1280 1330 1280 1296 c 2
 1280 7 l 2
 1280 -27 1280 -27 1260.5 -55 c 0
 1241 -83 1241 -83 1208 -96 c 0
 1189 -104 1189 -104 1164 -104 c 0
 1116 -104 1116 -104 1081 -72 c 2
 640 352 l 1
 199 -72 l 2
 163 -105 163 -105 116 -105 c 0
 93 -105 93 -105 72 -96 c 0
 39 -83 39 -83 19.5 -55 c 0
 0 -27 0 -27 0 7 c 2
 0 1296 l 2
 0 1330 0 1330 19.5 1358 c 0
 39 1386 39 1386 72 1399 c 0
 93 1408 93 1408 116 1408 c 2
 1164 1408 l 2
EndSplineSet
EndChar

StartChar: print
Encoding: 60 61487 60
Width: 1664
Flags: W
LayerCount: 2
Fore
SplineSet
384 0 m 1
 1280 0 l 1
 1280 256 l 1
 384 256 l 1
 384 0 l 1
384 640 m 1
 1280 640 l 1
 1280 1024 l 1
 1120 1024 l 2
 1080 1024 1080 1024 1052 1052 c 0
 1024 1080 1024 1080 1024 1120 c 2
 1024 1280 l 1
 384 1280 l 1
 384 640 l 1
1536 576 m 0
 1536 602 1536 602 1517 621 c 0
 1498 640 1498 640 1472 640 c 0
 1446 640 1446 640 1427 621 c 0
 1408 602 1408 602 1408 576 c 0
 1408 550 1408 550 1427 531 c 0
 1446 512 1446 512 1472 512 c 0
 1498 512 1498 512 1517 531 c 0
 1536 550 1536 550 1536 576 c 0
1664 576 m 2
 1664 160 l 2
 1664 147 1664 147 1654.5 137.5 c 0
 1645 128 1645 128 1632 128 c 2
 1408 128 l 1
 1408 -32 l 2
 1408 -72 1408 -72 1380 -100 c 0
 1352 -128 1352 -128 1312 -128 c 2
 352 -128 l 2
 312 -128 312 -128 284 -100 c 0
 256 -72 256 -72 256 -32 c 2
 256 128 l 1
 32 128 l 2
 19 128 19 128 9.5 137.5 c 0
 0 147 0 147 0 160 c 2
 0 576 l 2
 0 655 0 655 56.5 711.5 c 0
 113 768 113 768 192 768 c 2
 256 768 l 1
 256 1312 l 2
 256 1352 256 1352 284 1380 c 0
 312 1408 312 1408 352 1408 c 2
 1024 1408 l 2
 1064 1408 1064 1408 1112 1388 c 0
 1160 1368 1160 1368 1188 1340 c 2
 1340 1188 l 2
 1368 1160 1368 1160 1388 1112 c 0
 1408 1064 1408 1064 1408 1024 c 2
 1408 768 l 1
 1472 768 l 2
 1551 768 1551 768 1607.5 711.5 c 0
 1664 655 1664 655 1664 576 c 2
EndSplineSet
EndChar

StartChar: camera
Encoding: 61 61488 61
Width: 1920
Flags: W
LayerCount: 2
Fore
SplineSet
960 864 m 0
 1079 864 1079 864 1163.5 779.5 c 0
 1248 695 1248 695 1248 576 c 0
 1248 457 1248 457 1163.5 372.5 c 0
 1079 288 1079 288 960 288 c 0
 841 288 841 288 756.5 372.5 c 0
 672 457 672 457 672 576 c 0
 672 695 672 695 756.5 779.5 c 0
 841 864 841 864 960 864 c 0
1664 1280 m 2
 1770 1280 1770 1280 1845 1205 c 0
 1920 1130 1920 1130 1920 1024 c 2
 1920 128 l 2
 1920 22 1920 22 1845 -53 c 0
 1770 -128 1770 -128 1664 -128 c 2
 256 -128 l 2
 150 -128 150 -128 75 -53 c 0
 0 22 0 22 0 128 c 2
 0 1024 l 2
 0 1130 0 1130 75 1205 c 0
 150 1280 150 1280 256 1280 c 2
 480 1280 l 1
 531 1416 l 2
 550 1465 550 1465 600.5 1500.5 c 0
 651 1536 651 1536 704 1536 c 2
 1216 1536 l 2
 1269 1536 1269 1536 1319.5 1500.5 c 0
 1370 1465 1370 1465 1389 1416 c 2
 1440 1280 l 1
 1664 1280 l 2
960 128 m 0
 1145 128 1145 128 1276.5 259.5 c 0
 1408 391 1408 391 1408 576 c 0
 1408 761 1408 761 1276.5 892.5 c 0
 1145 1024 1145 1024 960 1024 c 0
 775 1024 775 1024 643.5 892.5 c 0
 512 761 512 761 512 576 c 0
 512 391 512 391 643.5 259.5 c 0
 775 128 775 128 960 128 c 0
EndSplineSet
EndChar

StartChar: font
Encoding: 62 61489 62
Width: 1664
Flags: W
LayerCount: 2
Fore
SplineSet
725 977 m 1
 555 527 l 1
 588 527 588 527 691.5 525 c 0
 795 523 795 523 852 523 c 0
 871 523 871 523 909 525 c 1
 822 778 822 778 725 977 c 1
0 -128 m 1
 2 -49 l 1
 25 -42 25 -42 58 -36.5 c 0
 91 -31 91 -31 115 -26 c 0
 139 -21 139 -21 164.5 -11.5 c 0
 190 -2 190 -2 209 17.5 c 0
 228 37 228 37 240 68 c 2
 477 684 l 1
 757 1408 l 1
 832 1408 l 1
 885 1408 l 1
 893 1394 893 1394 896 1387 c 2
 1101 907 l 2
 1134 829 1134 829 1207 649.5 c 0
 1280 470 1280 470 1321 375 c 0
 1336 341 1336 341 1379 230.5 c 0
 1422 120 1422 120 1451 62 c 0
 1471 17 1471 17 1486 5 c 0
 1505 -10 1505 -10 1574 -24.5 c 0
 1643 -39 1643 -39 1658 -45 c 1
 1664 -83 1664 -83 1664 -102 c 0
 1664 -107 1664 -107 1663.5 -115.5 c 0
 1663 -124 1663 -124 1663 -128 c 1
 1600 -128 1600 -128 1473 -120 c 0
 1346 -112 1346 -112 1282 -112 c 0
 1206 -112 1206 -112 1067 -119 c 0
 928 -126 928 -126 889 -127 c 1
 889 -84 889 -84 893 -49 c 1
 1024 -21 l 2
 1025 -21 1025 -21 1036.5 -18.5 c 0
 1048 -16 1048 -16 1052 -15 c 0
 1056 -14 1056 -14 1066.5 -10.5 c 0
 1077 -7 1077 -7 1081.5 -4 c 0
 1086 -1 1086 -1 1092.5 4 c 0
 1099 9 1099 9 1101.5 15 c 0
 1104 21 1104 21 1104 29 c 0
 1104 45 1104 45 1073 125.5 c 0
 1042 206 1042 206 1001 303 c 0
 960 400 960 400 959 403 c 2
 509 405 l 1
 483 347 483 347 432.5 209.5 c 0
 382 72 382 72 382 47 c 0
 382 25 382 25 396 9.5 c 0
 410 -6 410 -6 439.5 -15 c 0
 469 -24 469 -24 488 -28.5 c 0
 507 -33 507 -33 545 -37 c 0
 583 -41 583 -41 586 -41 c 0
 587 -60 587 -60 587 -99 c 0
 587 -108 587 -108 585 -126 c 1
 527 -126 527 -126 410.5 -116 c 0
 294 -106 294 -106 236 -106 c 0
 228 -106 228 -106 209.5 -110 c 0
 191 -114 191 -114 188 -114 c 0
 108 -128 108 -128 0 -128 c 1
EndSplineSet
EndChar

StartChar: bold
Encoding: 63 61490 63
Width: 1408
Flags: W
LayerCount: 2
Fore
SplineSet
555 15 m 1
 629 -17 629 -17 695 -17 c 0
 1071 -17 1071 -17 1071 318 c 0
 1071 432 1071 432 1030 498 c 0
 1003 542 1003 542 968.5 572 c 0
 934 602 934 602 901 618.5 c 0
 868 635 868 635 820.5 643.5 c 0
 773 652 773 652 736.5 654 c 0
 700 656 700 656 642 656 c 0
 569 656 569 656 541 646 c 1
 541 593 541 593 540.5 487 c 0
 540 381 540 381 540 329 c 0
 540 321 540 321 539 261.5 c 0
 538 202 538 202 538.5 165 c 0
 539 128 539 128 543 81.5 c 0
 547 35 547 35 555 15 c 1
541 761 m 1
 583 754 583 754 650 754 c 0
 732 754 732 754 793 767 c 0
 854 780 854 780 903 811.5 c 0
 952 843 952 843 977.5 901 c 0
 1003 959 1003 959 1003 1043 c 0
 1003 1113 1003 1113 974 1165.5 c 0
 945 1218 945 1218 895 1247.5 c 0
 845 1277 845 1277 787 1291 c 0
 729 1305 729 1305 663 1305 c 0
 613 1305 613 1305 533 1292 c 1
 533 1242 533 1242 537 1141 c 0
 541 1040 541 1040 541 989 c 0
 541 962 541 962 540.5 909 c 0
 540 856 540 856 540 830 c 0
 540 784 540 784 541 761 c 1
0 -128 m 1
 2 -34 l 1
 17 -30 17 -30 87 -18 c 0
 157 -6 157 -6 193 9 c 1
 200 21 200 21 205.5 36 c 0
 211 51 211 51 214 69.5 c 0
 217 88 217 88 219.5 102 c 0
 222 116 222 116 222.5 139.5 c 0
 223 163 223 163 223 173.5 c 2
 223 209 l 1
 223 239 l 2
 223 1221 223 1221 201 1264 c 0
 197 1272 197 1272 179 1278.5 c 0
 161 1285 161 1285 134.5 1289.5 c 0
 108 1294 108 1294 85 1296.5 c 0
 62 1299 62 1299 36.5 1301 c 0
 11 1303 11 1303 6 1304 c 1
 2 1387 l 1
 100 1389 100 1389 342 1398.5 c 0
 584 1408 584 1408 715 1408 c 0
 738 1408 738 1408 783 1407.5 c 0
 828 1407 828 1407 851 1407 c 0
 921 1407 921 1407 987.5 1394 c 0
 1054 1381 1054 1381 1116 1352 c 0
 1178 1323 1178 1323 1224 1281 c 0
 1270 1239 1270 1239 1298 1176.5 c 0
 1326 1114 1326 1114 1326 1039 c 0
 1326 987 1326 987 1309.5 943.5 c 0
 1293 900 1293 900 1270.5 871.5 c 0
 1248 843 1248 843 1206 814 c 0
 1164 785 1164 785 1133 769 c 0
 1102 753 1102 753 1049 729 c 1
 1203 694 1203 694 1305.5 595 c 0
 1408 496 1408 496 1408 347 c 0
 1408 247 1408 247 1373 167.5 c 0
 1338 88 1338 88 1279.5 37 c 0
 1221 -14 1221 -14 1141.5 -48.5 c 0
 1062 -83 1062 -83 978 -97 c 0
 894 -111 894 -111 802 -111 c 0
 758 -111 758 -111 670 -108 c 0
 582 -105 582 -105 538 -105 c 0
 432 -105 432 -105 231 -116 c 0
 30 -127 30 -127 0 -128 c 1
EndSplineSet
EndChar

StartChar: italic
Encoding: 64 61491 64
Width: 1024
Flags: W
LayerCount: 2
Fore
SplineSet
0 -126 m 1
 17 -41 l 1
 39 -34 39 -34 78.5 -24.5 c 0
 118 -15 118 -15 150.5 -5.5 c 0
 183 4 183 4 210 18 c 1
 238 53 238 53 251 119 c 0
 252 126 252 126 313 408 c 0
 374 690 374 690 427 951.5 c 0
 480 1213 480 1213 479 1248 c 2
 479 1273 l 1
 455 1286 455 1286 424.5 1291.5 c 0
 394 1297 394 1297 355 1299.5 c 0
 316 1302 316 1302 297 1305 c 1
 316 1408 l 1
 349 1406 349 1406 436 1401.5 c 0
 523 1397 523 1397 585.5 1394.5 c 0
 648 1392 648 1392 706 1392 c 0
 754 1392 754 1392 804.5 1394.5 c 0
 855 1397 855 1397 925.5 1401.5 c 0
 996 1406 996 1406 1024 1408 c 1
 1019 1369 1019 1369 1005 1319 c 1
 975 1309 975 1309 903.5 1290.5 c 0
 832 1272 832 1272 795 1257 c 1
 787 1238 787 1238 781 1214.5 c 0
 775 1191 775 1191 772 1174.5 c 0
 769 1158 769 1158 764.5 1129 c 0
 760 1100 760 1100 758 1087 c 0
 731 939 731 939 670.5 667.5 c 0
 610 396 610 396 593 312 c 0
 591 303 591 303 580 254 c 0
 569 205 569 205 560 164 c 0
 551 123 551 123 544 80.5 c 0
 537 38 537 38 538 23 c 2
 539 5 l 1
 556 1 556 1 724 -26 c 1
 721 -70 721 -70 708 -125 c 1
 697 -125 697 -125 675.5 -126.5 c 0
 654 -128 654 -128 643 -128 c 0
 614 -128 614 -128 556 -118 c 0
 498 -108 498 -108 470 -108 c 0
 332 -106 332 -106 264 -106 c 0
 213 -106 213 -106 121 -115 c 0
 29 -124 29 -124 0 -126 c 1
EndSplineSet
EndChar

StartChar: text_height
Encoding: 65 61492 65
Width: 1792
Flags: W
LayerCount: 2
Fore
SplineSet
1744 128 m 2
 1777 128 1777 128 1786 109.5 c 0
 1795 91 1795 91 1775 65 c 2
 1649 -97 l 2
 1629 -123 1629 -123 1600 -123 c 0
 1571 -123 1571 -123 1551 -97 c 2
 1425 65 l 2
 1405 91 1405 91 1414 109.5 c 0
 1423 128 1423 128 1456 128 c 2
 1536 128 l 1
 1536 1152 l 1
 1456 1152 l 2
 1423 1152 1423 1152 1414 1170.5 c 0
 1405 1189 1405 1189 1425 1215 c 2
 1551 1377 l 2
 1571 1403 1571 1403 1600 1403 c 0
 1629 1403 1629 1403 1649 1377 c 2
 1775 1215 l 2
 1795 1189 1795 1189 1786 1170.5 c 0
 1777 1152 1777 1152 1744 1152 c 2
 1664 1152 l 1
 1664 128 l 1
 1744 128 l 2
81 1407 m 1
 135 1380 l 2
 147 1375 147 1375 346 1375 c 0
 390 1375 390 1375 478 1377 c 0
 566 1379 566 1379 610 1379 c 0
 646 1379 646 1379 717.5 1378.5 c 0
 789 1378 789 1378 825 1378 c 2
 1118 1378 l 2
 1124 1378 1124 1378 1139 1377.5 c 0
 1154 1377 1154 1377 1159.5 1377.5 c 0
 1165 1378 1165 1378 1175.5 1380.5 c 0
 1186 1383 1186 1383 1193 1389.5 c 0
 1200 1396 1200 1396 1208 1407 c 1
 1250 1408 l 2
 1254 1408 1254 1408 1264 1407.5 c 0
 1274 1407 1274 1407 1278 1407 c 0
 1280 1295 1280 1295 1280 1071 c 0
 1280 991 1280 991 1275 962 c 1
 1236 948 1236 948 1207 944 c 1
 1182 988 1182 988 1153 1072 c 0
 1150 1081 1150 1081 1142 1120 c 0
 1134 1159 1134 1159 1127.5 1193.5 c 0
 1121 1228 1121 1228 1120 1229 c 0
 1114 1237 1114 1237 1108 1241.5 c 0
 1102 1246 1102 1246 1092.5 1247.5 c 0
 1083 1249 1083 1249 1079.5 1250 c 0
 1076 1251 1076 1251 1061.5 1250.5 c 0
 1047 1250 1047 1250 1045 1250 c 0
 1028 1250 1028 1250 978.5 1250.5 c 0
 929 1251 929 1251 904 1251 c 0
 879 1251 879 1251 840 1249 c 0
 801 1247 801 1247 769 1243 c 1
 760 1162 760 1162 761 1107 c 0
 761 1013 761 1013 763 719 c 0
 765 425 765 425 765 264 c 0
 765 248 765 248 762.5 192.5 c 0
 760 137 760 137 762.5 101 c 0
 765 65 765 65 775 32 c 1
 815 11 815 11 899 -10.5 c 0
 983 -32 983 -32 1019 -48 c 1
 1024 -88 1024 -88 1024 -98 c 0
 1024 -112 1024 -112 1021 -127 c 1
 987 -128 l 2
 911 -130 911 -130 769 -120 c 0
 627 -110 627 -110 562 -110 c 0
 512 -110 512 -110 411 -119 c 0
 310 -128 310 -128 259 -128 c 1
 256 -77 256 -77 256 -76 c 2
 256 -67 l 1
 273 -40 273 -40 317.5 -24 c 0
 362 -8 362 -8 416 5 c 0
 470 18 470 18 494 32 c 1
 513 74 513 74 513 415 c 0
 513 516 513 516 510 718 c 0
 507 920 507 920 507 1021 c 2
 507 1138 l 2
 507 1140 507 1140 507.5 1153.5 c 0
 508 1167 508 1167 508 1178.5 c 0
 508 1190 508 1190 507 1204 c 0
 506 1218 506 1218 504 1228 c 0
 502 1238 502 1238 499 1242 c 0
 488 1254 488 1254 337 1254 c 0
 304 1254 304 1254 244 1242 c 0
 184 1230 184 1230 164 1216 c 0
 145 1203 145 1203 130 1143.5 c 0
 115 1084 115 1084 98.5 1032.5 c 0
 82 981 82 981 56 979 c 1
 14 1005 14 1005 0 1023 c 1
 0 1406 l 1
 81 1407 l 1
EndSplineSet
EndChar

StartChar: text_width
Encoding: 66 61493 66
Width: 1536
LayerCount: 2
Fore
SplineSet
81 1407 m 1
 135 1380 l 2
 147 1375 147 1375 346 1375 c 0
 390 1375 390 1375 478 1377 c 0
 566 1379 566 1379 610 1379 c 0
 680 1379 680 1379 856.5 1380 c 0
 1033 1381 1033 1381 1161 1380.5 c 0
 1289 1380 1289 1380 1408 1376 c 0
 1441 1375 1441 1375 1464 1407 c 1
 1506 1408 l 2
 1510 1408 1510 1408 1520 1407.5 c 0
 1530 1407 1530 1407 1534 1407 c 0
 1536 1295 1536 1295 1536 1071 c 0
 1536 991 1536 991 1531 962 c 1
 1492 948 1492 948 1463 944 c 1
 1438 988 1438 988 1409 1072 c 0
 1406 1081 1406 1081 1398 1119.5 c 0
 1390 1158 1390 1158 1383 1193 c 0
 1376 1228 1376 1228 1376 1229 c 0
 1366 1242 1366 1242 1349 1248 c 0
 1344 1250 1344 1250 1283 1250 c 0
 1253 1250 1253 1250 1190 1251 c 0
 1127 1252 1127 1252 1087 1252 c 0
 1047 1252 1047 1252 993 1250 c 0
 939 1248 939 1248 897 1243 c 1
 888 1162 888 1162 889 1107 c 2
 890 955 l 1
 890 1007 l 2
 890 952 890 952 891 853 c 0
 892 754 892 754 892.5 673 c 0
 893 592 893 592 893 520 c 0
 893 504 893 504 890.5 448.5 c 0
 888 393 888 393 890.5 357 c 0
 893 321 893 321 903 288 c 1
 943 267 943 267 1027 245.5 c 0
 1111 224 1111 224 1147 208 c 1
 1152 168 1152 168 1152 158 c 0
 1152 144 1152 144 1149 129 c 1
 1115 128 l 2
 1039 126 1039 126 897 136 c 0
 755 146 755 146 690 146 c 0
 640 146 640 146 539 137 c 0
 438 128 438 128 387 128 c 1
 384 179 384 179 384 180 c 2
 384 189 l 1
 401 216 401 216 445.5 232 c 0
 490 248 490 248 544 261 c 0
 598 274 598 274 622 288 c 1
 629 304 629 304 633.5 362 c 0
 638 420 638 420 639.5 507.5 c 0
 641 595 641 595 641 662.5 c 0
 641 730 641 730 640.5 816 c 0
 640 902 640 902 640 905 c 0
 640 912 640 912 637.5 926.5 c 0
 635 941 635 941 635 949 c 0
 635 956 635 956 635.5 993 c 0
 636 1030 636 1030 636.5 1066 c 0
 637 1102 637 1102 636.5 1142.5 c 0
 636 1183 636 1183 633.5 1210 c 0
 631 1237 631 1237 627 1242 c 0
 616 1254 616 1254 465 1254 c 0
 424 1254 424 1254 302 1240.5 c 0
 180 1227 180 1227 164 1216 c 0
 145 1204 145 1204 130 1144.5 c 0
 115 1085 115 1085 98.5 1033 c 0
 82 981 82 981 56 979 c 1
 14 1005 14 1005 0 1023 c 1
 0 1406 l 1
 81 1407 l 1
1310 125 m 0
 1322 125 1322 125 1352 105.5 c 0
 1382 86 1382 86 1409.5 64 c 0
 1437 42 1437 42 1469 15 c 0
 1501 -12 1501 -12 1505 -15 c 0
 1531 -36 1531 -36 1531 -64 c 0
 1531 -92 1531 -92 1505 -113 c 0
 1501 -116 1501 -116 1469 -143 c 0
 1437 -170 1437 -170 1409.5 -192 c 0
 1382 -214 1382 -214 1352 -233.5 c 0
 1322 -253 1322 -253 1310 -253 c 0
 1297 -253 1297 -253 1289.5 -242.5 c 0
 1282 -232 1282 -232 1279.5 -214 c 0
 1277 -196 1277 -196 1277 -180.5 c 0
 1277 -165 1277 -165 1278.5 -147.5 c 0
 1280 -130 1280 -130 1280 -128 c 2
 256 -128 l 2
 256 -130 256 -130 257.5 -147.5 c 0
 259 -165 259 -165 259 -180.5 c 0
 259 -196 259 -196 256.5 -214 c 0
 254 -232 254 -232 246.5 -242.5 c 0
 239 -253 239 -253 226 -253 c 0
 214 -253 214 -253 184 -233.5 c 0
 154 -214 154 -214 126.5 -192 c 0
 99 -170 99 -170 67 -143 c 0
 35 -116 35 -116 31 -113 c 0
 5 -92 5 -92 5 -64 c 0
 5 -36 5 -36 31 -15 c 0
 35 -12 35 -12 67 15 c 0
 99 42 99 42 126.5 64 c 0
 154 86 154 86 184 105.5 c 0
 214 125 214 125 226 125 c 0
 239 125 239 125 246.5 114.5 c 0
 254 104 254 104 256.5 86 c 0
 259 68 259 68 259 52.5 c 0
 259 37 259 37 257.5 19.5 c 0
 256 2 256 2 256 0 c 2
 1280 0 l 2
 1280 2 1280 2 1278.5 19.5 c 0
 1277 37 1277 37 1277 52.5 c 0
 1277 68 1277 68 1279.5 86 c 0
 1282 104 1282 104 1289.5 114.5 c 0
 1297 125 1297 125 1310 125 c 0
EndSplineSet
EndChar

StartChar: align_left
Encoding: 67 61494 67
Width: 1792
Flags: W
LayerCount: 2
Fore
SplineSet
1792 192 m 2
 1792 64 l 2
 1792 38 1792 38 1773 19 c 0
 1754 0 1754 0 1728 0 c 2
 64 0 l 2
 38 0 38 0 19 19 c 0
 0 38 0 38 0 64 c 2
 0 192 l 2
 0 218 0 218 19 237 c 0
 38 256 38 256 64 256 c 2
 1728 256 l 2
 1754 256 1754 256 1773 237 c 0
 1792 218 1792 218 1792 192 c 2
1408 576 m 2
 1408 448 l 2
 1408 422 1408 422 1389 403 c 0
 1370 384 1370 384 1344 384 c 2
 64 384 l 2
 38 384 38 384 19 403 c 0
 0 422 0 422 0 448 c 2
 0 576 l 2
 0 602 0 602 19 621 c 0
 38 640 38 640 64 640 c 2
 1344 640 l 2
 1370 640 1370 640 1389 621 c 0
 1408 602 1408 602 1408 576 c 2
1664 960 m 2
 1664 832 l 2
 1664 806 1664 806 1645 787 c 0
 1626 768 1626 768 1600 768 c 2
 64 768 l 2
 38 768 38 768 19 787 c 0
 0 806 0 806 0 832 c 2
 0 960 l 2
 0 986 0 986 19 1005 c 0
 38 1024 38 1024 64 1024 c 2
 1600 1024 l 2
 1626 1024 1626 1024 1645 1005 c 0
 1664 986 1664 986 1664 960 c 2
1280 1344 m 2
 1280 1216 l 2
 1280 1190 1280 1190 1261 1171 c 0
 1242 1152 1242 1152 1216 1152 c 2
 64 1152 l 2
 38 1152 38 1152 19 1171 c 0
 0 1190 0 1190 0 1216 c 2
 0 1344 l 2
 0 1370 0 1370 19 1389 c 0
 38 1408 38 1408 64 1408 c 2
 1216 1408 l 2
 1242 1408 1242 1408 1261 1389 c 0
 1280 1370 1280 1370 1280 1344 c 2
EndSplineSet
EndChar

StartChar: align_center
Encoding: 68 61495 68
Width: 1792
Flags: W
LayerCount: 2
Fore
SplineSet
1792 192 m 2
 1792 64 l 2
 1792 38 1792 38 1773 19 c 0
 1754 0 1754 0 1728 0 c 2
 64 0 l 2
 38 0 38 0 19 19 c 0
 0 38 0 38 0 64 c 2
 0 192 l 2
 0 218 0 218 19 237 c 0
 38 256 38 256 64 256 c 2
 1728 256 l 2
 1754 256 1754 256 1773 237 c 0
 1792 218 1792 218 1792 192 c 2
1408 576 m 2
 1408 448 l 2
 1408 422 1408 422 1389 403 c 0
 1370 384 1370 384 1344 384 c 2
 448 384 l 2
 422 384 422 384 403 403 c 0
 384 422 384 422 384 448 c 2
 384 576 l 2
 384 602 384 602 403 621 c 0
 422 640 422 640 448 640 c 2
 1344 640 l 2
 1370 640 1370 640 1389 621 c 0
 1408 602 1408 602 1408 576 c 2
1664 960 m 2
 1664 832 l 2
 1664 806 1664 806 1645 787 c 0
 1626 768 1626 768 1600 768 c 2
 192 768 l 2
 166 768 166 768 147 787 c 0
 128 806 128 806 128 832 c 2
 128 960 l 2
 128 986 128 986 147 1005 c 0
 166 1024 166 1024 192 1024 c 2
 1600 1024 l 2
 1626 1024 1626 1024 1645 1005 c 0
 1664 986 1664 986 1664 960 c 2
1280 1344 m 2
 1280 1216 l 2
 1280 1190 1280 1190 1261 1171 c 0
 1242 1152 1242 1152 1216 1152 c 2
 576 1152 l 2
 550 1152 550 1152 531 1171 c 0
 512 1190 512 1190 512 1216 c 2
 512 1344 l 2
 512 1370 512 1370 531 1389 c 0
 550 1408 550 1408 576 1408 c 2
 1216 1408 l 2
 1242 1408 1242 1408 1261 1389 c 0
 1280 1370 1280 1370 1280 1344 c 2
EndSplineSet
EndChar

StartChar: align_right
Encoding: 69 61496 69
Width: 1792
Flags: W
LayerCount: 2
Fore
SplineSet
1792 192 m 2
 1792 64 l 2
 1792 38 1792 38 1773 19 c 0
 1754 0 1754 0 1728 0 c 2
 64 0 l 2
 38 0 38 0 19 19 c 0
 0 38 0 38 0 64 c 2
 0 192 l 2
 0 218 0 218 19 237 c 0
 38 256 38 256 64 256 c 2
 1728 256 l 2
 1754 256 1754 256 1773 237 c 0
 1792 218 1792 218 1792 192 c 2
1792 576 m 2
 1792 448 l 2
 1792 422 1792 422 1773 403 c 0
 1754 384 1754 384 1728 384 c 2
 448 384 l 2
 422 384 422 384 403 403 c 0
 384 422 384 422 384 448 c 2
 384 576 l 2
 384 602 384 602 403 621 c 0
 422 640 422 640 448 640 c 2
 1728 640 l 2
 1754 640 1754 640 1773 621 c 0
 1792 602 1792 602 1792 576 c 2
1792 960 m 2
 1792 832 l 2
 1792 806 1792 806 1773 787 c 0
 1754 768 1754 768 1728 768 c 2
 192 768 l 2
 166 768 166 768 147 787 c 0
 128 806 128 806 128 832 c 2
 128 960 l 2
 128 986 128 986 147 1005 c 0
 166 1024 166 1024 192 1024 c 2
 1728 1024 l 2
 1754 1024 1754 1024 1773 1005 c 0
 1792 986 1792 986 1792 960 c 2
1792 1344 m 2
 1792 1216 l 2
 1792 1190 1792 1190 1773 1171 c 0
 1754 1152 1754 1152 1728 1152 c 2
 576 1152 l 2
 550 1152 550 1152 531 1171 c 0
 512 1190 512 1190 512 1216 c 2
 512 1344 l 2
 512 1370 512 1370 531 1389 c 0
 550 1408 550 1408 576 1408 c 2
 1728 1408 l 2
 1754 1408 1754 1408 1773 1389 c 0
 1792 1370 1792 1370 1792 1344 c 2
EndSplineSet
EndChar

StartChar: align_justify
Encoding: 70 61497 70
Width: 1792
Flags: W
LayerCount: 2
Fore
SplineSet
1792 192 m 2
 1792 64 l 2
 1792 38 1792 38 1773 19 c 0
 1754 0 1754 0 1728 0 c 2
 64 0 l 2
 38 0 38 0 19 19 c 0
 0 38 0 38 0 64 c 2
 0 192 l 2
 0 218 0 218 19 237 c 0
 38 256 38 256 64 256 c 2
 1728 256 l 2
 1754 256 1754 256 1773 237 c 0
 1792 218 1792 218 1792 192 c 2
1792 576 m 2
 1792 448 l 2
 1792 422 1792 422 1773 403 c 0
 1754 384 1754 384 1728 384 c 2
 64 384 l 2
 38 384 38 384 19 403 c 0
 0 422 0 422 0 448 c 2
 0 576 l 2
 0 602 0 602 19 621 c 0
 38 640 38 640 64 640 c 2
 1728 640 l 2
 1754 640 1754 640 1773 621 c 0
 1792 602 1792 602 1792 576 c 2
1792 960 m 2
 1792 832 l 2
 1792 806 1792 806 1773 787 c 0
 1754 768 1754 768 1728 768 c 2
 64 768 l 2
 38 768 38 768 19 787 c 0
 0 806 0 806 0 832 c 2
 0 960 l 2
 0 986 0 986 19 1005 c 0
 38 1024 38 1024 64 1024 c 2
 1728 1024 l 2
 1754 1024 1754 1024 1773 1005 c 0
 1792 986 1792 986 1792 960 c 2
1792 1344 m 2
 1792 1216 l 2
 1792 1190 1792 1190 1773 1171 c 0
 1754 1152 1754 1152 1728 1152 c 2
 64 1152 l 2
 38 1152 38 1152 19 1171 c 0
 0 1190 0 1190 0 1216 c 2
 0 1344 l 2
 0 1370 0 1370 19 1389 c 0
 38 1408 38 1408 64 1408 c 2
 1728 1408 l 2
 1754 1408 1754 1408 1773 1389 c 0
 1792 1370 1792 1370 1792 1344 c 2
EndSplineSet
EndChar

StartChar: list
Encoding: 71 61498 71
Width: 1792
Flags: W
LayerCount: 2
Fore
SplineSet
256 224 m 2
 256 32 l 2
 256 19 256 19 246.5 9.5 c 0
 237 0 237 0 224 0 c 2
 32 0 l 2
 19 0 19 0 9.5 9.5 c 0
 0 19 0 19 0 32 c 2
 0 224 l 2
 0 237 0 237 9.5 246.5 c 0
 19 256 19 256 32 256 c 2
 224 256 l 2
 237 256 237 256 246.5 246.5 c 0
 256 237 256 237 256 224 c 2
256 608 m 2
 256 416 l 2
 256 403 256 403 246.5 393.5 c 0
 237 384 237 384 224 384 c 2
 32 384 l 2
 19 384 19 384 9.5 393.5 c 0
 0 403 0 403 0 416 c 2
 0 608 l 2
 0 621 0 621 9.5 630.5 c 0
 19 640 19 640 32 640 c 2
 224 640 l 2
 237 640 237 640 246.5 630.5 c 0
 256 621 256 621 256 608 c 2
256 992 m 2
 256 800 l 2
 256 787 256 787 246.5 777.5 c 0
 237 768 237 768 224 768 c 2
 32 768 l 2
 19 768 19 768 9.5 777.5 c 0
 0 787 0 787 0 800 c 2
 0 992 l 2
 0 1005 0 1005 9.5 1014.5 c 0
 19 1024 19 1024 32 1024 c 2
 224 1024 l 2
 237 1024 237 1024 246.5 1014.5 c 0
 256 1005 256 1005 256 992 c 2
1792 224 m 2
 1792 32 l 2
 1792 19 1792 19 1782.5 9.5 c 0
 1773 0 1773 0 1760 0 c 2
 416 0 l 2
 403 0 403 0 393.5 9.5 c 0
 384 19 384 19 384 32 c 2
 384 224 l 2
 384 237 384 237 393.5 246.5 c 0
 403 256 403 256 416 256 c 2
 1760 256 l 2
 1773 256 1773 256 1782.5 246.5 c 0
 1792 237 1792 237 1792 224 c 2
256 1376 m 2
 256 1184 l 2
 256 1171 256 1171 246.5 1161.5 c 0
 237 1152 237 1152 224 1152 c 2
 32 1152 l 2
 19 1152 19 1152 9.5 1161.5 c 0
 0 1171 0 1171 0 1184 c 2
 0 1376 l 2
 0 1389 0 1389 9.5 1398.5 c 0
 19 1408 19 1408 32 1408 c 2
 224 1408 l 2
 237 1408 237 1408 246.5 1398.5 c 0
 256 1389 256 1389 256 1376 c 2
1792 608 m 2
 1792 416 l 2
 1792 403 1792 403 1782.5 393.5 c 0
 1773 384 1773 384 1760 384 c 2
 416 384 l 2
 403 384 403 384 393.5 393.5 c 0
 384 403 384 403 384 416 c 2
 384 608 l 2
 384 621 384 621 393.5 630.5 c 0
 403 640 403 640 416 640 c 2
 1760 640 l 2
 1773 640 1773 640 1782.5 630.5 c 0
 1792 621 1792 621 1792 608 c 2
1792 992 m 2
 1792 800 l 2
 1792 787 1792 787 1782.5 777.5 c 0
 1773 768 1773 768 1760 768 c 2
 416 768 l 2
 403 768 403 768 393.5 777.5 c 0
 384 787 384 787 384 800 c 2
 384 992 l 2
 384 1005 384 1005 393.5 1014.5 c 0
 403 1024 403 1024 416 1024 c 2
 1760 1024 l 2
 1773 1024 1773 1024 1782.5 1014.5 c 0
 1792 1005 1792 1005 1792 992 c 2
1792 1376 m 2
 1792 1184 l 2
 1792 1171 1792 1171 1782.5 1161.5 c 0
 1773 1152 1773 1152 1760 1152 c 2
 416 1152 l 2
 403 1152 403 1152 393.5 1161.5 c 0
 384 1171 384 1171 384 1184 c 2
 384 1376 l 2
 384 1389 384 1389 393.5 1398.5 c 0
 403 1408 403 1408 416 1408 c 2
 1760 1408 l 2
 1773 1408 1773 1408 1782.5 1398.5 c 0
 1792 1389 1792 1389 1792 1376 c 2
EndSplineSet
EndChar

StartChar: indent_left
Encoding: 72 61499 72
Width: 1792
Flags: W
LayerCount: 2
Fore
SplineSet
384 992 m 2
 384 416 l 2
 384 403 384 403 374.5 393.5 c 0
 365 384 365 384 352 384 c 0
 338 384 338 384 329 393 c 2
 41 681 l 2
 32 690 32 690 32 704 c 0
 32 718 32 718 41 727 c 2
 329 1015 l 2
 338 1024 338 1024 352 1024 c 0
 365 1024 365 1024 374.5 1014.5 c 0
 384 1005 384 1005 384 992 c 2
1792 224 m 2
 1792 32 l 2
 1792 19 1792 19 1782.5 9.5 c 0
 1773 0 1773 0 1760 0 c 2
 32 0 l 2
 19 0 19 0 9.5 9.5 c 0
 0 19 0 19 0 32 c 2
 0 224 l 2
 0 237 0 237 9.5 246.5 c 0
 19 256 19 256 32 256 c 2
 1760 256 l 2
 1773 256 1773 256 1782.5 246.5 c 0
 1792 237 1792 237 1792 224 c 2
1792 608 m 2
 1792 416 l 2
 1792 403 1792 403 1782.5 393.5 c 0
 1773 384 1773 384 1760 384 c 2
 672 384 l 2
 659 384 659 384 649.5 393.5 c 0
 640 403 640 403 640 416 c 2
 640 608 l 2
 640 621 640 621 649.5 630.5 c 0
 659 640 659 640 672 640 c 2
 1760 640 l 2
 1773 640 1773 640 1782.5 630.5 c 0
 1792 621 1792 621 1792 608 c 2
1792 992 m 2
 1792 800 l 2
 1792 787 1792 787 1782.5 777.5 c 0
 1773 768 1773 768 1760 768 c 2
 672 768 l 2
 659 768 659 768 649.5 777.5 c 0
 640 787 640 787 640 800 c 2
 640 992 l 2
 640 1005 640 1005 649.5 1014.5 c 0
 659 1024 659 1024 672 1024 c 2
 1760 1024 l 2
 1773 1024 1773 1024 1782.5 1014.5 c 0
 1792 1005 1792 1005 1792 992 c 2
1792 1376 m 2
 1792 1184 l 2
 1792 1171 1792 1171 1782.5 1161.5 c 0
 1773 1152 1773 1152 1760 1152 c 2
 32 1152 l 2
 19 1152 19 1152 9.5 1161.5 c 0
 0 1171 0 1171 0 1184 c 2
 0 1376 l 2
 0 1389 0 1389 9.5 1398.5 c 0
 19 1408 19 1408 32 1408 c 2
 1760 1408 l 2
 1773 1408 1773 1408 1782.5 1398.5 c 0
 1792 1389 1792 1389 1792 1376 c 2
EndSplineSet
EndChar

StartChar: indent_right
Encoding: 73 61500 73
Width: 1792
Flags: W
LayerCount: 2
Fore
SplineSet
352 704 m 0
 352 690 352 690 343 681 c 2
 55 393 l 2
 46 384 46 384 32 384 c 0
 19 384 19 384 9.5 393.5 c 0
 0 403 0 403 0 416 c 2
 0 992 l 2
 0 1005 0 1005 9.5 1014.5 c 0
 19 1024 19 1024 32 1024 c 0
 46 1024 46 1024 55 1015 c 2
 343 727 l 2
 352 718 352 718 352 704 c 0
1792 224 m 2
 1792 32 l 2
 1792 19 1792 19 1782.5 9.5 c 0
 1773 0 1773 0 1760 0 c 2
 32 0 l 2
 19 0 19 0 9.5 9.5 c 0
 0 19 0 19 0 32 c 2
 0 224 l 2
 0 237 0 237 9.5 246.5 c 0
 19 256 19 256 32 256 c 2
 1760 256 l 2
 1773 256 1773 256 1782.5 246.5 c 0
 1792 237 1792 237 1792 224 c 2
1792 608 m 2
 1792 416 l 2
 1792 403 1792 403 1782.5 393.5 c 0
 1773 384 1773 384 1760 384 c 2
 672 384 l 2
 659 384 659 384 649.5 393.5 c 0
 640 403 640 403 640 416 c 2
 640 608 l 2
 640 621 640 621 649.5 630.5 c 0
 659 640 659 640 672 640 c 2
 1760 640 l 2
 1773 640 1773 640 1782.5 630.5 c 0
 1792 621 1792 621 1792 608 c 2
1792 992 m 2
 1792 800 l 2
 1792 787 1792 787 1782.5 777.5 c 0
 1773 768 1773 768 1760 768 c 2
 672 768 l 2
 659 768 659 768 649.5 777.5 c 0
 640 787 640 787 640 800 c 2
 640 992 l 2
 640 1005 640 1005 649.5 1014.5 c 0
 659 1024 659 1024 672 1024 c 2
 1760 1024 l 2
 1773 1024 1773 1024 1782.5 1014.5 c 0
 1792 1005 1792 1005 1792 992 c 2
1792 1376 m 2
 1792 1184 l 2
 1792 1171 1792 1171 1782.5 1161.5 c 0
 1773 1152 1773 1152 1760 1152 c 2
 32 1152 l 2
 19 1152 19 1152 9.5 1161.5 c 0
 0 1171 0 1171 0 1184 c 2
 0 1376 l 2
 0 1389 0 1389 9.5 1398.5 c 0
 19 1408 19 1408 32 1408 c 2
 1760 1408 l 2
 1773 1408 1773 1408 1782.5 1398.5 c 0
 1792 1389 1792 1389 1792 1376 c 2
EndSplineSet
EndChar

StartChar: facetime_video
Encoding: 74 61501 74
Width: 1792
Flags: W
LayerCount: 2
Fore
SplineSet
1792 1184 m 2
 1792 96 l 2
 1792 54 1792 54 1753 37 c 0
 1740 32 1740 32 1728 32 c 0
 1701 32 1701 32 1683 51 c 2
 1280 454 l 1
 1280 288 l 2
 1280 169 1280 169 1195.5 84.5 c 0
 1111 0 1111 0 992 0 c 2
 288 0 l 2
 169 0 169 0 84.5 84.5 c 0
 0 169 0 169 0 288 c 2
 0 992 l 2
 0 1111 0 1111 84.5 1195.5 c 0
 169 1280 169 1280 288 1280 c 2
 992 1280 l 2
 1111 1280 1111 1280 1195.5 1195.5 c 0
 1280 1111 1280 1111 1280 992 c 2
 1280 827 l 1
 1683 1229 l 2
 1701 1248 1701 1248 1728 1248 c 0
 1740 1248 1740 1248 1753 1243 c 0
 1792 1226 1792 1226 1792 1184 c 2
EndSplineSet
EndChar

StartChar: picture
Encoding: 75 61502 75
Width: 1920
Flags: W
LayerCount: 2
Fore
SplineSet
640 960 m 0
 640 880 640 880 584 824 c 0
 528 768 528 768 448 768 c 0
 368 768 368 768 312 824 c 0
 256 880 256 880 256 960 c 0
 256 1040 256 1040 312 1096 c 0
 368 1152 368 1152 448 1152 c 0
 528 1152 528 1152 584 1096 c 0
 640 1040 640 1040 640 960 c 0
1664 576 m 1
 1664 128 l 1
 256 128 l 1
 256 320 l 1
 576 640 l 1
 736 480 l 1
 1248 992 l 1
 1664 576 l 1
1760 1280 m 2
 160 1280 l 2
 147 1280 147 1280 137.5 1270.5 c 0
 128 1261 128 1261 128 1248 c 2
 128 32 l 2
 128 19 128 19 137.5 9.5 c 0
 147 0 147 0 160 0 c 2
 1760 0 l 2
 1773 0 1773 0 1782.5 9.5 c 0
 1792 19 1792 19 1792 32 c 2
 1792 1248 l 2
 1792 1261 1792 1261 1782.5 1270.5 c 0
 1773 1280 1773 1280 1760 1280 c 2
1920 1248 m 2
 1920 32 l 2
 1920 -34 1920 -34 1873 -81 c 0
 1826 -128 1826 -128 1760 -128 c 2
 160 -128 l 2
 94 -128 94 -128 47 -81 c 0
 0 -34 0 -34 0 32 c 2
 0 1248 l 2
 0 1314 0 1314 47 1361 c 0
 94 1408 94 1408 160 1408 c 2
 1760 1408 l 2
 1826 1408 1826 1408 1873 1361 c 0
 1920 1314 1920 1314 1920 1248 c 2
EndSplineSet
EndChar

StartChar: pencil
Encoding: 76 61504 76
Width: 1536
LayerCount: 2
Fore
SplineSet
363 0 m 1
 454 91 l 1
 219 326 l 1
 128 235 l 1
 128 128 l 1
 256 128 l 1
 256 0 l 1
 363 0 l 1
886 928 m 0
 886 950 886 950 864 950 c 0
 854 950 854 950 847 943 c 2
 305 401 l 2
 298 394 298 394 298 384 c 0
 298 362 298 362 320 362 c 0
 330 362 330 362 337 369 c 2
 879 911 l 2
 886 918 886 918 886 928 c 0
832 1120 m 1
 1248 704 l 1
 416 -128 l 1
 0 -128 l 1
 0 288 l 1
 832 1120 l 1
1515 1024 m 0
 1515 971 1515 971 1478 934 c 2
 1312 768 l 1
 896 1184 l 1
 1062 1349 l 2
 1098 1387 1098 1387 1152 1387 c 0
 1205 1387 1205 1387 1243 1349 c 2
 1478 1115 l 2
 1515 1076 1515 1076 1515 1024 c 0
EndSplineSet
EndChar

StartChar: map_marker
Encoding: 77 61505 77
Width: 1024
Flags: W
LayerCount: 2
Fore
SplineSet
768 896 m 0
 768 1002 768 1002 693 1077 c 0
 618 1152 618 1152 512 1152 c 0
 406 1152 406 1152 331 1077 c 0
 256 1002 256 1002 256 896 c 0
 256 790 256 790 331 715 c 0
 406 640 406 640 512 640 c 0
 618 640 618 640 693 715 c 0
 768 790 768 790 768 896 c 0
1024 896 m 0
 1024 787 1024 787 991 717 c 2
 627 -57 l 2
 611 -90 611 -90 579.5 -109 c 0
 548 -128 548 -128 512 -128 c 0
 476 -128 476 -128 444.5 -109 c 0
 413 -90 413 -90 398 -57 c 2
 33 717 l 2
 0 787 0 787 0 896 c 0
 0 1108 0 1108 150 1258 c 0
 300 1408 300 1408 512 1408 c 0
 724 1408 724 1408 874 1258 c 0
 1024 1108 1024 1108 1024 896 c 0
EndSplineSet
EndChar

StartChar: adjust
Encoding: 78 61506 78
Width: 1536
LayerCount: 2
Fore
SplineSet
768 96 m 1
 768 1184 l 1
 620 1184 620 1184 495 1111 c 0
 370 1038 370 1038 297 913 c 0
 224 788 224 788 224 640 c 0
 224 492 224 492 297 367 c 0
 370 242 370 242 495 169 c 0
 620 96 620 96 768 96 c 1
1536 640 m 0
 1536 431 1536 431 1433 254.5 c 0
 1330 78 1330 78 1153.5 -25 c 0
 977 -128 977 -128 768 -128 c 0
 559 -128 559 -128 382.5 -25 c 0
 206 78 206 78 103 254.5 c 0
 0 431 0 431 0 640 c 0
 0 849 0 849 103 1025.5 c 0
 206 1202 206 1202 382.5 1305 c 0
 559 1408 559 1408 768 1408 c 0
 977 1408 977 1408 1153.5 1305 c 0
 1330 1202 1330 1202 1433 1025.5 c 0
 1536 849 1536 849 1536 640 c 0
EndSplineSet
EndChar

StartChar: tint
Encoding: 79 61507 79
Width: 1024
Flags: W
LayerCount: 2
Fore
SplineSet
512 384 m 0
 512 420 512 420 492 453 c 0
 491 454 491 454 476.5 475.5 c 0
 462 497 462 497 451 513.5 c 0
 440 530 440 530 426 557.5 c 0
 412 585 412 585 405 608 c 0
 401 624 401 624 384 624 c 0
 367 624 367 624 363 608 c 0
 356 585 356 585 342 557.5 c 0
 328 530 328 530 317 513.5 c 0
 306 497 306 497 291.5 475.5 c 0
 277 454 277 454 276 453 c 0
 256 420 256 420 256 384 c 0
 256 331 256 331 293.5 293.5 c 0
 331 256 331 256 384 256 c 0
 437 256 437 256 474.5 293.5 c 0
 512 331 512 331 512 384 c 0
1024 512 m 0
 1024 300 1024 300 874 150 c 0
 724 0 724 0 512 0 c 0
 300 0 300 0 150 150 c 0
 0 300 0 300 0 512 c 0
 0 657 0 657 81 787 c 0
 87 796 87 796 143.5 877.5 c 0
 200 959 200 959 244.5 1028.5 c 0
 289 1098 289 1098 344 1206.5 c 0
 399 1315 399 1315 427 1408 c 0
 436 1438 436 1438 461 1455 c 0
 486 1472 486 1472 512 1472 c 0
 538 1472 538 1472 563.5 1455 c 0
 589 1438 589 1438 597 1408 c 0
 625 1315 625 1315 680 1206.5 c 0
 735 1098 735 1098 779.5 1028.5 c 0
 824 959 824 959 880.5 877.5 c 0
 937 796 937 796 943 787 c 0
 1024 660 1024 660 1024 512 c 0
EndSplineSet
EndChar

StartChar: edit
Encoding: 80 61508 80
Width: 1792
Flags: W
LayerCount: 2
Fore
SplineSet
888 352 m 1
 1004 468 l 1
 852 620 l 1
 736 504 l 1
 736 448 l 1
 832 448 l 1
 832 352 l 1
 888 352 l 1
1328 1072 m 0
 1312 1088 1312 1088 1295 1071 c 2
 945 721 l 2
 928 704 928 704 944 688 c 0
 960 672 960 672 977 689 c 2
 1327 1039 l 2
 1344 1056 1344 1056 1328 1072 c 0
1408 478 m 2
 1408 288 l 2
 1408 169 1408 169 1323.5 84.5 c 0
 1239 0 1239 0 1120 0 c 2
 288 0 l 2
 169 0 169 0 84.5 84.5 c 0
 0 169 0 169 0 288 c 2
 0 1120 l 2
 0 1239 0 1239 84.5 1323.5 c 0
 169 1408 169 1408 288 1408 c 2
 1120 1408 l 2
 1183 1408 1183 1408 1237 1383 c 0
 1252 1376 1252 1376 1255 1360 c 0
 1258 1343 1258 1343 1246 1331 c 2
 1197 1282 l 2
 1183 1268 1183 1268 1165 1274 c 0
 1142 1280 1142 1280 1120 1280 c 2
 288 1280 l 2
 222 1280 222 1280 175 1233 c 0
 128 1186 128 1186 128 1120 c 2
 128 288 l 2
 128 222 128 222 175 175 c 0
 222 128 222 128 288 128 c 2
 1120 128 l 2
 1186 128 1186 128 1233 175 c 0
 1280 222 1280 222 1280 288 c 2
 1280 414 l 2
 1280 427 1280 427 1289 436 c 2
 1353 500 l 2
 1368 515 1368 515 1388 507 c 0
 1408 499 1408 499 1408 478 c 2
1312 1216 m 1
 1600 928 l 1
 928 256 l 1
 640 256 l 1
 640 544 l 1
 1312 1216 l 1
1756 1084 m 2
 1664 992 l 1
 1376 1280 l 1
 1468 1372 l 2
 1496 1400 1496 1400 1536 1400 c 0
 1576 1400 1576 1400 1604 1372 c 2
 1756 1220 l 2
 1784 1192 1784 1192 1784 1152 c 0
 1784 1112 1784 1112 1756 1084 c 2
EndSplineSet
EndChar

StartChar: share
Encoding: 81 61509 81
Width: 1664
Flags: W
LayerCount: 2
Fore
SplineSet
1408 547 m 2
 1408 288 l 2
 1408 169 1408 169 1323.5 84.5 c 0
 1239 0 1239 0 1120 0 c 2
 288 0 l 2
 169 0 169 0 84.5 84.5 c 0
 0 169 0 169 0 288 c 2
 0 1120 l 2
 0 1239 0 1239 84.5 1323.5 c 0
 169 1408 169 1408 288 1408 c 2
 543 1408 l 1
 543 1408 l 1
 556 1408 556 1408 565.5 1398.5 c 0
 575 1389 575 1389 575 1376 c 0
 575 1349 575 1349 549 1344 c 0
 472 1318 472 1318 416 1284 c 0
 406 1280 406 1280 400 1280 c 2
 288 1280 l 2
 222 1280 222 1280 175 1233 c 0
 128 1186 128 1186 128 1120 c 2
 128 288 l 2
 128 222 128 222 175 175 c 0
 222 128 222 128 288 128 c 2
 1120 128 l 2
 1186 128 1186 128 1233 175 c 0
 1280 222 1280 222 1280 288 c 2
 1280 502 l 2
 1280 521 1280 521 1298 531 c 0
 1326 544 1326 544 1352 568 c 0
 1368 584 1368 584 1387 576 c 0
 1408 567 1408 567 1408 547 c 2
1645 1043 m 2
 1261 659 l 2
 1243 640 1243 640 1216 640 c 0
 1204 640 1204 640 1191 645 c 0
 1152 662 1152 662 1152 704 c 2
 1152 896 l 1
 992 896 l 2
 669 896 669 896 554 765 c 0
 435 628 435 628 480 292 c 0
 483 269 483 269 460 258 c 0
 452 256 452 256 448 256 c 0
 432 256 432 256 422 269 c 0
 412 283 412 283 401 300 c 0
 390 317 390 317 361.5 368.5 c 0
 333 420 333 420 312 468 c 0
 291 516 291 516 273.5 582 c 0
 256 648 256 648 256 704 c 0
 256 753 256 753 259.5 795 c 0
 263 837 263 837 273.5 885 c 0
 284 933 284 933 301.5 973 c 0
 319 1013 319 1013 348.5 1054.5 c 0
 378 1096 378 1096 417 1128.5 c 0
 456 1161 456 1161 511.5 1190 c 0
 567 1219 567 1219 636 1238.5 c 0
 705 1258 705 1258 795.5 1269 c 0
 886 1280 886 1280 992 1280 c 2
 1152 1280 l 1
 1152 1472 l 2
 1152 1514 1152 1514 1191 1531 c 0
 1204 1536 1204 1536 1216 1536 c 0
 1242 1536 1242 1536 1261 1517 c 2
 1645 1133 l 2
 1664 1114 1664 1114 1664 1088 c 0
 1664 1062 1664 1062 1645 1043 c 2
EndSplineSet
EndChar

StartChar: check
Encoding: 82 61510 82
Width: 1664
Flags: W
LayerCount: 2
Fore
SplineSet
1408 606 m 2
 1408 288 l 2
 1408 169 1408 169 1323.5 84.5 c 0
 1239 0 1239 0 1120 0 c 2
 288 0 l 2
 169 0 169 0 84.5 84.5 c 0
 0 169 0 169 0 288 c 2
 0 1120 l 2
 0 1239 0 1239 84.5 1323.5 c 0
 169 1408 169 1408 288 1408 c 2
 1120 1408 l 2
 1183 1408 1183 1408 1237 1383 c 0
 1252 1376 1252 1376 1255 1360 c 0
 1258 1343 1258 1343 1246 1331 c 2
 1197 1282 l 2
 1187 1272 1187 1272 1174 1272 c 0
 1171 1272 1171 1272 1165 1274 c 0
 1142 1280 1142 1280 1120 1280 c 2
 288 1280 l 2
 222 1280 222 1280 175 1233 c 0
 128 1186 128 1186 128 1120 c 2
 128 288 l 2
 128 222 128 222 175 175 c 0
 222 128 222 128 288 128 c 2
 1120 128 l 2
 1186 128 1186 128 1233 175 c 0
 1280 222 1280 222 1280 288 c 2
 1280 542 l 2
 1280 555 1280 555 1289 564 c 2
 1353 628 l 2
 1363 638 1363 638 1376 638 c 0
 1382 638 1382 638 1388 635 c 0
 1408 627 1408 627 1408 606 c 2
1639 1095 m 2
 825 281 l 2
 801 257 801 257 768 257 c 0
 735 257 735 257 711 281 c 2
 281 711 l 2
 257 735 257 735 257 768 c 0
 257 801 257 801 281 825 c 2
 391 935 l 2
 415 959 415 959 448 959 c 0
 481 959 481 959 505 935 c 2
 768 672 l 1
 1415 1319 l 2
 1439 1343 1439 1343 1472 1343 c 0
 1505 1343 1505 1343 1529 1319 c 2
 1639 1209 l 2
 1663 1185 1663 1185 1663 1152 c 0
 1663 1119 1663 1119 1639 1095 c 2
EndSplineSet
EndChar

StartChar: move
Encoding: 83 61511 83
Width: 1792
Flags: W
LayerCount: 2
Fore
SplineSet
1792 640 m 0
 1792 614 1792 614 1773 595 c 2
 1517 339 l 2
 1498 320 1498 320 1472 320 c 0
 1446 320 1446 320 1427 339 c 0
 1408 358 1408 358 1408 384 c 2
 1408 512 l 1
 1024 512 l 1
 1024 128 l 1
 1152 128 l 2
 1178 128 1178 128 1197 109 c 0
 1216 90 1216 90 1216 64 c 0
 1216 38 1216 38 1197 19 c 2
 941 -237 l 2
 922 -256 922 -256 896 -256 c 0
 870 -256 870 -256 851 -237 c 2
 595 19 l 2
 576 38 576 38 576 64 c 0
 576 90 576 90 595 109 c 0
 614 128 614 128 640 128 c 2
 768 128 l 1
 768 512 l 1
 384 512 l 1
 384 384 l 2
 384 358 384 358 365 339 c 0
 346 320 346 320 320 320 c 0
 294 320 294 320 275 339 c 2
 19 595 l 2
 0 614 0 614 0 640 c 0
 0 666 0 666 19 685 c 2
 275 941 l 2
 294 960 294 960 320 960 c 0
 346 960 346 960 365 941 c 0
 384 922 384 922 384 896 c 2
 384 768 l 1
 768 768 l 1
 768 1152 l 1
 640 1152 l 2
 614 1152 614 1152 595 1171 c 0
 576 1190 576 1190 576 1216 c 0
 576 1242 576 1242 595 1261 c 2
 851 1517 l 2
 870 1536 870 1536 896 1536 c 0
 922 1536 922 1536 941 1517 c 2
 1197 1261 l 2
 1216 1242 1216 1242 1216 1216 c 0
 1216 1190 1216 1190 1197 1171 c 0
 1178 1152 1178 1152 1152 1152 c 2
 1024 1152 l 1
 1024 768 l 1
 1408 768 l 1
 1408 896 l 2
 1408 922 1408 922 1427 941 c 0
 1446 960 1446 960 1472 960 c 0
 1498 960 1498 960 1517 941 c 2
 1773 685 l 2
 1792 666 1792 666 1792 640 c 0
EndSplineSet
EndChar

StartChar: step_backward
Encoding: 84 61512 84
Width: 1024
Flags: W
LayerCount: 2
Fore
SplineSet
979 1395 m 2
 998 1414 998 1414 1011 1408 c 0
 1024 1402 1024 1402 1024 1376 c 2
 1024 -96 l 2
 1024 -122 1024 -122 1011 -128 c 0
 998 -134 998 -134 979 -115 c 2
 269 595 l 2
 260 604 260 604 256 614 c 1
 256 -64 l 2
 256 -90 256 -90 237 -109 c 0
 218 -128 218 -128 192 -128 c 2
 64 -128 l 2
 38 -128 38 -128 19 -109 c 0
 0 -90 0 -90 0 -64 c 2
 0 1344 l 2
 0 1370 0 1370 19 1389 c 0
 38 1408 38 1408 64 1408 c 2
 192 1408 l 2
 218 1408 218 1408 237 1389 c 0
 256 1370 256 1370 256 1344 c 2
 256 666 l 1
 260 676 260 676 269 685 c 2
 979 1395 l 2
EndSplineSet
EndChar

StartChar: fast_backward
Encoding: 85 61513 85
Width: 1792
Flags: W
LayerCount: 2
Fore
SplineSet
1747 1395 m 2
 1766 1414 1766 1414 1779 1408 c 0
 1792 1402 1792 1402 1792 1376 c 2
 1792 -96 l 2
 1792 -122 1792 -122 1779 -128 c 0
 1766 -134 1766 -134 1747 -115 c 2
 1037 595 l 2
 1028 604 1028 604 1024 614 c 1
 1024 -96 l 2
 1024 -122 1024 -122 1011 -128 c 0
 998 -134 998 -134 979 -115 c 2
 269 595 l 2
 260 604 260 604 256 614 c 1
 256 -64 l 2
 256 -90 256 -90 237 -109 c 0
 218 -128 218 -128 192 -128 c 2
 64 -128 l 2
 38 -128 38 -128 19 -109 c 0
 0 -90 0 -90 0 -64 c 2
 0 1344 l 2
 0 1370 0 1370 19 1389 c 0
 38 1408 38 1408 64 1408 c 2
 192 1408 l 2
 218 1408 218 1408 237 1389 c 0
 256 1370 256 1370 256 1344 c 2
 256 666 l 1
 260 676 260 676 269 685 c 2
 979 1395 l 2
 998 1414 998 1414 1011 1408 c 0
 1024 1402 1024 1402 1024 1376 c 2
 1024 666 l 1
 1028 676 1028 676 1037 685 c 2
 1747 1395 l 2
EndSplineSet
EndChar

StartChar: backward
Encoding: 86 61514 86
Width: 1664
Flags: W
LayerCount: 2
Fore
SplineSet
1619 1395 m 2
 1638 1414 1638 1414 1651 1408 c 0
 1664 1402 1664 1402 1664 1376 c 2
 1664 -96 l 2
 1664 -122 1664 -122 1651 -128 c 0
 1638 -134 1638 -134 1619 -115 c 2
 909 595 l 2
 900 604 900 604 896 614 c 1
 896 -96 l 2
 896 -122 896 -122 883 -128 c 0
 870 -134 870 -134 851 -115 c 2
 141 595 l 2
 122 614 122 614 122 640 c 0
 122 666 122 666 141 685 c 2
 851 1395 l 2
 870 1414 870 1414 883 1408 c 0
 896 1402 896 1402 896 1376 c 2
 896 666 l 1
 900 676 900 676 909 685 c 2
 1619 1395 l 2
EndSplineSet
EndChar

StartChar: play
Encoding: 87 61515 87
Width: 1408
Flags: W
LayerCount: 2
Fore
SplineSet
1384 609 m 2
 56 -129 l 2
 33 -142 33 -142 16.5 -132 c 0
 0 -122 0 -122 0 -96 c 2
 0 1376 l 2
 0 1402 0 1402 16.5 1412 c 0
 33 1422 33 1422 56 1409 c 2
 1384 671 l 2
 1407 658 1407 658 1407 640 c 0
 1407 622 1407 622 1384 609 c 2
EndSplineSet
EndChar

StartChar: pause
Encoding: 88 61516 88
Width: 1536
LayerCount: 2
Fore
SplineSet
1536 1344 m 2
 1536 -64 l 2
 1536 -90 1536 -90 1517 -109 c 0
 1498 -128 1498 -128 1472 -128 c 2
 960 -128 l 2
 934 -128 934 -128 915 -109 c 0
 896 -90 896 -90 896 -64 c 2
 896 1344 l 2
 896 1370 896 1370 915 1389 c 0
 934 1408 934 1408 960 1408 c 2
 1472 1408 l 2
 1498 1408 1498 1408 1517 1389 c 0
 1536 1370 1536 1370 1536 1344 c 2
640 1344 m 2
 640 -64 l 2
 640 -90 640 -90 621 -109 c 0
 602 -128 602 -128 576 -128 c 2
 64 -128 l 2
 38 -128 38 -128 19 -109 c 0
 0 -90 0 -90 0 -64 c 2
 0 1344 l 2
 0 1370 0 1370 19 1389 c 0
 38 1408 38 1408 64 1408 c 2
 576 1408 l 2
 602 1408 602 1408 621 1389 c 0
 640 1370 640 1370 640 1344 c 2
EndSplineSet
EndChar

StartChar: stop
Encoding: 89 61517 89
Width: 1536
LayerCount: 2
Fore
SplineSet
1536 1344 m 2
 1536 -64 l 2
 1536 -90 1536 -90 1517 -109 c 0
 1498 -128 1498 -128 1472 -128 c 2
 64 -128 l 2
 38 -128 38 -128 19 -109 c 0
 0 -90 0 -90 0 -64 c 2
 0 1344 l 2
 0 1370 0 1370 19 1389 c 0
 38 1408 38 1408 64 1408 c 2
 1472 1408 l 2
 1498 1408 1498 1408 1517 1389 c 0
 1536 1370 1536 1370 1536 1344 c 2
EndSplineSet
EndChar

StartChar: forward
Encoding: 90 61518 90
Width: 1664
Flags: W
LayerCount: 2
Fore
SplineSet
45 -115 m 2
 26 -134 26 -134 13 -128 c 0
 0 -122 0 -122 0 -96 c 2
 0 1376 l 2
 0 1402 0 1402 13 1408 c 0
 26 1414 26 1414 45 1395 c 2
 755 685 l 2
 764 676 764 676 768 666 c 1
 768 1376 l 2
 768 1402 768 1402 781 1408 c 0
 794 1414 794 1414 813 1395 c 2
 1523 685 l 2
 1542 666 1542 666 1542 640 c 0
 1542 614 1542 614 1523 595 c 2
 813 -115 l 2
 794 -134 794 -134 781 -128 c 0
 768 -122 768 -122 768 -96 c 2
 768 614 l 1
 764 604 764 604 755 595 c 2
 45 -115 l 2
EndSplineSet
EndChar

StartChar: fast_forward
Encoding: 91 61520 91
Width: 1792
Flags: W
LayerCount: 2
Fore
SplineSet
45 -115 m 2
 26 -134 26 -134 13 -128 c 0
 0 -122 0 -122 0 -96 c 2
 0 1376 l 2
 0 1402 0 1402 13 1408 c 0
 26 1414 26 1414 45 1395 c 2
 755 685 l 2
 764 676 764 676 768 666 c 1
 768 1376 l 2
 768 1402 768 1402 781 1408 c 0
 794 1414 794 1414 813 1395 c 2
 1523 685 l 2
 1532 676 1532 676 1536 666 c 1
 1536 1344 l 2
 1536 1370 1536 1370 1555 1389 c 0
 1574 1408 1574 1408 1600 1408 c 2
 1728 1408 l 2
 1754 1408 1754 1408 1773 1389 c 0
 1792 1370 1792 1370 1792 1344 c 2
 1792 -64 l 2
 1792 -90 1792 -90 1773 -109 c 0
 1754 -128 1754 -128 1728 -128 c 2
 1600 -128 l 2
 1574 -128 1574 -128 1555 -109 c 0
 1536 -90 1536 -90 1536 -64 c 2
 1536 614 l 1
 1532 604 1532 604 1523 595 c 2
 813 -115 l 2
 794 -134 794 -134 781 -128 c 0
 768 -122 768 -122 768 -96 c 2
 768 614 l 1
 764 604 764 604 755 595 c 2
 45 -115 l 2
EndSplineSet
EndChar

StartChar: step_forward
Encoding: 92 61521 92
Width: 1024
Flags: W
LayerCount: 2
Fore
SplineSet
45 -115 m 2
 26 -134 26 -134 13 -128 c 0
 0 -122 0 -122 0 -96 c 2
 0 1376 l 2
 0 1402 0 1402 13 1408 c 0
 26 1414 26 1414 45 1395 c 2
 755 685 l 2
 764 676 764 676 768 666 c 1
 768 1344 l 2
 768 1370 768 1370 787 1389 c 0
 806 1408 806 1408 832 1408 c 2
 960 1408 l 2
 986 1408 986 1408 1005 1389 c 0
 1024 1370 1024 1370 1024 1344 c 2
 1024 -64 l 2
 1024 -90 1024 -90 1005 -109 c 0
 986 -128 986 -128 960 -128 c 2
 832 -128 l 2
 806 -128 806 -128 787 -109 c 0
 768 -90 768 -90 768 -64 c 2
 768 614 l 1
 764 604 764 604 755 595 c 2
 45 -115 l 2
EndSplineSet
EndChar

StartChar: eject
Encoding: 93 61522 93
Width: 1538
Flags: W
LayerCount: 2
Fore
SplineSet
14 557 m 2
 724 1267 l 2
 743 1286 743 1286 769 1286 c 0
 795 1286 795 1286 814 1267 c 2
 1524 557 l 2
 1543 538 1543 538 1537 525 c 0
 1531 512 1531 512 1505 512 c 2
 33 512 l 2
 7 512 7 512 1 525 c 0
 -5 538 -5 538 14 557 c 2
1473 0 m 2
 65 0 l 2
 39 0 39 0 20 19 c 0
 1 38 1 38 1 64 c 2
 1 320 l 2
 1 346 1 346 20 365 c 0
 39 384 39 384 65 384 c 2
 1473 384 l 2
 1499 384 1499 384 1518 365 c 0
 1537 346 1537 346 1537 320 c 2
 1537 64 l 2
 1537 38 1537 38 1518 19 c 0
 1499 0 1499 0 1473 0 c 2
EndSplineSet
EndChar

StartChar: chevron_left
Encoding: 94 61523 94
Width: 1280
Flags: W
LayerCount: 2
Fore
SplineSet
1171 1235 m 2
 640 704 l 1
 1171 173 l 2
 1190 154 1190 154 1190 128 c 0
 1190 102 1190 102 1171 83 c 2
 1005 -83 l 2
 986 -102 986 -102 960 -102 c 0
 934 -102 934 -102 915 -83 c 2
 173 659 l 2
 154 678 154 678 154 704 c 0
 154 730 154 730 173 749 c 2
 915 1491 l 2
 934 1510 934 1510 960 1510 c 0
 986 1510 986 1510 1005 1491 c 2
 1171 1325 l 2
 1190 1306 1190 1306 1190 1280 c 0
 1190 1254 1190 1254 1171 1235 c 2
EndSplineSet
EndChar

StartChar: chevron_right
Encoding: 95 61524 95
Width: 1280
Flags: W
LayerCount: 2
Fore
SplineSet
1107 659 m 2
 365 -83 l 2
 346 -102 346 -102 320 -102 c 0
 294 -102 294 -102 275 -83 c 2
 109 83 l 2
 90 102 90 102 90 128 c 0
 90 154 90 154 109 173 c 2
 640 704 l 1
 109 1235 l 2
 90 1254 90 1254 90 1280 c 0
 90 1306 90 1306 109 1325 c 2
 275 1491 l 2
 294 1510 294 1510 320 1510 c 0
 346 1510 346 1510 365 1491 c 2
 1107 749 l 2
 1126 730 1126 730 1126 704 c 0
 1126 678 1126 678 1107 659 c 2
EndSplineSet
EndChar

StartChar: plus_sign
Encoding: 96 61525 96
Width: 1536
LayerCount: 2
Fore
SplineSet
1216 576 m 2
 1216 704 l 2
 1216 730 1216 730 1197 749 c 0
 1178 768 1178 768 1152 768 c 2
 896 768 l 1
 896 1024 l 2
 896 1050 896 1050 877 1069 c 0
 858 1088 858 1088 832 1088 c 2
 704 1088 l 2
 678 1088 678 1088 659 1069 c 0
 640 1050 640 1050 640 1024 c 2
 640 768 l 1
 384 768 l 2
 358 768 358 768 339 749 c 0
 320 730 320 730 320 704 c 2
 320 576 l 2
 320 550 320 550 339 531 c 0
 358 512 358 512 384 512 c 2
 640 512 l 1
 640 256 l 2
 640 230 640 230 659 211 c 0
 678 192 678 192 704 192 c 2
 832 192 l 2
 858 192 858 192 877 211 c 0
 896 230 896 230 896 256 c 2
 896 512 l 1
 1152 512 l 2
 1178 512 1178 512 1197 531 c 0
 1216 550 1216 550 1216 576 c 2
1536 640 m 0
 1536 431 1536 431 1433 254.5 c 0
 1330 78 1330 78 1153.5 -25 c 0
 977 -128 977 -128 768 -128 c 0
 559 -128 559 -128 382.5 -25 c 0
 206 78 206 78 103 254.5 c 0
 0 431 0 431 0 640 c 0
 0 849 0 849 103 1025.5 c 0
 206 1202 206 1202 382.5 1305 c 0
 559 1408 559 1408 768 1408 c 0
 977 1408 977 1408 1153.5 1305 c 0
 1330 1202 1330 1202 1433 1025.5 c 0
 1536 849 1536 849 1536 640 c 0
EndSplineSet
EndChar

StartChar: minus_sign
Encoding: 97 61526 97
Width: 1536
LayerCount: 2
Fore
SplineSet
1216 576 m 2
 1216 704 l 2
 1216 730 1216 730 1197 749 c 0
 1178 768 1178 768 1152 768 c 2
 384 768 l 2
 358 768 358 768 339 749 c 0
 320 730 320 730 320 704 c 2
 320 576 l 2
 320 550 320 550 339 531 c 0
 358 512 358 512 384 512 c 2
 1152 512 l 2
 1178 512 1178 512 1197 531 c 0
 1216 550 1216 550 1216 576 c 2
1536 640 m 0
 1536 431 1536 431 1433 254.5 c 0
 1330 78 1330 78 1153.5 -25 c 0
 977 -128 977 -128 768 -128 c 0
 559 -128 559 -128 382.5 -25 c 0
 206 78 206 78 103 254.5 c 0
 0 431 0 431 0 640 c 0
 0 849 0 849 103 1025.5 c 0
 206 1202 206 1202 382.5 1305 c 0
 559 1408 559 1408 768 1408 c 0
 977 1408 977 1408 1153.5 1305 c 0
 1330 1202 1330 1202 1433 1025.5 c 0
 1536 849 1536 849 1536 640 c 0
EndSplineSet
EndChar

StartChar: remove_sign
Encoding: 98 61527 98
Width: 1536
LayerCount: 2
Fore
SplineSet
1149 414 m 0
 1149 440 1149 440 1130 459 c 2
 949 640 l 1
 1130 821 l 2
 1149 840 1149 840 1149 866 c 0
 1149 893 1149 893 1130 912 c 2
 1040 1002 l 2
 1021 1021 1021 1021 994 1021 c 0
 968 1021 968 1021 949 1002 c 2
 768 821 l 1
 587 1002 l 2
 568 1021 568 1021 542 1021 c 0
 515 1021 515 1021 496 1002 c 2
 406 912 l 2
 387 893 387 893 387 866 c 0
 387 840 387 840 406 821 c 2
 587 640 l 1
 406 459 l 2
 387 440 387 440 387 414 c 0
 387 387 387 387 406 368 c 2
 496 278 l 2
 515 259 515 259 542 259 c 0
 568 259 568 259 587 278 c 2
 768 459 l 1
 949 278 l 2
 968 259 968 259 994 259 c 0
 1021 259 1021 259 1040 278 c 2
 1130 368 l 2
 1149 387 1149 387 1149 414 c 0
1536 640 m 0
 1536 431 1536 431 1433 254.5 c 0
 1330 78 1330 78 1153.5 -25 c 0
 977 -128 977 -128 768 -128 c 0
 559 -128 559 -128 382.5 -25 c 0
 206 78 206 78 103 254.5 c 0
 0 431 0 431 0 640 c 0
 0 849 0 849 103 1025.5 c 0
 206 1202 206 1202 382.5 1305 c 0
 559 1408 559 1408 768 1408 c 0
 977 1408 977 1408 1153.5 1305 c 0
 1330 1202 1330 1202 1433 1025.5 c 0
 1536 849 1536 849 1536 640 c 0
EndSplineSet
EndChar

StartChar: ok_sign
Encoding: 99 61528 99
Width: 1536
LayerCount: 2
Fore
SplineSet
1284 802 m 0
 1284 830 1284 830 1266 848 c 2
 1175 938 l 2
 1156 957 1156 957 1130 957 c 0
 1104 957 1104 957 1085 938 c 2
 677 531 l 1
 451 757 l 2
 432 776 432 776 406 776 c 0
 380 776 380 776 361 757 c 2
 270 667 l 2
 252 649 252 649 252 621 c 0
 252 594 252 594 270 576 c 2
 632 214 l 2
 651 195 651 195 677 195 c 0
 704 195 704 195 723 214 c 2
 1266 757 l 2
 1284 775 1284 775 1284 802 c 0
1536 640 m 0
 1536 431 1536 431 1433 254.5 c 0
 1330 78 1330 78 1153.5 -25 c 0
 977 -128 977 -128 768 -128 c 0
 559 -128 559 -128 382.5 -25 c 0
 206 78 206 78 103 254.5 c 0
 0 431 0 431 0 640 c 0
 0 849 0 849 103 1025.5 c 0
 206 1202 206 1202 382.5 1305 c 0
 559 1408 559 1408 768 1408 c 0
 977 1408 977 1408 1153.5 1305 c 0
 1330 1202 1330 1202 1433 1025.5 c 0
 1536 849 1536 849 1536 640 c 0
EndSplineSet
EndChar

StartChar: question_sign
Encoding: 100 61529 100
Width: 1536
LayerCount: 2
Fore
SplineSet
896 160 m 2
 896 352 l 2
 896 366 896 366 887 375 c 0
 878 384 878 384 864 384 c 2
 672 384 l 2
 658 384 658 384 649 375 c 0
 640 366 640 366 640 352 c 2
 640 160 l 2
 640 146 640 146 649 137 c 0
 658 128 658 128 672 128 c 2
 864 128 l 2
 878 128 878 128 887 137 c 0
 896 146 896 146 896 160 c 2
1152 832 m 0
 1152 920 1152 920 1096.5 995 c 0
 1041 1070 1041 1070 958 1111 c 0
 875 1152 875 1152 788 1152 c 0
 545 1152 545 1152 417 939 c 0
 402 915 402 915 425 897 c 2
 557 797 l 2
 564 791 564 791 576 791 c 0
 592 791 592 791 601 803 c 0
 654 871 654 871 687 895 c 0
 721 919 721 919 773 919 c 0
 821 919 821 919 858.5 893 c 0
 896 867 896 867 896 834 c 0
 896 796 896 796 876 773 c 0
 856 750 856 750 808 728 c 0
 745 700 745 700 692.5 641.5 c 0
 640 583 640 583 640 516 c 2
 640 480 l 2
 640 466 640 466 649 457 c 0
 658 448 658 448 672 448 c 2
 864 448 l 2
 878 448 878 448 887 457 c 0
 896 466 896 466 896 480 c 0
 896 499 896 499 917.5 529.5 c 0
 939 560 939 560 972 579 c 0
 1004 597 1004 597 1021 607.5 c 0
 1038 618 1038 618 1067 642.5 c 0
 1096 667 1096 667 1111.5 690.5 c 0
 1127 714 1127 714 1139.5 751 c 0
 1152 788 1152 788 1152 832 c 0
1536 640 m 0
 1536 431 1536 431 1433 254.5 c 0
 1330 78 1330 78 1153.5 -25 c 0
 977 -128 977 -128 768 -128 c 0
 559 -128 559 -128 382.5 -25 c 0
 206 78 206 78 103 254.5 c 0
 0 431 0 431 0 640 c 0
 0 849 0 849 103 1025.5 c 0
 206 1202 206 1202 382.5 1305 c 0
 559 1408 559 1408 768 1408 c 0
 977 1408 977 1408 1153.5 1305 c 0
 1330 1202 1330 1202 1433 1025.5 c 0
 1536 849 1536 849 1536 640 c 0
EndSplineSet
EndChar

StartChar: info_sign
Encoding: 101 61530 101
Width: 1536
LayerCount: 2
Fore
SplineSet
1024 160 m 2
 1024 320 l 2
 1024 334 1024 334 1015 343 c 0
 1006 352 1006 352 992 352 c 2
 896 352 l 1
 896 864 l 2
 896 878 896 878 887 887 c 0
 878 896 878 896 864 896 c 2
 544 896 l 2
 530 896 530 896 521 887 c 0
 512 878 512 878 512 864 c 2
 512 704 l 2
 512 690 512 690 521 681 c 0
 530 672 530 672 544 672 c 2
 640 672 l 1
 640 352 l 1
 544 352 l 2
 530 352 530 352 521 343 c 0
 512 334 512 334 512 320 c 2
 512 160 l 2
 512 146 512 146 521 137 c 0
 530 128 530 128 544 128 c 2
 992 128 l 2
 1006 128 1006 128 1015 137 c 0
 1024 146 1024 146 1024 160 c 2
896 1056 m 2
 896 1216 l 2
 896 1230 896 1230 887 1239 c 0
 878 1248 878 1248 864 1248 c 2
 672 1248 l 2
 658 1248 658 1248 649 1239 c 0
 640 1230 640 1230 640 1216 c 2
 640 1056 l 2
 640 1042 640 1042 649 1033 c 0
 658 1024 658 1024 672 1024 c 2
 864 1024 l 2
 878 1024 878 1024 887 1033 c 0
 896 1042 896 1042 896 1056 c 2
1536 640 m 0
 1536 431 1536 431 1433 254.5 c 0
 1330 78 1330 78 1153.5 -25 c 0
 977 -128 977 -128 768 -128 c 0
 559 -128 559 -128 382.5 -25 c 0
 206 78 206 78 103 254.5 c 0
 0 431 0 431 0 640 c 0
 0 849 0 849 103 1025.5 c 0
 206 1202 206 1202 382.5 1305 c 0
 559 1408 559 1408 768 1408 c 0
 977 1408 977 1408 1153.5 1305 c 0
 1330 1202 1330 1202 1433 1025.5 c 0
 1536 849 1536 849 1536 640 c 0
EndSplineSet
EndChar

StartChar: screenshot
Encoding: 102 61531 102
Width: 1536
LayerCount: 2
Fore
SplineSet
1197 512 m 1
 1088 512 l 2
 1062 512 1062 512 1043 531 c 0
 1024 550 1024 550 1024 576 c 2
 1024 704 l 2
 1024 730 1024 730 1043 749 c 0
 1062 768 1062 768 1088 768 c 2
 1197 768 l 1
 1165 876 1165 876 1084.5 956.5 c 0
 1004 1037 1004 1037 896 1069 c 1
 896 960 l 2
 896 934 896 934 877 915 c 0
 858 896 858 896 832 896 c 2
 704 896 l 2
 678 896 678 896 659 915 c 0
 640 934 640 934 640 960 c 2
 640 1069 l 1
 532 1037 532 1037 451.5 956.5 c 0
 371 876 371 876 339 768 c 1
 448 768 l 2
 474 768 474 768 493 749 c 0
 512 730 512 730 512 704 c 2
 512 576 l 2
 512 550 512 550 493 531 c 0
 474 512 474 512 448 512 c 2
 339 512 l 1
 371 404 371 404 451.5 323.5 c 0
 532 243 532 243 640 211 c 1
 640 320 l 2
 640 346 640 346 659 365 c 0
 678 384 678 384 704 384 c 2
 832 384 l 2
 858 384 858 384 877 365 c 0
 896 346 896 346 896 320 c 2
 896 211 l 1
 1004 243 1004 243 1084.5 323.5 c 0
 1165 404 1165 404 1197 512 c 1
1536 704 m 2
 1536 576 l 2
 1536 550 1536 550 1517 531 c 0
 1498 512 1498 512 1472 512 c 2
 1329 512 l 1
 1292 351 1292 351 1174.5 233.5 c 0
 1057 116 1057 116 896 79 c 1
 896 -64 l 2
 896 -90 896 -90 877 -109 c 0
 858 -128 858 -128 832 -128 c 2
 704 -128 l 2
 678 -128 678 -128 659 -109 c 0
 640 -90 640 -90 640 -64 c 2
 640 79 l 1
 479 116 479 116 361.5 233.5 c 0
 244 351 244 351 207 512 c 1
 64 512 l 2
 38 512 38 512 19 531 c 0
 0 550 0 550 0 576 c 2
 0 704 l 2
 0 730 0 730 19 749 c 0
 38 768 38 768 64 768 c 2
 207 768 l 1
 244 929 244 929 361.5 1046.5 c 0
 479 1164 479 1164 640 1201 c 1
 640 1344 l 2
 640 1370 640 1370 659 1389 c 0
 678 1408 678 1408 704 1408 c 2
 832 1408 l 2
 858 1408 858 1408 877 1389 c 0
 896 1370 896 1370 896 1344 c 2
 896 1201 l 1
 1057 1164 1057 1164 1174.5 1046.5 c 0
 1292 929 1292 929 1329 768 c 1
 1472 768 l 2
 1498 768 1498 768 1517 749 c 0
 1536 730 1536 730 1536 704 c 2
EndSplineSet
EndChar

StartChar: remove_circle
Encoding: 103 61532 103
Width: 1536
LayerCount: 2
Fore
SplineSet
1097 457 m 2
 951 311 l 2
 941 301 941 301 928 301 c 0
 915 301 915 301 905 311 c 2
 768 448 l 1
 631 311 l 2
 621 301 621 301 608 301 c 0
 595 301 595 301 585 311 c 2
 439 457 l 2
 429 467 429 467 429 480 c 0
 429 493 429 493 439 503 c 2
 576 640 l 1
 439 777 l 2
 429 787 429 787 429 800 c 0
 429 813 429 813 439 823 c 2
 585 969 l 2
 595 979 595 979 608 979 c 0
 621 979 621 979 631 969 c 2
 768 832 l 1
 905 969 l 2
 915 979 915 979 928 979 c 0
 941 979 941 979 951 969 c 2
 1097 823 l 2
 1107 813 1107 813 1107 800 c 0
 1107 787 1107 787 1097 777 c 2
 960 640 l 1
 1097 503 l 2
 1107 493 1107 493 1107 480 c 0
 1107 467 1107 467 1097 457 c 2
1312 640 m 0
 1312 788 1312 788 1239 913 c 0
 1166 1038 1166 1038 1041 1111 c 0
 916 1184 916 1184 768 1184 c 0
 620 1184 620 1184 495 1111 c 0
 370 1038 370 1038 297 913 c 0
 224 788 224 788 224 640 c 0
 224 492 224 492 297 367 c 0
 370 242 370 242 495 169 c 0
 620 96 620 96 768 96 c 0
 916 96 916 96 1041 169 c 0
 1166 242 1166 242 1239 367 c 0
 1312 492 1312 492 1312 640 c 0
1536 640 m 0
 1536 431 1536 431 1433 254.5 c 0
 1330 78 1330 78 1153.5 -25 c 0
 977 -128 977 -128 768 -128 c 0
 559 -128 559 -128 382.5 -25 c 0
 206 78 206 78 103 254.5 c 0
 0 431 0 431 0 640 c 0
 0 849 0 849 103 1025.5 c 0
 206 1202 206 1202 382.5 1305 c 0
 559 1408 559 1408 768 1408 c 0
 977 1408 977 1408 1153.5 1305 c 0
 1330 1202 1330 1202 1433 1025.5 c 0
 1536 849 1536 849 1536 640 c 0
EndSplineSet
EndChar

StartChar: ok_circle
Encoding: 104 61533 104
Width: 1536
LayerCount: 2
Fore
SplineSet
1171 723 m 2
 749 301 l 2
 730 282 730 282 704 282 c 0
 678 282 678 282 659 301 c 2
 365 595 l 2
 346 614 346 614 346 640 c 0
 346 666 346 666 365 685 c 2
 467 787 l 2
 486 806 486 806 512 806 c 0
 538 806 538 806 557 787 c 2
 704 640 l 1
 979 915 l 2
 998 934 998 934 1024 934 c 0
 1050 934 1050 934 1069 915 c 2
 1171 813 l 2
 1190 794 1190 794 1190 768 c 0
 1190 742 1190 742 1171 723 c 2
1312 640 m 0
 1312 788 1312 788 1239 913 c 0
 1166 1038 1166 1038 1041 1111 c 0
 916 1184 916 1184 768 1184 c 0
 620 1184 620 1184 495 1111 c 0
 370 1038 370 1038 297 913 c 0
 224 788 224 788 224 640 c 0
 224 492 224 492 297 367 c 0
 370 242 370 242 495 169 c 0
 620 96 620 96 768 96 c 0
 916 96 916 96 1041 169 c 0
 1166 242 1166 242 1239 367 c 0
 1312 492 1312 492 1312 640 c 0
1536 640 m 0
 1536 431 1536 431 1433 254.5 c 0
 1330 78 1330 78 1153.5 -25 c 0
 977 -128 977 -128 768 -128 c 0
 559 -128 559 -128 382.5 -25 c 0
 206 78 206 78 103 254.5 c 0
 0 431 0 431 0 640 c 0
 0 849 0 849 103 1025.5 c 0
 206 1202 206 1202 382.5 1305 c 0
 559 1408 559 1408 768 1408 c 0
 977 1408 977 1408 1153.5 1305 c 0
 1330 1202 1330 1202 1433 1025.5 c 0
 1536 849 1536 849 1536 640 c 0
EndSplineSet
EndChar

StartChar: ban_circle
Encoding: 105 61534 105
Width: 1536
LayerCount: 2
Fore
SplineSet
1312 643 m 0
 1312 804 1312 804 1225 938 c 1
 471 185 l 1
 608 96 608 96 768 96 c 0
 879 96 879 96 979.5 139.5 c 0
 1080 183 1080 183 1153 256 c 0
 1226 329 1226 329 1269 430.5 c 0
 1312 532 1312 532 1312 643 c 0
313 344 m 1
 1068 1098 l 1
 933 1189 933 1189 768 1189 c 0
 620 1189 620 1189 495 1116 c 0
 370 1043 370 1043 297 917 c 0
 224 791 224 791 224 643 c 0
 224 481 224 481 313 344 c 1
1536 643 m 0
 1536 486 1536 486 1475 343 c 0
 1414 200 1414 200 1311.5 97 c 0
 1209 -6 1209 -6 1066.5 -67 c 0
 924 -128 924 -128 768 -128 c 0
 612 -128 612 -128 469.5 -67 c 0
 327 -6 327 -6 224.5 97 c 0
 122 200 122 200 61 343 c 0
 0 486 0 486 0 643 c 0
 0 800 0 800 61 942.5 c 0
 122 1085 122 1085 224.5 1188 c 0
 327 1291 327 1291 469.5 1352 c 0
 612 1413 612 1413 768 1413 c 0
 924 1413 924 1413 1066.5 1352 c 0
 1209 1291 1209 1291 1311.5 1188 c 0
 1414 1085 1414 1085 1475 942.5 c 0
 1536 800 1536 800 1536 643 c 0
EndSplineSet
EndChar

StartChar: arrow_left
Encoding: 106 61536 106
Width: 1536
LayerCount: 2
Fore
SplineSet
1536 640 m 2
 1536 512 l 2
 1536 459 1536 459 1503.5 421.5 c 0
 1471 384 1471 384 1419 384 c 2
 715 384 l 1
 1008 90 l 2
 1046 54 1046 54 1046 0 c 0
 1046 -54 1046 -54 1008 -90 c 2
 933 -166 l 2
 896 -203 896 -203 843 -203 c 0
 791 -203 791 -203 752 -166 c 2
 101 486 l 2
 64 523 64 523 64 576 c 0
 64 628 64 628 101 667 c 2
 752 1317 l 2
 790 1355 790 1355 843 1355 c 0
 895 1355 895 1355 933 1317 c 2
 1008 1243 l 2
 1046 1205 1046 1205 1046 1152 c 0
 1046 1099 1046 1099 1008 1061 c 2
 715 768 l 1
 1419 768 l 2
 1471 768 1471 768 1503.5 730.5 c 0
 1536 693 1536 693 1536 640 c 2
EndSplineSet
EndChar

StartChar: arrow_right
Encoding: 107 61537 107
Width: 1536
LayerCount: 2
Fore
SplineSet
1472 576 m 0
 1472 522 1472 522 1435 485 c 2
 784 -166 l 2
 745 -203 745 -203 693 -203 c 0
 642 -203 642 -203 603 -166 c 2
 528 -91 l 2
 490 -53 490 -53 490 0 c 0
 490 53 490 53 528 91 c 2
 821 384 l 1
 117 384 l 2
 65 384 65 384 32.5 421.5 c 0
 0 459 0 459 0 512 c 2
 0 640 l 2
 0 693 0 693 32.5 730.5 c 0
 65 768 65 768 117 768 c 2
 821 768 l 1
 528 1062 l 2
 490 1098 490 1098 490 1152 c 0
 490 1206 490 1206 528 1242 c 2
 603 1317 l 2
 641 1355 641 1355 693 1355 c 0
 746 1355 746 1355 784 1317 c 2
 1435 666 l 2
 1472 631 1472 631 1472 576 c 0
EndSplineSet
EndChar

StartChar: arrow_up
Encoding: 108 61538 108
Width: 1664
Flags: W
LayerCount: 2
Fore
SplineSet
1611 565 m 0
 1611 514 1611 514 1574 475 c 2
 1499 400 l 2
 1461 362 1461 362 1408 362 c 0
 1354 362 1354 362 1318 400 c 2
 1024 693 l 1
 1024 -11 l 2
 1024 -63 1024 -63 986.5 -95.5 c 0
 949 -128 949 -128 896 -128 c 2
 768 -128 l 2
 715 -128 715 -128 677.5 -95.5 c 0
 640 -63 640 -63 640 -11 c 2
 640 693 l 1
 346 400 l 2
 310 362 310 362 256 362 c 0
 202 362 202 362 166 400 c 2
 91 475 l 2
 53 513 53 513 53 565 c 0
 53 618 53 618 91 656 c 2
 742 1307 l 2
 777 1344 777 1344 832 1344 c 0
 886 1344 886 1344 923 1307 c 2
 1574 656 l 2
 1611 617 1611 617 1611 565 c 0
EndSplineSet
EndChar

StartChar: arrow_down
Encoding: 109 61539 109
Width: 1664
Flags: W
LayerCount: 2
Fore
SplineSet
1611 704 m 0
 1611 651 1611 651 1574 614 c 2
 923 -38 l 2
 884 -75 884 -75 832 -75 c 0
 779 -75 779 -75 742 -38 c 2
 91 614 l 2
 53 650 53 650 53 704 c 0
 53 757 53 757 91 795 c 2
 165 870 l 2
 204 907 204 907 256 907 c 0
 309 907 309 907 346 870 c 2
 640 576 l 1
 640 1280 l 2
 640 1332 640 1332 678 1370 c 0
 716 1408 716 1408 768 1408 c 2
 896 1408 l 2
 948 1408 948 1408 986 1370 c 0
 1024 1332 1024 1332 1024 1280 c 2
 1024 576 l 1
 1318 870 l 2
 1355 907 1355 907 1408 907 c 0
 1460 907 1460 907 1499 870 c 2
 1574 795 l 2
 1611 756 1611 756 1611 704 c 0
EndSplineSet
EndChar

StartChar: share_alt
Encoding: 110 61540 110
Width: 1792
Flags: W
LayerCount: 2
Fore
SplineSet
1792 896 m 0
 1792 870 1792 870 1773 851 c 2
 1261 339 l 2
 1242 320 1242 320 1216 320 c 0
 1190 320 1190 320 1171 339 c 0
 1152 358 1152 358 1152 384 c 2
 1152 640 l 1
 928 640 l 2
 830 640 830 640 752.5 634 c 0
 675 628 675 628 598.5 612.5 c 0
 522 597 522 597 465.5 570 c 0
 409 543 409 543 360 500.5 c 0
 311 458 311 458 280 399.5 c 0
 249 341 249 341 231.5 261 c 0
 214 181 214 181 214 80 c 0
 214 25 214 25 219 -43 c 0
 219 -49 219 -49 221.5 -66.5 c 0
 224 -84 224 -84 224 -93 c 0
 224 -108 224 -108 215.5 -118 c 0
 207 -128 207 -128 192 -128 c 0
 176 -128 176 -128 164 -111 c 0
 157 -102 157 -102 151 -89 c 0
 145 -76 145 -76 137.5 -59 c 0
 130 -42 130 -42 127 -35 c 0
 0 250 0 250 0 416 c 0
 0 615 0 615 53 749 c 0
 215 1152 215 1152 928 1152 c 2
 1152 1152 l 1
 1152 1408 l 2
 1152 1434 1152 1434 1171 1453 c 0
 1190 1472 1190 1472 1216 1472 c 0
 1242 1472 1242 1472 1261 1453 c 2
 1773 941 l 2
 1792 922 1792 922 1792 896 c 0
EndSplineSet
EndChar

StartChar: resize_full
Encoding: 111 61541 111
Width: 1536
LayerCount: 2
Fore
SplineSet
755 480 m 0
 755 467 755 467 745 457 c 2
 413 125 l 1
 557 -19 l 2
 576 -38 576 -38 576 -64 c 0
 576 -90 576 -90 557 -109 c 0
 538 -128 538 -128 512 -128 c 2
 64 -128 l 2
 38 -128 38 -128 19 -109 c 0
 0 -90 0 -90 0 -64 c 2
 0 384 l 2
 0 410 0 410 19 429 c 0
 38 448 38 448 64 448 c 0
 90 448 90 448 109 429 c 2
 253 285 l 1
 585 617 l 2
 595 627 595 627 608 627 c 0
 621 627 621 627 631 617 c 2
 745 503 l 2
 755 493 755 493 755 480 c 0
1536 1344 m 2
 1536 896 l 2
 1536 870 1536 870 1517 851 c 0
 1498 832 1498 832 1472 832 c 0
 1446 832 1446 832 1427 851 c 2
 1283 995 l 1
 951 663 l 2
 941 653 941 653 928 653 c 0
 915 653 915 653 905 663 c 2
 791 777 l 2
 781 787 781 787 781 800 c 0
 781 813 781 813 791 823 c 2
 1123 1155 l 1
 979 1299 l 2
 960 1318 960 1318 960 1344 c 0
 960 1370 960 1370 979 1389 c 0
 998 1408 998 1408 1024 1408 c 2
 1472 1408 l 2
 1498 1408 1498 1408 1517 1389 c 0
 1536 1370 1536 1370 1536 1344 c 2
EndSplineSet
EndChar

StartChar: resize_small
Encoding: 112 61542 112
Width: 1536
LayerCount: 2
Fore
SplineSet
768 576 m 2
 768 128 l 2
 768 102 768 102 749 83 c 0
 730 64 730 64 704 64 c 0
 678 64 678 64 659 83 c 2
 515 227 l 1
 183 -105 l 2
 173 -115 173 -115 160 -115 c 0
 147 -115 147 -115 137 -105 c 2
 23 9 l 2
 13 19 13 19 13 32 c 0
 13 45 13 45 23 55 c 2
 355 387 l 1
 211 531 l 2
 192 550 192 550 192 576 c 0
 192 602 192 602 211 621 c 0
 230 640 230 640 256 640 c 2
 704 640 l 2
 730 640 730 640 749 621 c 0
 768 602 768 602 768 576 c 2
1523 1248 m 0
 1523 1235 1523 1235 1513 1225 c 2
 1181 893 l 1
 1325 749 l 2
 1344 730 1344 730 1344 704 c 0
 1344 678 1344 678 1325 659 c 0
 1306 640 1306 640 1280 640 c 2
 832 640 l 2
 806 640 806 640 787 659 c 0
 768 678 768 678 768 704 c 2
 768 1152 l 2
 768 1178 768 1178 787 1197 c 0
 806 1216 806 1216 832 1216 c 0
 858 1216 858 1216 877 1197 c 2
 1021 1053 l 1
 1353 1385 l 2
 1363 1395 1363 1395 1376 1395 c 0
 1389 1395 1389 1395 1399 1385 c 2
 1513 1271 l 2
 1523 1261 1523 1261 1523 1248 c 0
EndSplineSet
EndChar

StartChar: plus
Encoding: 113 61543 113
Width: 1408
Flags: W
LayerCount: 2
Fore
SplineSet
1408 800 m 2
 1408 608 l 2
 1408 568 1408 568 1380 540 c 0
 1352 512 1352 512 1312 512 c 2
 896 512 l 1
 896 96 l 2
 896 56 896 56 868 28 c 0
 840 0 840 0 800 0 c 2
 608 0 l 2
 568 0 568 0 540 28 c 0
 512 56 512 56 512 96 c 2
 512 512 l 1
 96 512 l 2
 56 512 56 512 28 540 c 0
 0 568 0 568 0 608 c 2
 0 800 l 2
 0 840 0 840 28 868 c 0
 56 896 56 896 96 896 c 2
 512 896 l 1
 512 1312 l 2
 512 1352 512 1352 540 1380 c 0
 568 1408 568 1408 608 1408 c 2
 800 1408 l 2
 840 1408 840 1408 868 1380 c 0
 896 1352 896 1352 896 1312 c 2
 896 896 l 1
 1312 896 l 2
 1352 896 1352 896 1380 868 c 0
 1408 840 1408 840 1408 800 c 2
EndSplineSet
EndChar

StartChar: minus
Encoding: 114 61544 114
Width: 1408
Flags: W
LayerCount: 2
Fore
SplineSet
1408 800 m 2
 1408 608 l 2
 1408 568 1408 568 1380 540 c 0
 1352 512 1352 512 1312 512 c 2
 96 512 l 2
 56 512 56 512 28 540 c 0
 0 568 0 568 0 608 c 2
 0 800 l 2
 0 840 0 840 28 868 c 0
 56 896 56 896 96 896 c 2
 1312 896 l 2
 1352 896 1352 896 1380 868 c 0
 1408 840 1408 840 1408 800 c 2
EndSplineSet
EndChar

StartChar: asterisk
Encoding: 115 61545 115
Width: 1664
Flags: W
LayerCount: 2
Fore
SplineSet
1482 486 m 2
 1528 460 1528 460 1541.5 408.5 c 0
 1555 357 1555 357 1529 311 c 2
 1465 201 l 2
 1439 155 1439 155 1387.5 141.5 c 0
 1336 128 1336 128 1290 154 c 2
 1024 307 l 1
 1024 0 l 2
 1024 -52 1024 -52 986 -90 c 0
 948 -128 948 -128 896 -128 c 2
 768 -128 l 2
 716 -128 716 -128 678 -90 c 0
 640 -52 640 -52 640 0 c 2
 640 307 l 1
 374 154 l 2
 328 128 328 128 276.5 141.5 c 0
 225 155 225 155 199 201 c 2
 135 311 l 2
 109 357 109 357 122.5 408.5 c 0
 136 460 136 460 182 486 c 2
 448 640 l 1
 182 794 l 2
 136 820 136 820 122.5 871.5 c 0
 109 923 109 923 135 969 c 2
 199 1079 l 2
 225 1125 225 1125 276.5 1138.5 c 0
 328 1152 328 1152 374 1126 c 2
 640 973 l 1
 640 1280 l 2
 640 1332 640 1332 678 1370 c 0
 716 1408 716 1408 768 1408 c 2
 896 1408 l 2
 948 1408 948 1408 986 1370 c 0
 1024 1332 1024 1332 1024 1280 c 2
 1024 973 l 1
 1290 1126 l 2
 1336 1152 1336 1152 1387.5 1138.5 c 0
 1439 1125 1439 1125 1465 1079 c 2
 1529 969 l 2
 1555 923 1555 923 1541.5 871.5 c 0
 1528 820 1528 820 1482 794 c 2
 1216 640 l 1
 1482 486 l 2
EndSplineSet
EndChar

StartChar: exclamation_sign
Encoding: 116 61546 116
Width: 1536
LayerCount: 2
Fore
SplineSet
768 1408 m 0
 977 1408 977 1408 1153.5 1305 c 0
 1330 1202 1330 1202 1433 1025.5 c 0
 1536 849 1536 849 1536 640 c 0
 1536 431 1536 431 1433 254.5 c 0
 1330 78 1330 78 1153.5 -25 c 0
 977 -128 977 -128 768 -128 c 0
 559 -128 559 -128 382.5 -25 c 0
 206 78 206 78 103 254.5 c 0
 0 431 0 431 0 640 c 0
 0 849 0 849 103 1025.5 c 0
 206 1202 206 1202 382.5 1305 c 0
 559 1408 559 1408 768 1408 c 0
896 161 m 2
 896 351 l 2
 896 365 896 365 887 374.5 c 0
 878 384 878 384 865 384 c 2
 673 384 l 2
 660 384 660 384 650 374 c 0
 640 364 640 364 640 351 c 2
 640 161 l 2
 640 148 640 148 650 138 c 0
 660 128 660 128 673 128 c 2
 865 128 l 2
 878 128 878 128 887 137.5 c 0
 896 147 896 147 896 161 c 2
894 505 m 2
 912 1126 l 2
 912 1138 912 1138 902 1144 c 0
 892 1152 892 1152 878 1152 c 2
 658 1152 l 2
 644 1152 644 1152 634 1144 c 0
 624 1138 624 1138 624 1126 c 2
 641 505 l 2
 641 495 641 495 651 487.5 c 0
 661 480 661 480 675 480 c 2
 860 480 l 2
 874 480 874 480 883.5 487.5 c 0
 893 495 893 495 894 505 c 2
EndSplineSet
EndChar

StartChar: gift
Encoding: 117 61547 117
Width: 1536
LayerCount: 2
Fore
SplineSet
928 180 m 2
 928 236 l 1
 928 704 l 1
 928 896 l 1
 608 896 l 1
 608 704 l 1
 608 236 l 1
 608 180 l 2
 608 155 608 155 626 141.5 c 0
 644 128 644 128 672 128 c 2
 864 128 l 2
 892 128 892 128 910 141.5 c 0
 928 155 928 155 928 180 c 2
472 1024 m 2
 667 1024 l 1
 541 1185 l 2
 515 1216 515 1216 472 1216 c 0
 432 1216 432 1216 404 1188 c 0
 376 1160 376 1160 376 1120 c 0
 376 1080 376 1080 404 1052 c 0
 432 1024 432 1024 472 1024 c 2
1160 1120 m 0
 1160 1160 1160 1160 1132 1188 c 0
 1104 1216 1104 1216 1064 1216 c 0
 1021 1216 1021 1216 995 1185 c 2
 870 1024 l 1
 1064 1024 l 2
 1104 1024 1104 1024 1132 1052 c 0
 1160 1080 1160 1080 1160 1120 c 0
1536 864 m 2
 1536 544 l 2
 1536 530 1536 530 1527 521 c 0
 1518 512 1518 512 1504 512 c 2
 1408 512 l 1
 1408 96 l 2
 1408 56 1408 56 1380 28 c 0
 1352 0 1352 0 1312 0 c 2
 224 0 l 2
 184 0 184 0 156 28 c 0
 128 56 128 56 128 96 c 2
 128 512 l 1
 32 512 l 2
 18 512 18 512 9 521 c 0
 0 530 0 530 0 544 c 2
 0 864 l 2
 0 878 0 878 9 887 c 0
 18 896 18 896 32 896 c 2
 472 896 l 2
 379 896 379 896 313.5 961.5 c 0
 248 1027 248 1027 248 1120 c 0
 248 1213 248 1213 313.5 1278.5 c 0
 379 1344 379 1344 472 1344 c 0
 579 1344 579 1344 640 1267 c 2
 768 1102 l 1
 896 1267 l 2
 957 1344 957 1344 1064 1344 c 0
 1157 1344 1157 1344 1222.5 1278.5 c 0
 1288 1213 1288 1213 1288 1120 c 0
 1288 1027 1288 1027 1222.5 961.5 c 0
 1157 896 1157 896 1064 896 c 2
 1504 896 l 2
 1518 896 1518 896 1527 887 c 0
 1536 878 1536 878 1536 864 c 2
EndSplineSet
EndChar

StartChar: leaf
Encoding: 118 61548 118
Width: 1792
Flags: W
LayerCount: 2
Fore
SplineSet
1280 832 m 0
 1280 858 1280 858 1261 877 c 0
 1242 896 1242 896 1216 896 c 0
 1044 896 1044 896 898 846.5 c 0
 752 797 752 797 638.5 712.5 c 0
 525 628 525 628 403 493 c 0
 384 472 384 472 384 448 c 0
 384 422 384 422 403 403 c 0
 422 384 422 384 448 384 c 0
 472 384 472 384 493 403 c 0
 520 427 520 427 567 474 c 0
 614 521 614 521 634 540 c 0
 771 664 771 664 902.5 716 c 0
 1034 768 1034 768 1216 768 c 0
 1242 768 1242 768 1261 787 c 0
 1280 806 1280 806 1280 832 c 0
1792 1030 m 0
 1792 935 1792 935 1772 837 c 0
 1726 613 1726 613 1587.5 454 c 0
 1449 295 1449 295 1230 186 c 0
 1016 78 1016 78 792 78 c 0
 644 78 644 78 506 125 c 0
 491 130 491 130 418 167 c 0
 345 204 345 204 322 204 c 0
 306 204 306 204 282.5 172 c 0
 259 140 259 140 237.5 102 c 0
 216 64 216 64 185 32 c 0
 154 0 154 0 125 0 c 0
 82 0 82 0 61.5 17.5 c 0
 41 35 41 35 16 77 c 0
 14 81 14 81 10 88 c 0
 6 95 6 95 4.5 98 c 0
 3 101 3 101 1.5 107.5 c 0
 0 114 0 114 0 121 c 0
 0 156 0 156 31 194.5 c 0
 62 233 62 233 99 260 c 0
 136 287 136 287 167 316 c 0
 198 345 198 345 198 364 c 0
 198 368 198 368 184 402 c 0
 170 436 170 436 168 446 c 0
 159 497 159 497 159 550 c 0
 159 665 159 665 202.5 770 c 0
 246 875 246 875 321.5 954.5 c 0
 397 1034 397 1034 492 1093.5 c 0
 587 1153 587 1153 696 1189 c 0
 751 1207 751 1207 841 1214.5 c 0
 931 1222 931 1222 1020.5 1223.5 c 0
 1110 1225 1110 1225 1199 1229.5 c 0
 1288 1234 1288 1234 1362.5 1253.5 c 0
 1437 1273 1437 1273 1476 1310 c 2
 1505.5 1339.5 l 1
 1535 1367.5 l 1
 1562 1387.5 l 1
 1598.5 1403.5 l 1
 1642 1408 l 1
 1681 1408 1681 1408 1712.5 1362 c 0
 1744 1316 1744 1316 1760 1250 c 0
 1776 1184 1776 1184 1784 1126 c 0
 1792 1068 1792 1068 1792 1030 c 0
EndSplineSet
EndChar

StartChar: fire
Encoding: 119 61549 119
Width: 1408
Flags: W
LayerCount: 2
Fore
SplineSet
1408 -160 m 2
 1408 -224 l 2
 1408 -237 1408 -237 1398.5 -246.5 c 0
 1389 -256 1389 -256 1376 -256 c 2
 32 -256 l 2
 19 -256 19 -256 9.5 -246.5 c 0
 0 -237 0 -237 0 -224 c 2
 0 -160 l 2
 0 -147 0 -147 9.5 -137.5 c 0
 19 -128 19 -128 32 -128 c 2
 1376 -128 l 2
 1389 -128 1389 -128 1398.5 -137.5 c 0
 1408 -147 1408 -147 1408 -160 c 2
1152 896 m 0
 1152 818 1152 818 1127.5 752 c 0
 1103 686 1103 686 1063.5 639.5 c 0
 1024 593 1024 593 976 551.5 c 0
 928 510 928 510 880 474 c 0
 832 438 832 438 792.5 402 c 0
 753 366 753 366 728.5 320.5 c 0
 704 275 704 275 704 224 c 0
 704 128 704 128 771 0 c 1
 767 1 l 1
 768 0 l 1
 678 41 678 41 608 83 c 0
 538 125 538 125 469.5 183 c 0
 401 241 401 241 356 305.5 c 0
 311 370 311 370 283.5 456 c 0
 256 542 256 542 256 640 c 0
 256 718 256 718 280.5 784 c 0
 305 850 305 850 344.5 896.5 c 0
 384 943 384 943 432 984.5 c 0
 480 1026 480 1026 528 1062 c 0
 576 1098 576 1098 615.5 1134 c 0
 655 1170 655 1170 679.5 1215.5 c 0
 704 1261 704 1261 704 1312 c 0
 704 1406 704 1406 638 1536 c 1
 641 1535 l 1
 640 1536 l 1
 730 1495 730 1495 800 1453 c 0
 870 1411 870 1411 938.5 1353 c 0
 1007 1295 1007 1295 1052 1230.5 c 0
 1097 1166 1097 1166 1124.5 1080 c 0
 1152 994 1152 994 1152 896 c 0
EndSplineSet
EndChar

StartChar: eye_open
Encoding: 120 61550 120
Width: 1792
Flags: W
LayerCount: 2
Fore
SplineSet
1664 576 m 1
 1512 812 1512 812 1283 929 c 1
 1344 825 1344 825 1344 704 c 0
 1344 519 1344 519 1212.5 387.5 c 0
 1081 256 1081 256 896 256 c 0
 711 256 711 256 579.5 387.5 c 0
 448 519 448 519 448 704 c 0
 448 825 448 825 509 929 c 1
 280 812 280 812 128 576 c 1
 261 371 261 371 461.5 249.5 c 0
 662 128 662 128 896 128 c 0
 1130 128 1130 128 1330.5 249.5 c 0
 1531 371 1531 371 1664 576 c 1
944 960 m 0
 944 980 944 980 930 994 c 0
 916 1008 916 1008 896 1008 c 0
 771 1008 771 1008 681.5 918.5 c 0
 592 829 592 829 592 704 c 0
 592 684 592 684 606 670 c 0
 620 656 620 656 640 656 c 0
 660 656 660 656 674 670 c 0
 688 684 688 684 688 704 c 0
 688 790 688 790 749 851 c 0
 810 912 810 912 896 912 c 0
 916 912 916 912 930 926 c 0
 944 940 944 940 944 960 c 0
1792 576 m 0
 1792 542 1792 542 1772 507 c 0
 1632 277 1632 277 1395.5 138.5 c 0
 1159 0 1159 0 896 0 c 0
 633 0 633 0 396.5 139 c 0
 160 278 160 278 20 507 c 0
 0 542 0 542 0 576 c 0
 0 610 0 610 20 645 c 0
 160 874 160 874 396.5 1013 c 0
 633 1152 633 1152 896 1152 c 0
 1159 1152 1159 1152 1395.5 1013 c 0
 1632 874 1632 874 1772 645 c 0
 1792 610 1792 610 1792 576 c 0
EndSplineSet
EndChar

StartChar: eye_close
Encoding: 121 61552 121
Width: 1792
Flags: W
LayerCount: 2
Fore
SplineSet
555 201 m 1
 633 342 l 1
 546 405 546 405 497 501 c 0
 448 597 448 597 448 704 c 0
 448 825 448 825 509 929 c 1
 280 812 280 812 128 576 c 1
 295 318 295 318 555 201 c 1
944 960 m 0
 944 980 944 980 930 994 c 0
 916 1008 916 1008 896 1008 c 0
 771 1008 771 1008 681.5 918.5 c 0
 592 829 592 829 592 704 c 0
 592 684 592 684 606 670 c 0
 620 656 620 656 640 656 c 0
 660 656 660 656 674 670 c 0
 688 684 688 684 688 704 c 0
 688 790 688 790 749 851 c 0
 810 912 810 912 896 912 c 0
 916 912 916 912 930 926 c 0
 944 940 944 940 944 960 c 0
1307 1151 m 0
 1307 1144 1307 1144 1306 1142 c 0
 1200 953 1200 953 990 575 c 0
 780 197 780 197 675 9 c 2
 626 -80 l 2
 616 -96 616 -96 598 -96 c 0
 586 -96 586 -96 464 -26 c 0
 448 -16 448 -16 448 2 c 0
 448 14 448 14 492 89 c 1
 349 154 349 154 228.5 262 c 0
 108 370 108 370 20 507 c 0
 0 538 0 538 0 576 c 0
 0 614 0 614 20 645 c 0
 173 880 173 880 400 1016 c 0
 627 1152 627 1152 896 1152 c 0
 985 1152 985 1152 1076 1135 c 1
 1130 1232 l 2
 1140 1248 1140 1248 1158 1248 c 0
 1163 1248 1163 1248 1176 1242 c 0
 1189 1236 1189 1236 1207 1226.5 c 0
 1225 1217 1225 1217 1240 1208 c 0
 1255 1199 1255 1199 1271.5 1189.5 c 0
 1288 1180 1288 1180 1291 1178 c 0
 1307 1168 1307 1168 1307 1151 c 0
1344 704 m 0
 1344 565 1344 565 1265 450.5 c 0
 1186 336 1186 336 1056 286 c 1
 1336 788 l 1
 1344 743 1344 743 1344 704 c 0
1792 576 m 0
 1792 541 1792 541 1772 507 c 0
 1733 443 1733 443 1663 362 c 0
 1513 190 1513 190 1315.5 95 c 0
 1118 0 1118 0 896 0 c 1
 970 132 l 1
 1182 150 1182 150 1362.5 269 c 0
 1543 388 1543 388 1664 576 c 1
 1549 755 1549 755 1382 870 c 1
 1445 982 l 1
 1540 918 1540 918 1627.5 829 c 0
 1715 740 1715 740 1772 645 c 0
 1792 611 1792 611 1792 576 c 0
EndSplineSet
EndChar

StartChar: warning_sign
Encoding: 122 61553 122
Width: 1792
Flags: W
LayerCount: 2
Fore
SplineSet
1024 161 m 2
 1024 351 l 2
 1024 365 1024 365 1014.5 374.5 c 0
 1005 384 1005 384 992 384 c 2
 800 384 l 2
 787 384 787 384 777.5 374.5 c 0
 768 365 768 365 768 351 c 2
 768 161 l 2
 768 147 768 147 777.5 137.5 c 0
 787 128 787 128 800 128 c 2
 992 128 l 2
 1005 128 1005 128 1014.5 137.5 c 0
 1024 147 1024 147 1024 161 c 2
1022 535 m 2
 1040 994 l 2
 1040 1006 1040 1006 1030 1013 c 0
 1017 1024 1017 1024 1006 1024 c 2
 786 1024 l 2
 775 1024 775 1024 762 1013 c 0
 752 1006 752 1006 752 992 c 2
 769 535 l 2
 769 525 769 525 779 518.5 c 0
 789 512 789 512 803 512 c 2
 988 512 l 2
 1002 512 1002 512 1011.5 518.5 c 0
 1021 525 1021 525 1022 535 c 2
1008 1469 m 2
 1776 61 l 2
 1811 -2 1811 -2 1774 -65 c 0
 1757 -94 1757 -94 1727.5 -111 c 0
 1698 -128 1698 -128 1664 -128 c 2
 128 -128 l 2
 94 -128 94 -128 64.5 -111 c 0
 35 -94 35 -94 18 -65 c 0
 -19 -2 -19 -2 16 61 c 2
 784 1469 l 2
 801 1500 801 1500 831 1518 c 0
 861 1536 861 1536 896 1536 c 0
 931 1536 931 1536 961 1518 c 0
 991 1500 991 1500 1008 1469 c 2
EndSplineSet
EndChar

StartChar: plane
Encoding: 123 61554 123
Width: 1408
Flags: W
LayerCount: 2
Fore
SplineSet
1376 1376 m 1
 1420 1324 1420 1324 1388 1228 c 0
 1356 1132 1356 1132 1280 1056 c 2
 1119 895 l 1
 1279 199 l 2
 1284 180 1284 180 1267 166 c 2
 1139 70 l 2
 1132 64 1132 64 1120 64 c 0
 1116 64 1116 64 1113 65 c 0
 1098 68 1098 68 1092 81 c 2
 813 589 l 1
 554 330 l 1
 607 136 l 2
 612 119 612 119 599 105 c 2
 503 9 l 2
 494 0 494 0 480 0 c 2
 478 0 l 2
 463 2 463 2 454 13 c 2
 265 265 l 1
 13 454 l 2
 2 461 2 461 0 477 c 0
 -1 490 -1 490 9 502 c 2
 105 599 l 2
 114 608 114 608 128 608 c 0
 134 608 134 608 136 607 c 2
 330 554 l 1
 589 813 l 1
 81 1092 l 2
 67 1100 67 1100 64 1116 c 0
 62 1132 62 1132 73 1143 c 2
 201 1271 l 2
 215 1284 215 1284 231 1279 c 2
 896 1120 l 1
 1056 1280 l 2
 1132 1356 1132 1356 1228 1388 c 0
 1324 1420 1324 1420 1376 1376 c 1
EndSplineSet
EndChar

StartChar: calendar
Encoding: 124 61555 124
Width: 1664
Flags: W
LayerCount: 2
Fore
SplineSet
128 -128 m 1
 416 -128 l 1
 416 160 l 1
 128 160 l 1
 128 -128 l 1
480 -128 m 1
 800 -128 l 1
 800 160 l 1
 480 160 l 1
 480 -128 l 1
128 224 m 1
 416 224 l 1
 416 544 l 1
 128 544 l 1
 128 224 l 1
480 224 m 1
 800 224 l 1
 800 544 l 1
 480 544 l 1
 480 224 l 1
128 608 m 1
 416 608 l 1
 416 896 l 1
 128 896 l 1
 128 608 l 1
864 -128 m 1
 1184 -128 l 1
 1184 160 l 1
 864 160 l 1
 864 -128 l 1
480 608 m 1
 800 608 l 1
 800 896 l 1
 480 896 l 1
 480 608 l 1
1248 -128 m 1
 1536 -128 l 1
 1536 160 l 1
 1248 160 l 1
 1248 -128 l 1
864 224 m 1
 1184 224 l 1
 1184 544 l 1
 864 544 l 1
 864 224 l 1
512 1088 m 2
 512 1376 l 2
 512 1389 512 1389 502.5 1398.5 c 0
 493 1408 493 1408 480 1408 c 2
 416 1408 l 2
 403 1408 403 1408 393.5 1398.5 c 0
 384 1389 384 1389 384 1376 c 2
 384 1088 l 2
 384 1075 384 1075 393.5 1065.5 c 0
 403 1056 403 1056 416 1056 c 2
 480 1056 l 2
 493 1056 493 1056 502.5 1065.5 c 0
 512 1075 512 1075 512 1088 c 2
1248 224 m 1
 1536 224 l 1
 1536 544 l 1
 1248 544 l 1
 1248 224 l 1
864 608 m 1
 1184 608 l 1
 1184 896 l 1
 864 896 l 1
 864 608 l 1
1248 608 m 1
 1536 608 l 1
 1536 896 l 1
 1248 896 l 1
 1248 608 l 1
1280 1088 m 2
 1280 1376 l 2
 1280 1389 1280 1389 1270.5 1398.5 c 0
 1261 1408 1261 1408 1248 1408 c 2
 1184 1408 l 2
 1171 1408 1171 1408 1161.5 1398.5 c 0
 1152 1389 1152 1389 1152 1376 c 2
 1152 1088 l 2
 1152 1075 1152 1075 1161.5 1065.5 c 0
 1171 1056 1171 1056 1184 1056 c 2
 1248 1056 l 2
 1261 1056 1261 1056 1270.5 1065.5 c 0
 1280 1075 1280 1075 1280 1088 c 2
1664 1152 m 2
 1664 -128 l 2
 1664 -180 1664 -180 1626 -218 c 0
 1588 -256 1588 -256 1536 -256 c 2
 128 -256 l 2
 76 -256 76 -256 38 -218 c 0
 0 -180 0 -180 0 -128 c 2
 0 1152 l 2
 0 1204 0 1204 38 1242 c 0
 76 1280 76 1280 128 1280 c 2
 256 1280 l 1
 256 1376 l 2
 256 1442 256 1442 303 1489 c 0
 350 1536 350 1536 416 1536 c 2
 480 1536 l 2
 546 1536 546 1536 593 1489 c 0
 640 1442 640 1442 640 1376 c 2
 640 1280 l 1
 1024 1280 l 1
 1024 1376 l 2
 1024 1442 1024 1442 1071 1489 c 0
 1118 1536 1118 1536 1184 1536 c 2
 1248 1536 l 2
 1314 1536 1314 1536 1361 1489 c 0
 1408 1442 1408 1442 1408 1376 c 2
 1408 1280 l 1
 1536 1280 l 2
 1588 1280 1588 1280 1626 1242 c 0
 1664 1204 1664 1204 1664 1152 c 2
EndSplineSet
EndChar

StartChar: random
Encoding: 125 61556 125
Width: 1792
Flags: W
LayerCount: 2
Fore
SplineSet
666 1055 m 1
 606 963 606 963 529 782 c 1
 507 827 507 827 492 854.5 c 0
 477 882 477 882 451.5 918 c 0
 426 954 426 954 400.5 974.5 c 0
 375 995 375 995 337.5 1009.5 c 0
 300 1024 300 1024 256 1024 c 2
 32 1024 l 2
 18 1024 18 1024 9 1033 c 0
 0 1042 0 1042 0 1056 c 2
 0 1248 l 2
 0 1262 0 1262 9 1271 c 0
 18 1280 18 1280 32 1280 c 2
 256 1280 l 2
 506 1280 506 1280 666 1055 c 1
1792 256 m 0
 1792 242 1792 242 1783 233 c 2
 1463 -87 l 2
 1454 -96 1454 -96 1440 -96 c 0
 1427 -96 1427 -96 1417.5 -86.5 c 0
 1408 -77 1408 -77 1408 -64 c 2
 1408 128 l 1
 1376 128 1376 128 1323 127.5 c 0
 1270 127 1270 127 1242 126.5 c 0
 1214 126 1214 126 1169 127.5 c 0
 1124 129 1124 129 1098 132.5 c 0
 1072 136 1072 136 1034 143 c 0
 996 150 996 150 971 161.5 c 0
 946 173 946 173 913 190 c 0
 880 207 880 207 854 230 c 0
 828 253 828 253 799 283.5 c 0
 770 314 770 314 743 353 c 1
 802 446 802 446 879 626 c 1
 901 581 901 581 916 553.5 c 0
 931 526 931 526 956.5 490 c 0
 982 454 982 454 1007.5 433.5 c 0
 1033 413 1033 413 1070.5 398.5 c 0
 1108 384 1108 384 1152 384 c 2
 1408 384 l 1
 1408 576 l 2
 1408 590 1408 590 1417 599 c 0
 1426 608 1426 608 1440 608 c 0
 1452 608 1452 608 1464 598 c 2
 1783 279 l 2
 1792 270 1792 270 1792 256 c 0
1792 1152 m 0
 1792 1138 1792 1138 1783 1129 c 2
 1463 809 l 2
 1454 800 1454 800 1440 800 c 0
 1427 800 1427 800 1417.5 809.5 c 0
 1408 819 1408 819 1408 832 c 2
 1408 1024 l 1
 1152 1024 l 2
 1104 1024 1104 1024 1065 1009 c 0
 1026 994 1026 994 996 964 c 0
 966 934 966 934 945 902.5 c 0
 924 871 924 871 900 825 c 0
 868 763 868 763 822 654 c 0
 793 588 793 588 772.5 543 c 0
 752 498 752 498 718.5 438 c 0
 685 378 685 378 654.5 338 c 0
 624 298 624 298 580.5 255 c 0
 537 212 537 212 490.5 186.5 c 0
 444 161 444 161 384 144.5 c 0
 324 128 324 128 256 128 c 2
 32 128 l 2
 18 128 18 128 9 137 c 0
 0 146 0 146 0 160 c 2
 0 352 l 2
 0 366 0 366 9 375 c 0
 18 384 18 384 32 384 c 2
 256 384 l 2
 304 384 304 384 343 399 c 0
 382 414 382 414 412 444 c 0
 442 474 442 474 463 505.5 c 0
 484 537 484 537 508 583 c 0
 540 645 540 645 586 754 c 0
 615 820 615 820 635.5 865 c 0
 656 910 656 910 689.5 970 c 0
 723 1030 723 1030 753.5 1070 c 0
 784 1110 784 1110 827.5 1153 c 0
 871 1196 871 1196 917.5 1221.5 c 0
 964 1247 964 1247 1024 1263.5 c 0
 1084 1280 1084 1280 1152 1280 c 2
 1408 1280 l 1
 1408 1472 l 2
 1408 1486 1408 1486 1417 1495 c 0
 1426 1504 1426 1504 1440 1504 c 0
 1452 1504 1452 1504 1464 1494 c 2
 1783 1175 l 2
 1792 1166 1792 1166 1792 1152 c 0
EndSplineSet
EndChar

StartChar: comment
Encoding: 126 61557 126
Width: 1792
Flags: W
LayerCount: 2
Fore
SplineSet
1792 640 m 0
 1792 466 1792 466 1672 318.5 c 0
 1552 171 1552 171 1346 85.5 c 0
 1140 0 1140 0 896 0 c 0
 826 0 826 0 751 8 c 1
 553 -167 553 -167 291 -234 c 0
 242 -248 242 -248 177 -256 c 0
 160 -258 160 -258 146.5 -247 c 0
 133 -236 133 -236 129 -218 c 1
 129 -217 l 2
 126 -213 126 -213 128.5 -205 c 0
 131 -197 131 -197 130.5 -195 c 0
 130 -193 130 -193 135 -185.5 c 2
 141 -176.5 l 1
 148 -168 l 1
 156 -159 l 2
 163 -151 163 -151 187 -124.5 c 0
 211 -98 211 -98 221.5 -86.5 c 0
 232 -75 232 -75 252.5 -47 c 0
 273 -19 273 -19 285 4 c 0
 297 27 297 27 312 63 c 0
 327 99 327 99 338 139 c 1
 181 228 181 228 90.5 359 c 0
 0 490 0 490 0 640 c 0
 0 770 0 770 71 888.5 c 0
 142 1007 142 1007 262 1093 c 0
 382 1179 382 1179 548 1229.5 c 0
 714 1280 714 1280 896 1280 c 0
 1140 1280 1140 1280 1346 1194.5 c 0
 1552 1109 1552 1109 1672 961.5 c 0
 1792 814 1792 814 1792 640 c 0
EndSplineSet
EndChar

StartChar: magnet
Encoding: 127 61558 127
Width: 1536
LayerCount: 2
Fore
SplineSet
1536 704 m 2
 1536 576 l 2
 1536 375 1536 375 1437.5 214 c 0
 1339 53 1339 53 1163.5 -37.5 c 0
 988 -128 988 -128 768 -128 c 0
 548 -128 548 -128 372.5 -37.5 c 0
 197 53 197 53 98.5 214 c 0
 0 375 0 375 0 576 c 2
 0 704 l 2
 0 730 0 730 19 749 c 0
 38 768 38 768 64 768 c 2
 448 768 l 2
 474 768 474 768 493 749 c 0
 512 730 512 730 512 704 c 2
 512 576 l 2
 512 524 512 524 535.5 486 c 0
 559 448 559 448 589 429 c 0
 619 410 619 410 660 399 c 0
 701 388 701 388 724 386 c 0
 747 384 747 384 768 384 c 0
 789 384 789 384 812 386 c 0
 835 388 835 388 876 399 c 0
 917 410 917 410 947 429 c 0
 977 448 977 448 1000.5 486 c 0
 1024 524 1024 524 1024 576 c 2
 1024 704 l 2
 1024 730 1024 730 1043 749 c 0
 1062 768 1062 768 1088 768 c 2
 1472 768 l 2
 1498 768 1498 768 1517 749 c 0
 1536 730 1536 730 1536 704 c 2
512 1344 m 2
 512 960 l 2
 512 934 512 934 493 915 c 0
 474 896 474 896 448 896 c 2
 64 896 l 2
 38 896 38 896 19 915 c 0
 0 934 0 934 0 960 c 2
 0 1344 l 2
 0 1370 0 1370 19 1389 c 0
 38 1408 38 1408 64 1408 c 2
 448 1408 l 2
 474 1408 474 1408 493 1389 c 0
 512 1370 512 1370 512 1344 c 2
1536 1344 m 2
 1536 960 l 2
 1536 934 1536 934 1517 915 c 0
 1498 896 1498 896 1472 896 c 2
 1088 896 l 2
 1062 896 1062 896 1043 915 c 0
 1024 934 1024 934 1024 960 c 2
 1024 1344 l 2
 1024 1370 1024 1370 1043 1389 c 0
 1062 1408 1062 1408 1088 1408 c 2
 1472 1408 l 2
 1498 1408 1498 1408 1517 1389 c 0
 1536 1370 1536 1370 1536 1344 c 2
EndSplineSet
EndChar

StartChar: chevron_up
Encoding: 128 61559 128
Width: 1792
Flags: W
LayerCount: 2
Fore
SplineSet
1683 205 m 2
 1517 40 l 2
 1498 21 1498 21 1472 21 c 0
 1446 21 1446 21 1427 40 c 2
 896 571 l 1
 365 40 l 2
 346 21 346 21 320 21 c 0
 294 21 294 21 275 40 c 2
 109 205 l 2
 90 224 90 224 90 250.5 c 0
 90 277 90 277 109 296 c 2
 851 1037 l 2
 870 1056 870 1056 896 1056 c 0
 922 1056 922 1056 941 1037 c 2
 1683 296 l 2
 1702 277 1702 277 1702 250.5 c 0
 1702 224 1702 224 1683 205 c 2
EndSplineSet
EndChar

StartChar: chevron_down
Encoding: 129 61560 129
Width: 1792
Flags: W
LayerCount: 2
Fore
SplineSet
1683 728 m 2
 941 -13 l 2
 922 -32 922 -32 896 -32 c 0
 870 -32 870 -32 851 -13 c 2
 109 728 l 2
 90 747 90 747 90 773.5 c 0
 90 800 90 800 109 819 c 2
 275 984 l 2
 294 1003 294 1003 320 1003 c 0
 346 1003 346 1003 365 984 c 2
 896 453 l 1
 1427 984 l 2
 1446 1003 1446 1003 1472 1003 c 0
 1498 1003 1498 1003 1517 984 c 2
 1683 819 l 2
 1702 800 1702 800 1702 773.5 c 0
 1702 747 1702 747 1683 728 c 2
EndSplineSet
EndChar

StartChar: retweet
Encoding: 130 61561 130
Width: 1920
Flags: W
LayerCount: 2
Fore
SplineSet
1280 32 m 0
 1280 19 1280 19 1270.5 9.5 c 0
 1261 0 1261 0 1248 0 c 2
 288 0 l 2
 280 0 280 0 274.5 2 c 0
 269 4 269 4 265.5 9 c 0
 262 14 262 14 260 17 c 0
 258 20 258 20 257 28.5 c 0
 256 37 256 37 256 40 c 2
 256 53 l 1
 256 64 l 1
 256 224 l 1
 256 640 l 1
 64 640 l 2
 38 640 38 640 19 659 c 0
 0 678 0 678 0 704 c 0
 0 728 0 728 15 745 c 2
 335 1129 l 2
 354 1151 354 1151 384 1151 c 0
 414 1151 414 1151 433 1129 c 2
 753 745 l 2
 768 728 768 728 768 704 c 0
 768 678 768 678 749 659 c 0
 730 640 730 640 704 640 c 2
 512 640 l 1
 512 256 l 1
 1088 256 l 2
 1104 256 1104 256 1113 245 c 2
 1273 53 l 2
 1280 43 1280 43 1280 32 c 0
1920 448 m 0
 1920 424 1920 424 1905 407 c 2
 1585 23 l 2
 1565 0 1565 0 1536 0 c 0
 1507 0 1507 0 1487 23 c 2
 1167 407 l 2
 1152 424 1152 424 1152 448 c 0
 1152 474 1152 474 1171 493 c 0
 1190 512 1190 512 1216 512 c 2
 1408 512 l 1
 1408 896 l 1
 832 896 l 2
 816 896 816 896 807 908 c 2
 647 1100 l 2
 640 1109 640 1109 640 1120 c 0
 640 1133 640 1133 649.5 1142.5 c 0
 659 1152 659 1152 672 1152 c 2
 1632 1152 l 2
 1640 1152 1640 1152 1645.5 1150 c 0
 1651 1148 1651 1148 1654.5 1143 c 0
 1658 1138 1658 1138 1660 1135 c 0
 1662 1132 1662 1132 1663 1123.5 c 0
 1664 1115 1664 1115 1664 1112 c 2
 1664 1099 l 1
 1664 1088 l 1
 1664 928 l 1
 1664 512 l 1
 1856 512 l 2
 1882 512 1882 512 1901 493 c 0
 1920 474 1920 474 1920 448 c 0
EndSplineSet
EndChar

StartChar: shopping_cart
Encoding: 131 61562 131
Width: 1664
Flags: W
LayerCount: 2
Fore
SplineSet
640 0 m 0
 640 -52 640 -52 602 -90 c 0
 564 -128 564 -128 512 -128 c 0
 460 -128 460 -128 422 -90 c 0
 384 -52 384 -52 384 0 c 0
 384 52 384 52 422 90 c 0
 460 128 460 128 512 128 c 0
 564 128 564 128 602 90 c 0
 640 52 640 52 640 0 c 0
1536 0 m 0
 1536 -52 1536 -52 1498 -90 c 0
 1460 -128 1460 -128 1408 -128 c 0
 1356 -128 1356 -128 1318 -90 c 0
 1280 -52 1280 -52 1280 0 c 0
 1280 52 1280 52 1318 90 c 0
 1356 128 1356 128 1408 128 c 0
 1460 128 1460 128 1498 90 c 0
 1536 52 1536 52 1536 0 c 0
1664 1088 m 2
 1664 576 l 2
 1664 552 1664 552 1647.5 533.5 c 0
 1631 515 1631 515 1607 512 c 2
 563 390 l 1
 576 330 576 330 576 320 c 0
 576 304 576 304 552 256 c 1
 1472 256 l 2
 1498 256 1498 256 1517 237 c 0
 1536 218 1536 218 1536 192 c 0
 1536 166 1536 166 1517 147 c 0
 1498 128 1498 128 1472 128 c 2
 448 128 l 2
 422 128 422 128 403 147 c 0
 384 166 384 166 384 192 c 0
 384 203 384 203 392 223.5 c 0
 400 244 400 244 408 259.5 c 0
 416 275 416 275 429.5 299.5 c 0
 443 324 443 324 445 329 c 2
 268 1152 l 1
 64 1152 l 2
 38 1152 38 1152 19 1171 c 0
 0 1190 0 1190 0 1216 c 0
 0 1242 0 1242 19 1261 c 0
 38 1280 38 1280 64 1280 c 2
 320 1280 l 2
 336 1280 336 1280 348.5 1273.5 c 0
 361 1267 361 1267 368 1258 c 0
 375 1249 375 1249 381 1233.5 c 0
 387 1218 387 1218 389 1207.5 c 0
 391 1197 391 1197 394.5 1178 c 0
 398 1159 398 1159 399 1152 c 1
 1600 1152 l 2
 1626 1152 1626 1152 1645 1133 c 0
 1664 1114 1664 1114 1664 1088 c 2
EndSplineSet
EndChar

StartChar: folder_close
Encoding: 132 61563 132
Width: 1664
Flags: W
LayerCount: 2
Fore
SplineSet
1664 928 m 2
 1664 224 l 2
 1664 132 1664 132 1598 66 c 0
 1532 0 1532 0 1440 0 c 2
 224 0 l 2
 132 0 132 0 66 66 c 0
 0 132 0 132 0 224 c 2
 0 1184 l 2
 0 1276 0 1276 66 1342 c 0
 132 1408 132 1408 224 1408 c 2
 544 1408 l 2
 636 1408 636 1408 702 1342 c 0
 768 1276 768 1276 768 1184 c 2
 768 1152 l 1
 1440 1152 l 2
 1532 1152 1532 1152 1598 1086 c 0
 1664 1020 1664 1020 1664 928 c 2
EndSplineSet
EndChar

StartChar: folder_open
Encoding: 133 61564 133
Width: 1920
Flags: W
LayerCount: 2
Fore
SplineSet
1879 584 m 0
 1879 553 1879 553 1848 518 c 2
 1512 122 l 2
 1469 71 1469 71 1391.5 35.5 c 0
 1314 0 1314 0 1248 0 c 2
 160 0 l 2
 126 0 126 0 99.5 13 c 0
 73 26 73 26 73 56 c 0
 73 87 73 87 104 122 c 2
 440 518 l 2
 483 569 483 569 560.5 604.5 c 0
 638 640 638 640 704 640 c 2
 1792 640 l 2
 1826 640 1826 640 1852.5 627 c 0
 1879 614 1879 614 1879 584 c 0
1536 928 m 2
 1536 768 l 1
 704 768 l 2
 610 768 610 768 507 720.5 c 0
 404 673 404 673 343 601 c 2
 6 205 l 1
 1 199 l 2
 1 203 1 203 0.5 211.5 c 0
 0 220 0 220 0 224 c 2
 0 1184 l 2
 0 1276 0 1276 66 1342 c 0
 132 1408 132 1408 224 1408 c 2
 544 1408 l 2
 636 1408 636 1408 702 1342 c 0
 768 1276 768 1276 768 1184 c 2
 768 1152 l 1
 1312 1152 l 2
 1404 1152 1404 1152 1470 1086 c 0
 1536 1020 1536 1020 1536 928 c 2
EndSplineSet
EndChar

StartChar: resize_vertical
Encoding: 134 61565 134
Width: 768
Flags: W
LayerCount: 2
Fore
SplineSet
704 1216 m 0
 704 1190 704 1190 685 1171 c 0
 666 1152 666 1152 640 1152 c 2
 512 1152 l 1
 512 128 l 1
 640 128 l 2
 666 128 666 128 685 109 c 0
 704 90 704 90 704 64 c 0
 704 38 704 38 685 19 c 2
 429 -237 l 2
 410 -256 410 -256 384 -256 c 0
 358 -256 358 -256 339 -237 c 2
 83 19 l 2
 64 38 64 38 64 64 c 0
 64 90 64 90 83 109 c 0
 102 128 102 128 128 128 c 2
 256 128 l 1
 256 1152 l 1
 128 1152 l 2
 102 1152 102 1152 83 1171 c 0
 64 1190 64 1190 64 1216 c 0
 64 1242 64 1242 83 1261 c 2
 339 1517 l 2
 358 1536 358 1536 384 1536 c 0
 410 1536 410 1536 429 1517 c 2
 685 1261 l 2
 704 1242 704 1242 704 1216 c 0
EndSplineSet
EndChar

StartChar: resize_horizontal
Encoding: 135 61566 135
Width: 1792
Flags: W
LayerCount: 2
Fore
SplineSet
1792 640 m 0
 1792 614 1792 614 1773 595 c 2
 1517 339 l 2
 1498 320 1498 320 1472 320 c 0
 1446 320 1446 320 1427 339 c 0
 1408 358 1408 358 1408 384 c 2
 1408 512 l 1
 384 512 l 1
 384 384 l 2
 384 358 384 358 365 339 c 0
 346 320 346 320 320 320 c 0
 294 320 294 320 275 339 c 2
 19 595 l 2
 0 614 0 614 0 640 c 0
 0 666 0 666 19 685 c 2
 275 941 l 2
 294 960 294 960 320 960 c 0
 346 960 346 960 365 941 c 0
 384 922 384 922 384 896 c 2
 384 768 l 1
 1408 768 l 1
 1408 896 l 2
 1408 922 1408 922 1427 941 c 0
 1446 960 1446 960 1472 960 c 0
 1498 960 1498 960 1517 941 c 2
 1773 685 l 2
 1792 666 1792 666 1792 640 c 0
EndSplineSet
EndChar

StartChar: bar_chart
Encoding: 136 61568 136
Width: 2048
Flags: W
LayerCount: 2
Fore
SplineSet
640 640 m 1
 640 128 l 1
 384 128 l 1
 384 640 l 1
 640 640 l 1
1024 1152 m 1
 1024 128 l 1
 768 128 l 1
 768 1152 l 1
 1024 1152 l 1
2048 0 m 1
 2048 -128 l 1
 0 -128 l 1
 0 1408 l 1
 128 1408 l 1
 128 0 l 1
 2048 0 l 1
1408 896 m 1
 1408 128 l 1
 1152 128 l 1
 1152 896 l 1
 1408 896 l 1
1792 1280 m 1
 1792 128 l 1
 1536 128 l 1
 1536 1280 l 1
 1792 1280 l 1
EndSplineSet
EndChar

StartChar: twitter_sign
Encoding: 137 61569 137
Width: 1536
LayerCount: 2
Fore
SplineSet
1280 926 m 1
 1224 901 1224 901 1159 892 c 1
 1227 932 1227 932 1252 1009 c 1
 1187 971 1187 971 1118 958 c 1
 1057 1024 1057 1024 965 1024 c 0
 878 1024 878 1024 816.5 962.5 c 0
 755 901 755 901 755 814 c 0
 755 785 755 785 760 766 c 1
 631 773 631 773 518 831 c 0
 405 889 405 889 326 986 c 1
 297 936 297 936 297 880 c 0
 297 766 297 766 388 705 c 1
 341 706 341 706 288 731 c 1
 288 729 l 2
 288 654 288 654 338 595.5 c 0
 388 537 388 537 461 523 c 1
 432 515 432 515 410 515 c 0
 397 515 397 515 371 519 c 1
 392 456 392 456 445.5 415 c 0
 499 374 499 374 567 373 c 1
 451 283 451 283 306 283 c 0
 280 283 280 283 256 286 c 1
 404 192 404 192 578 192 c 0
 690 192 690 192 788 227.5 c 0
 886 263 886 263 956 322.5 c 0
 1026 382 1026 382 1076.5 459.5 c 0
 1127 537 1127 537 1151.5 621.5 c 0
 1176 706 1176 706 1176 790 c 0
 1176 808 1176 808 1175 817 c 1
 1238 862 1238 862 1280 926 c 1
1536 1120 m 2
 1536 160 l 2
 1536 41 1536 41 1451.5 -43.5 c 0
 1367 -128 1367 -128 1248 -128 c 2
 288 -128 l 2
 169 -128 169 -128 84.5 -43.5 c 0
 0 41 0 41 0 160 c 2
 0 1120 l 2
 0 1239 0 1239 84.5 1323.5 c 0
 169 1408 169 1408 288 1408 c 2
 1248 1408 l 2
 1367 1408 1367 1408 1451.5 1323.5 c 0
 1536 1239 1536 1239 1536 1120 c 2
EndSplineSet
EndChar

StartChar: facebook_sign
Encoding: 138 61570 138
Width: 1536
LayerCount: 2
Fore
SplineSet
1248 1408 m 2
 1367 1408 1367 1408 1451.5 1323.5 c 0
 1536 1239 1536 1239 1536 1120 c 2
 1536 160 l 2
 1536 41 1536 41 1451.5 -43.5 c 0
 1367 -128 1367 -128 1248 -128 c 2
 1060 -128 l 1
 1060 467 l 1
 1259 467 l 1
 1289 699 l 1
 1060 699 l 1
 1060 847 l 2
 1060 903 1060 903 1083.5 931 c 0
 1107 959 1107 959 1175 959 c 2
 1297 960 l 1
 1297 1167 l 1
 1234 1176 1234 1176 1119 1176 c 0
 983 1176 983 1176 901.5 1096 c 0
 820 1016 820 1016 820 870 c 2
 820 699 l 1
 620 699 l 1
 620 467 l 1
 820 467 l 1
 820 -128 l 1
 288 -128 l 2
 169 -128 169 -128 84.5 -43.5 c 0
 0 41 0 41 0 160 c 2
 0 1120 l 2
 0 1239 0 1239 84.5 1323.5 c 0
 169 1408 169 1408 288 1408 c 2
 1248 1408 l 2
EndSplineSet
EndChar

StartChar: camera_retro
Encoding: 139 61571 139
Width: 1792
Flags: W
LayerCount: 2
Fore
SplineSet
928 704 m 0
 928 718 928 718 919 727 c 0
 910 736 910 736 896 736 c 0
 830 736 830 736 783 689 c 0
 736 642 736 642 736 576 c 0
 736 562 736 562 745 553 c 0
 754 544 754 544 768 544 c 0
 782 544 782 544 791 553 c 0
 800 562 800 562 800 576 c 0
 800 616 800 616 828 644 c 0
 856 672 856 672 896 672 c 0
 910 672 910 672 919 681 c 0
 928 690 928 690 928 704 c 0
1152 574 m 0
 1152 468 1152 468 1077 393 c 0
 1002 318 1002 318 896 318 c 0
 790 318 790 318 715 393 c 0
 640 468 640 468 640 574 c 0
 640 680 640 680 715 755 c 0
 790 830 790 830 896 830 c 0
 1002 830 1002 830 1077 755 c 0
 1152 680 1152 680 1152 574 c 0
128 0 m 1
 1664 0 l 1
 1664 128 l 1
 128 128 l 1
 128 0 l 1
1280 574 m 0
 1280 733 1280 733 1167.5 845.5 c 0
 1055 958 1055 958 896 958 c 0
 737 958 737 958 624.5 845.5 c 0
 512 733 512 733 512 574 c 0
 512 415 512 415 624.5 302.5 c 0
 737 190 737 190 896 190 c 0
 1055 190 1055 190 1167.5 302.5 c 0
 1280 415 1280 415 1280 574 c 0
256 1216 m 1
 640 1216 l 1
 640 1344 l 1
 256 1344 l 1
 256 1216 l 1
128 1024 m 1
 1664 1024 l 1
 1664 1142 l 1
 1664 1280 l 1
 836 1280 l 1
 772 1152 l 1
 128 1152 l 1
 128 1024 l 1
1792 1280 m 2
 1792 0 l 2
 1792 -53 1792 -53 1754.5 -90.5 c 0
 1717 -128 1717 -128 1664 -128 c 2
 128 -128 l 2
 75 -128 75 -128 37.5 -90.5 c 0
 0 -53 0 -53 0 0 c 2
 0 1280 l 2
 0 1333 0 1333 37.5 1370.5 c 0
 75 1408 75 1408 128 1408 c 2
 1664 1408 l 2
 1717 1408 1717 1408 1754.5 1370.5 c 0
 1792 1333 1792 1333 1792 1280 c 2
EndSplineSet
EndChar

StartChar: key
Encoding: 140 61572 140
Width: 1792
Flags: W
LayerCount: 2
Fore
SplineSet
832 1024 m 0
 832 1104 832 1104 776 1160 c 0
 720 1216 720 1216 640 1216 c 0
 560 1216 560 1216 504 1160 c 0
 448 1104 448 1104 448 1024 c 0
 448 982 448 982 467 941 c 1
 426 960 426 960 384 960 c 0
 304 960 304 960 248 904 c 0
 192 848 192 848 192 768 c 0
 192 688 192 688 248 632 c 0
 304 576 304 576 384 576 c 0
 464 576 464 576 520 632 c 0
 576 688 576 688 576 768 c 0
 576 810 576 810 557 851 c 1
 598 832 598 832 640 832 c 0
 720 832 720 832 776 888 c 0
 832 944 832 944 832 1024 c 0
1683 320 m 0
 1683 303 1683 303 1634 254 c 0
 1585 205 1585 205 1568 205 c 0
 1559 205 1559 205 1539.5 221 c 0
 1520 237 1520 237 1503 254 c 0
 1486 271 1486 271 1464.5 294 c 0
 1443 317 1443 317 1440 320 c 1
 1344 224 l 1
 1564 4 l 2
 1592 -24 1592 -24 1592 -64 c 0
 1592 -106 1592 -106 1553 -145 c 0
 1514 -184 1514 -184 1472 -184 c 0
 1432 -184 1432 -184 1404 -156 c 2
 733 515 l 1
 557 384 557 384 368 384 c 0
 205 384 205 384 102.5 486.5 c 0
 0 589 0 589 0 752 c 0
 0 912 0 912 95 1065 c 0
 190 1218 190 1218 343 1313 c 0
 496 1408 496 1408 656 1408 c 0
 819 1408 819 1408 921.5 1305.5 c 0
 1024 1203 1024 1203 1024 1040 c 0
 1024 851 1024 851 893 675 c 1
 1248 320 l 1
 1344 416 l 1
 1341 419 1341 419 1318 440.5 c 0
 1295 462 1295 462 1278 479 c 0
 1261 496 1261 496 1245 515.5 c 0
 1229 535 1229 535 1229 544 c 0
 1229 561 1229 561 1278 610 c 0
 1327 659 1327 659 1344 659 c 0
 1357 659 1357 659 1367 649 c 0
 1373 643 1373 643 1413 604.5 c 0
 1453 566 1453 566 1495 525 c 0
 1537 484 1537 484 1581.5 439 c 0
 1626 394 1626 394 1654.5 361 c 0
 1683 328 1683 328 1683 320 c 0
EndSplineSet
EndChar

StartChar: cogs
Encoding: 141 61573 141
Width: 1920
Flags: W
LayerCount: 2
Fore
SplineSet
896 640 m 0
 896 746 896 746 821 821 c 0
 746 896 746 896 640 896 c 0
 534 896 534 896 459 821 c 0
 384 746 384 746 384 640 c 0
 384 534 384 534 459 459 c 0
 534 384 534 384 640 384 c 0
 746 384 746 384 821 459 c 0
 896 534 896 534 896 640 c 0
1664 128 m 0
 1664 180 1664 180 1626 218 c 0
 1588 256 1588 256 1536 256 c 0
 1484 256 1484 256 1446 218 c 0
 1408 180 1408 180 1408 128 c 0
 1408 75 1408 75 1445.5 37.5 c 0
 1483 0 1483 0 1536 0 c 0
 1589 0 1589 0 1626.5 37.5 c 0
 1664 75 1664 75 1664 128 c 0
1664 1152 m 0
 1664 1204 1664 1204 1626 1242 c 0
 1588 1280 1588 1280 1536 1280 c 0
 1484 1280 1484 1280 1446 1242 c 0
 1408 1204 1408 1204 1408 1152 c 0
 1408 1099 1408 1099 1445.5 1061.5 c 0
 1483 1024 1483 1024 1536 1024 c 0
 1589 1024 1589 1024 1626.5 1061.5 c 0
 1664 1099 1664 1099 1664 1152 c 0
1280 731 m 2
 1280 546 l 2
 1280 536 1280 536 1273 526.5 c 0
 1266 517 1266 517 1257 516 c 2
 1102 492 l 1
 1091 457 1091 457 1070 416 c 1
 1104 368 1104 368 1160 301 c 0
 1167 290 1167 290 1167 281 c 0
 1167 269 1167 269 1160 262 c 0
 1137 232 1137 232 1077.5 172.5 c 0
 1018 113 1018 113 999 113 c 0
 988 113 988 113 978 120 c 2
 863 210 l 1
 826 191 826 191 786 179 c 1
 775 71 775 71 763 24 c 0
 756 0 756 0 733 0 c 2
 547 0 l 2
 536 0 536 0 527 7.5 c 0
 518 15 518 15 517 25 c 2
 494 178 l 1
 460 188 460 188 419 209 c 1
 301 120 l 2
 294 113 294 113 281 113 c 0
 270 113 270 113 260 121 c 0
 116 254 116 254 116 281 c 0
 116 290 116 290 123 300 c 0
 133 314 133 314 164 353 c 0
 195 392 195 392 211 414 c 1
 188 458 188 458 176 496 c 1
 24 520 l 2
 14 521 14 521 7 529.5 c 0
 0 538 0 538 0 549 c 2
 0 734 l 2
 0 744 0 744 7 753.5 c 0
 14 763 14 763 23 764 c 2
 178 788 l 1
 189 823 189 823 210 864 c 1
 176 912 176 912 120 979 c 0
 113 990 113 990 113 999 c 0
 113 1011 113 1011 120 1019 c 0
 142 1049 142 1049 202 1108 c 0
 262 1167 262 1167 281 1167 c 0
 292 1167 292 1167 302 1160 c 2
 417 1070 l 1
 451 1088 451 1088 494 1102 c 1
 505 1210 505 1210 517 1256 c 0
 524 1280 524 1280 547 1280 c 2
 733 1280 l 2
 744 1280 744 1280 753 1272.5 c 0
 762 1265 762 1265 763 1255 c 2
 786 1102 l 1
 820 1092 820 1092 861 1071 c 1
 979 1160 l 2
 987 1167 987 1167 999 1167 c 0
 1010 1167 1010 1167 1020 1159 c 0
 1164 1026 1164 1026 1164 999 c 0
 1164 991 1164 991 1157 980 c 0
 1145 964 1145 964 1115 926 c 0
 1085 888 1085 888 1070 866 c 1
 1093 818 1093 818 1104 784 c 1
 1256 761 l 2
 1266 759 1266 759 1273 750.5 c 0
 1280 742 1280 742 1280 731 c 2
1920 198 m 2
 1920 58 l 2
 1920 42 1920 42 1771 27 c 1
 1759 0 1759 0 1741 -25 c 1
 1792 -138 1792 -138 1792 -163 c 0
 1792 -167 1792 -167 1788 -170 c 0
 1666 -241 1666 -241 1664 -241 c 0
 1656 -241 1656 -241 1618 -194 c 0
 1580 -147 1580 -147 1566 -126 c 1
 1546 -128 1546 -128 1536 -128 c 0
 1526 -128 1526 -128 1506 -126 c 1
 1492 -147 1492 -147 1454 -194 c 0
 1416 -241 1416 -241 1408 -241 c 0
 1406 -241 1406 -241 1284 -170 c 0
 1280 -167 1280 -167 1280 -163 c 0
 1280 -138 1280 -138 1331 -25 c 1
 1313 0 1313 0 1301 27 c 1
 1152 42 1152 42 1152 58 c 2
 1152 198 l 2
 1152 214 1152 214 1301 229 c 1
 1314 258 1314 258 1331 281 c 1
 1280 394 1280 394 1280 419 c 0
 1280 423 1280 423 1284 426 c 0
 1288 428 1288 428 1319 446 c 0
 1350 464 1350 464 1378 480 c 0
 1406 496 1406 496 1408 496 c 0
 1416 496 1416 496 1454 449.5 c 0
 1492 403 1492 403 1506 382 c 1
 1526 384 1526 384 1536 384 c 0
 1546 384 1546 384 1566 382 c 1
 1617 453 1617 453 1658 494 c 1
 1664 496 l 2
 1668 496 1668 496 1788 426 c 0
 1792 423 1792 423 1792 419 c 0
 1792 394 1792 394 1741 281 c 1
 1758 258 1758 258 1771 229 c 1
 1920 214 1920 214 1920 198 c 2
1920 1222 m 2
 1920 1082 l 2
 1920 1066 1920 1066 1771 1051 c 1
 1759 1024 1759 1024 1741 999 c 1
 1792 886 1792 886 1792 861 c 0
 1792 857 1792 857 1788 854 c 0
 1666 783 1666 783 1664 783 c 0
 1656 783 1656 783 1618 830 c 0
 1580 877 1580 877 1566 898 c 1
 1546 896 1546 896 1536 896 c 0
 1526 896 1526 896 1506 898 c 1
 1492 877 1492 877 1454 830 c 0
 1416 783 1416 783 1408 783 c 0
 1406 783 1406 783 1284 854 c 0
 1280 857 1280 857 1280 861 c 0
 1280 886 1280 886 1331 999 c 1
 1313 1024 1313 1024 1301 1051 c 1
 1152 1066 1152 1066 1152 1082 c 2
 1152 1222 l 2
 1152 1238 1152 1238 1301 1253 c 1
 1314 1282 1314 1282 1331 1305 c 1
 1280 1418 1280 1418 1280 1443 c 0
 1280 1447 1280 1447 1284 1450 c 0
 1288 1452 1288 1452 1319 1470 c 0
 1350 1488 1350 1488 1378 1504 c 0
 1406 1520 1406 1520 1408 1520 c 0
 1416 1520 1416 1520 1454 1473.5 c 0
 1492 1427 1492 1427 1506 1406 c 1
 1526 1408 1526 1408 1536 1408 c 0
 1546 1408 1546 1408 1566 1406 c 1
 1617 1477 1617 1477 1658 1518 c 1
 1664 1520 l 2
 1668 1520 1668 1520 1788 1450 c 0
 1792 1447 1792 1447 1792 1443 c 0
 1792 1418 1792 1418 1741 1305 c 1
 1758 1282 1758 1282 1771 1253 c 1
 1920 1238 1920 1238 1920 1222 c 2
EndSplineSet
EndChar

StartChar: comments
Encoding: 142 61574 142
Width: 1792
Flags: W
LayerCount: 2
Fore
SplineSet
1408 768 m 0
 1408 629 1408 629 1314 511 c 0
 1220 393 1220 393 1057.5 324.5 c 0
 895 256 895 256 704 256 c 0
 618 256 618 256 528 272 c 1
 404 184 404 184 250 144 c 0
 214 135 214 135 164 128 c 1
 161 128 l 2
 150 128 150 128 140.5 136 c 0
 131 144 131 144 129 157 c 0
 128 160 128 160 128 163.5 c 0
 128 167 128 167 128.5 170 c 0
 129 173 129 173 130.5 176 c 2
 133 181 l 1
 136.5 186.5 l 1
 140.5 191.5 l 1
 145 196.5 l 1
 149 201 l 2
 154 207 154 207 172 226 c 0
 190 245 190 245 198 255.5 c 0
 206 266 206 266 220.5 284.5 c 0
 235 303 235 303 245.5 323 c 0
 256 343 256 343 266 367 c 1
 142 439 142 439 71 544 c 0
 0 649 0 649 0 768 c 0
 0 907 0 907 94 1025 c 0
 188 1143 188 1143 350.5 1211.5 c 0
 513 1280 513 1280 704 1280 c 0
 895 1280 895 1280 1057.5 1211.5 c 0
 1220 1143 1220 1143 1314 1025 c 0
 1408 907 1408 907 1408 768 c 0
1792 512 m 0
 1792 392 1792 392 1721 287.5 c 0
 1650 183 1650 183 1526 111 c 1
 1536 87 1536 87 1546.5 67 c 0
 1557 47 1557 47 1571.5 28.5 c 0
 1586 10 1586 10 1594 -0.5 c 0
 1602 -11 1602 -11 1620 -30 c 0
 1638 -49 1638 -49 1643 -55 c 0
 1644 -56 1644 -56 1647 -59.5 c 0
 1650 -63 1650 -63 1651.5 -64.5 c 0
 1653 -66 1653 -66 1655.5 -69.5 c 0
 1658 -73 1658 -73 1659 -75 c 2
 1661.5 -80 l 1
 1663.5 -86 l 1
 1664 -92.5 l 1
 1663 -99 l 2
 1660 -113 1660 -113 1650 -121 c 0
 1640 -129 1640 -129 1628 -128 c 0
 1578 -121 1578 -121 1542 -112 c 0
 1388 -72 1388 -72 1264 16 c 1
 1174 0 1174 0 1088 0 c 0
 817 0 817 0 616 132 c 1
 674 128 674 128 704 128 c 0
 865 128 865 128 1013 173 c 0
 1161 218 1161 218 1277 302 c 0
 1402 394 1402 394 1469 514 c 0
 1536 634 1536 634 1536 768 c 0
 1536 845 1536 845 1513 920 c 1
 1642 849 1642 849 1717 742 c 0
 1792 635 1792 635 1792 512 c 0
EndSplineSet
EndChar

StartChar: thumbs_up_alt
Encoding: 143 61575 143
Width: 1536
LayerCount: 2
Fore
SplineSet
256 192 m 0
 256 218 256 218 237 237 c 0
 218 256 218 256 192 256 c 0
 166 256 166 256 147 237 c 0
 128 218 128 218 128 192 c 0
 128 166 128 166 147 147 c 0
 166 128 166 128 192 128 c 0
 218 128 218 128 237 147 c 0
 256 166 256 166 256 192 c 0
1408 768 m 0
 1408 819 1408 819 1369 857.5 c 0
 1330 896 1330 896 1280 896 c 2
 928 896 l 1
 928 954 928 954 976 1055.5 c 0
 1024 1157 1024 1157 1024 1216 c 0
 1024 1314 1024 1314 992 1361 c 0
 960 1408 960 1408 864 1408 c 1
 838 1382 838 1382 826 1323 c 0
 814 1264 814 1264 795.5 1197.5 c 0
 777 1131 777 1131 736 1088 c 0
 714 1065 714 1065 659 997 c 0
 655 992 655 992 636 967 c 0
 617 942 617 942 604.5 926 c 0
 592 910 592 910 570 883.5 c 0
 548 857 548 857 530 839.5 c 0
 512 822 512 822 491.5 804 c 0
 471 786 471 786 451.5 777 c 0
 432 768 432 768 416 768 c 2
 384 768 l 1
 384 128 l 1
 416 128 l 2
 429 128 429 128 447.5 125 c 0
 466 122 466 122 480.5 118.5 c 0
 495 115 495 115 518.5 107.5 c 0
 542 100 542 100 553.5 96 c 0
 565 92 565 92 589 83.5 c 0
 613 75 613 75 618 73 c 0
 829 0 829 0 960 0 c 2
 1081 0 l 2
 1273 0 1273 0 1273 167 c 0
 1273 193 1273 193 1268 223 c 1
 1298 239 1298 239 1315.5 275.5 c 0
 1333 312 1333 312 1333 349 c 0
 1333 386 1333 386 1315 418 c 1
 1368 468 1368 468 1368 537 c 0
 1368 562 1368 562 1358 592.5 c 0
 1348 623 1348 623 1333 640 c 1
 1365 641 1365 641 1386.5 687 c 0
 1408 733 1408 733 1408 768 c 0
1536 769 m 0
 1536 680 1536 680 1487 606 c 1
 1496 573 1496 573 1496 537 c 0
 1496 460 1496 460 1458 393 c 1
 1461 372 1461 372 1461 350 c 0
 1461 249 1461 249 1401 172 c 1
 1402 33 1402 33 1316 -47.5 c 0
 1230 -128 1230 -128 1089 -128 c 2
 1053 -128 l 1
 960 -128 l 2
 864 -128 864 -128 770.5 -105.5 c 0
 677 -83 677 -83 554 -40 c 0
 438 0 438 0 416 0 c 2
 128 0 l 2
 75 0 75 0 37.5 37.5 c 0
 0 75 0 75 0 128 c 2
 0 768 l 2
 0 821 0 821 37.5 858.5 c 0
 75 896 75 896 128 896 c 2
 402 896 l 1
 438 920 438 920 539 1051 c 0
 597 1126 597 1126 646 1179 c 0
 670 1204 670 1204 681.5 1264.5 c 0
 693 1325 693 1325 712 1391 c 0
 731 1457 731 1457 774 1499 c 0
 813 1536 813 1536 864 1536 c 0
 948 1536 948 1536 1015 1503.5 c 0
 1082 1471 1082 1471 1117 1402 c 0
 1152 1333 1152 1333 1152 1216 c 0
 1152 1123 1152 1123 1104 1024 c 1
 1280 1024 l 2
 1384 1024 1384 1024 1460 948 c 0
 1536 872 1536 872 1536 769 c 0
EndSplineSet
EndChar

StartChar: thumbs_down_alt
Encoding: 144 61576 144
Width: 1536
LayerCount: 2
Fore
SplineSet
256 1088 m 0
 256 1114 256 1114 237 1133 c 0
 218 1152 218 1152 192 1152 c 0
 166 1152 166 1152 147 1133 c 0
 128 1114 128 1114 128 1088 c 0
 128 1062 128 1062 147 1043 c 0
 166 1024 166 1024 192 1024 c 0
 218 1024 218 1024 237 1043 c 0
 256 1062 256 1062 256 1088 c 0
1408 512 m 0
 1408 547 1408 547 1386.5 593 c 0
 1365 639 1365 639 1333 640 c 1
 1348 657 1348 657 1358 687.5 c 0
 1368 718 1368 718 1368 743 c 0
 1368 812 1368 812 1315 862 c 1
 1333 893 1333 893 1333 931 c 0
 1333 968 1333 968 1315.5 1004.5 c 0
 1298 1041 1298 1041 1268 1057 c 1
 1273 1087 1273 1087 1273 1113 c 0
 1273 1198 1273 1198 1224 1239 c 0
 1175 1280 1175 1280 1088 1280 c 2
 960 1280 l 2
 829 1280 829 1280 618 1207 c 0
 613 1205 613 1205 589 1196.5 c 0
 565 1188 565 1188 553.5 1184 c 0
 542 1180 542 1180 518.5 1172.5 c 0
 495 1165 495 1165 480.5 1161.5 c 0
 466 1158 466 1158 447.5 1155 c 0
 429 1152 429 1152 416 1152 c 2
 384 1152 l 1
 384 512 l 1
 416 512 l 2
 432 512 432 512 451.5 503 c 0
 471 494 471 494 491.5 476 c 0
 512 458 512 458 530 440.5 c 0
 548 423 548 423 570 396.5 c 0
 592 370 592 370 604.5 354 c 0
 617 338 617 338 636 313 c 0
 655 288 655 288 659 283 c 0
 714 215 714 215 736 192 c 0
 777 149 777 149 795.5 82.5 c 0
 814 16 814 16 826 -43 c 0
 838 -102 838 -102 864 -128 c 1
 960 -128 960 -128 992 -81 c 0
 1024 -34 1024 -34 1024 64 c 0
 1024 123 1024 123 976 224.5 c 0
 928 326 928 326 928 384 c 1
 1280 384 l 2
 1330 384 1330 384 1369 422.5 c 0
 1408 461 1408 461 1408 512 c 0
1536 511 m 0
 1536 408 1536 408 1460 332 c 0
 1384 256 1384 256 1280 256 c 2
 1104 256 l 1
 1152 157 1152 157 1152 64 c 0
 1152 -54 1152 -54 1117 -122 c 0
 1082 -191 1082 -191 1015 -223.5 c 0
 948 -256 948 -256 864 -256 c 0
 813 -256 813 -256 774 -219 c 0
 740 -186 740 -186 720 -137 c 0
 700 -88 700 -88 694.5 -46.5 c 0
 689 -5 689 -5 677 38 c 0
 665 81 665 81 646 102 c 0
 598 152 598 152 539 229 c 0
 438 360 438 360 402 384 c 1
 128 384 l 2
 75 384 75 384 37.5 421.5 c 0
 0 459 0 459 0 512 c 2
 0 1152 l 2
 0 1205 0 1205 37.5 1242.5 c 0
 75 1280 75 1280 128 1280 c 2
 416 1280 l 2
 438 1280 438 1280 554 1320 c 0
 682 1364 682 1364 777 1386 c 0
 872 1408 872 1408 977 1408 c 2
 1089 1408 l 2
 1229 1408 1229 1408 1315.5 1329 c 0
 1402 1250 1402 1250 1401 1113 c 2
 1401 1108 l 1
 1461 1031 1461 1031 1461 930 c 0
 1461 908 1461 908 1458 887 c 1
 1496 820 1496 820 1496 743 c 0
 1496 707 1496 707 1487 674 c 1
 1536 601 1536 601 1536 511 c 0
EndSplineSet
EndChar

StartChar: star_half
Encoding: 145 61577 145
Width: 896
Flags: W
LayerCount: 2
Fore
SplineSet
832 1504 m 1
 832 165 l 1
 383 -71 l 2
 361 -83 361 -83 343 -83 c 0
 322 -83 322 -83 311.5 -68.5 c 0
 301 -54 301 -54 301 -33 c 0
 301 -27 301 -27 303 -13 c 2
 389 487 l 1
 25 841 l 2
 0 868 0 868 0 889 c 0
 0 926 0 926 56 935 c 2
 558 1008 l 1
 783 1463 l 2
 802 1504 802 1504 832 1504 c 1
EndSplineSet
EndChar

StartChar: heart_empty
Encoding: 146 61578 146
Width: 1792
Flags: W
LayerCount: 2
Fore
SplineSet
1664 940 m 0
 1664 1021 1664 1021 1642.5 1083 c 0
 1621 1145 1621 1145 1587.5 1181.5 c 0
 1554 1218 1554 1218 1506 1241 c 0
 1458 1264 1458 1264 1412 1272 c 0
 1366 1280 1366 1280 1314 1280 c 0
 1262 1280 1262 1280 1202 1254.5 c 0
 1142 1229 1142 1229 1091.5 1190.5 c 0
 1041 1152 1041 1152 1005 1118.5 c 0
 969 1085 969 1085 945 1057 c 0
 927 1035 927 1035 896 1035 c 0
 865 1035 865 1035 847 1057 c 0
 823 1085 823 1085 787 1118.5 c 0
 751 1152 751 1152 700.5 1190.5 c 0
 650 1229 650 1229 590 1254.5 c 0
 530 1280 530 1280 478 1280 c 0
 426 1280 426 1280 380 1272 c 0
 334 1264 334 1264 286 1241 c 0
 238 1218 238 1218 204.5 1181.5 c 0
 171 1145 171 1145 149.5 1083 c 0
 128 1021 128 1021 128 940 c 0
 128 772 128 772 315 585 c 1
 896 25 l 1
 1476 584 l 1
 1664 772 1664 772 1664 940 c 0
1792 940 m 0
 1792 719 1792 719 1563 490 c 1
 940 -110 l 2
 922 -128 922 -128 896 -128 c 0
 870 -128 870 -128 852 -110 c 2
 228 492 l 2
 218 500 218 500 200.5 518 c 0
 183 536 183 536 145 583.5 c 0
 107 631 107 631 77 681 c 0
 47 731 47 731 23.5 802 c 0
 0 873 0 873 0 940 c 0
 0 1160 0 1160 127 1284 c 0
 254 1408 254 1408 478 1408 c 0
 540 1408 540 1408 604.5 1386.5 c 0
 669 1365 669 1365 724.5 1328.5 c 0
 780 1292 780 1292 820 1260 c 0
 860 1228 860 1228 896 1192 c 1
 932 1228 932 1228 972 1260 c 0
 1012 1292 1012 1292 1067.5 1328.5 c 0
 1123 1365 1123 1365 1187.5 1386.5 c 0
 1252 1408 1252 1408 1314 1408 c 0
 1538 1408 1538 1408 1665 1284 c 0
 1792 1160 1792 1160 1792 940 c 0
EndSplineSet
EndChar

StartChar: signout
Encoding: 147 61579 147
Width: 1664
Flags: W
LayerCount: 2
Fore
SplineSet
640 96 m 2
 640 92 640 92 641 76 c 0
 642 60 642 60 641.5 49.5 c 0
 641 39 641 39 638.5 26 c 0
 636 13 636 13 628.5 6.5 c 0
 621 0 621 0 608 0 c 2
 288 0 l 2
 169 0 169 0 84.5 84.5 c 0
 0 169 0 169 0 288 c 2
 0 992 l 2
 0 1111 0 1111 84.5 1195.5 c 0
 169 1280 169 1280 288 1280 c 2
 608 1280 l 2
 621 1280 621 1280 630.5 1270.5 c 0
 640 1261 640 1261 640 1248 c 0
 640 1244 640 1244 641 1228 c 0
 642 1212 642 1212 641.5 1201.5 c 0
 641 1191 641 1191 638.5 1178 c 0
 636 1165 636 1165 628.5 1158.5 c 0
 621 1152 621 1152 608 1152 c 2
 288 1152 l 2
 222 1152 222 1152 175 1105 c 0
 128 1058 128 1058 128 992 c 2
 128 288 l 2
 128 222 128 222 175 175 c 0
 222 128 222 128 288 128 c 2
 576 128 l 1
 587 128 l 1
 600 128 l 1
 611.5 127 l 1
 623 124 l 1
 631 118.5 l 1
 638 109.5 l 1
 640 96 l 2
1568 640 m 0
 1568 614 1568 614 1549 595 c 2
 1005 51 l 2
 986 32 986 32 960 32 c 0
 934 32 934 32 915 51 c 0
 896 70 896 70 896 96 c 2
 896 384 l 1
 448 384 l 2
 422 384 422 384 403 403 c 0
 384 422 384 422 384 448 c 2
 384 832 l 2
 384 858 384 858 403 877 c 0
 422 896 422 896 448 896 c 2
 896 896 l 1
 896 1184 l 2
 896 1210 896 1210 915 1229 c 0
 934 1248 934 1248 960 1248 c 0
 986 1248 986 1248 1005 1229 c 2
 1549 685 l 2
 1568 666 1568 666 1568 640 c 0
EndSplineSet
EndChar

StartChar: linkedin_sign
Encoding: 148 61580 148
Width: 1536
LayerCount: 2
Fore
SplineSet
237 122 m 1
 468 122 l 1
 468 816 l 1
 237 816 l 1
 237 122 l 1
483 1030 m 0
 482 1082 482 1082 447 1116 c 0
 412 1150 412 1150 354 1150 c 0
 296 1150 296 1150 259.5 1116 c 0
 223 1082 223 1082 223 1030 c 0
 223 979 223 979 258.5 944.5 c 0
 294 910 294 910 351 910 c 2
 352 910 l 2
 411 910 411 910 447 944.5 c 0
 483 979 483 979 483 1030 c 0
1068 122 m 1
 1299 122 l 1
 1299 520 l 2
 1299 674 1299 674 1226 753 c 0
 1153 832 1153 832 1033 832 c 0
 897 832 897 832 824 715 c 1
 826 715 l 1
 826 816 l 1
 595 816 l 1
 598 750 598 750 595 122 c 1
 826 122 l 1
 826 510 l 2
 826 548 826 548 833 566 c 0
 848 601 848 601 878 625.5 c 0
 908 650 908 650 952 650 c 0
 1068 650 1068 650 1068 493 c 2
 1068 122 l 1
1536 1120 m 2
 1536 160 l 2
 1536 41 1536 41 1451.5 -43.5 c 0
 1367 -128 1367 -128 1248 -128 c 2
 288 -128 l 2
 169 -128 169 -128 84.5 -43.5 c 0
 0 41 0 41 0 160 c 2
 0 1120 l 2
 0 1239 0 1239 84.5 1323.5 c 0
 169 1408 169 1408 288 1408 c 2
 1248 1408 l 2
 1367 1408 1367 1408 1451.5 1323.5 c 0
 1536 1239 1536 1239 1536 1120 c 2
EndSplineSet
EndChar

StartChar: pushpin
Encoding: 149 61581 149
Width: 1152
Flags: W
LayerCount: 2
Fore
SplineSet
480 672 m 2
 480 1120 l 2
 480 1134 480 1134 471 1143 c 0
 462 1152 462 1152 448 1152 c 0
 434 1152 434 1152 425 1143 c 0
 416 1134 416 1134 416 1120 c 2
 416 672 l 2
 416 658 416 658 425 649 c 0
 434 640 434 640 448 640 c 0
 462 640 462 640 471 649 c 0
 480 658 480 658 480 672 c 2
1152 320 m 0
 1152 294 1152 294 1133 275 c 0
 1114 256 1114 256 1088 256 c 2
 659 256 l 1
 608 -227 l 2
 606 -239 606 -239 597.5 -247.5 c 0
 589 -256 589 -256 577 -256 c 2
 576 -256 l 2
 549 -256 549 -256 544 -229 c 2
 468 256 l 1
 64 256 l 2
 38 256 38 256 19 275 c 0
 0 294 0 294 0 320 c 0
 0 443 0 443 78.5 541.5 c 0
 157 640 157 640 256 640 c 1
 256 1152 l 1
 204 1152 204 1152 166 1190 c 0
 128 1228 128 1228 128 1280 c 0
 128 1332 128 1332 166 1370 c 0
 204 1408 204 1408 256 1408 c 2
 896 1408 l 2
 948 1408 948 1408 986 1370 c 0
 1024 1332 1024 1332 1024 1280 c 0
 1024 1228 1024 1228 986 1190 c 0
 948 1152 948 1152 896 1152 c 1
 896 640 l 1
 995 640 995 640 1073.5 541.5 c 0
 1152 443 1152 443 1152 320 c 0
EndSplineSet
EndChar

StartChar: external_link
Encoding: 150 61582 150
Width: 1792
Flags: W
LayerCount: 2
Fore
SplineSet
1408 608 m 2
 1408 288 l 2
 1408 169 1408 169 1323.5 84.5 c 0
 1239 0 1239 0 1120 0 c 2
 288 0 l 2
 169 0 169 0 84.5 84.5 c 0
 0 169 0 169 0 288 c 2
 0 1120 l 2
 0 1239 0 1239 84.5 1323.5 c 0
 169 1408 169 1408 288 1408 c 2
 992 1408 l 2
 1006 1408 1006 1408 1015 1399 c 0
 1024 1390 1024 1390 1024 1376 c 2
 1024 1312 l 2
 1024 1298 1024 1298 1015 1289 c 0
 1006 1280 1006 1280 992 1280 c 2
 288 1280 l 2
 222 1280 222 1280 175 1233 c 0
 128 1186 128 1186 128 1120 c 2
 128 288 l 2
 128 222 128 222 175 175 c 0
 222 128 222 128 288 128 c 2
 1120 128 l 2
 1186 128 1186 128 1233 175 c 0
 1280 222 1280 222 1280 288 c 2
 1280 608 l 2
 1280 622 1280 622 1289 631 c 0
 1298 640 1298 640 1312 640 c 2
 1376 640 l 2
 1390 640 1390 640 1399 631 c 0
 1408 622 1408 622 1408 608 c 2
1792 1472 m 2
 1792 960 l 2
 1792 934 1792 934 1773 915 c 0
 1754 896 1754 896 1728 896 c 0
 1702 896 1702 896 1683 915 c 2
 1507 1091 l 1
 855 439 l 2
 845 429 845 429 832 429 c 0
 819 429 819 429 809 439 c 2
 695 553 l 2
 685 563 685 563 685 576 c 0
 685 589 685 589 695 599 c 2
 1347 1251 l 1
 1171 1427 l 2
 1152 1446 1152 1446 1152 1472 c 0
 1152 1498 1152 1498 1171 1517 c 0
 1190 1536 1190 1536 1216 1536 c 2
 1728 1536 l 2
 1754 1536 1754 1536 1773 1517 c 0
 1792 1498 1792 1498 1792 1472 c 2
EndSplineSet
EndChar

StartChar: signin
Encoding: 151 61584 151
Width: 1536
LayerCount: 2
Fore
SplineSet
1184 640 m 0
 1184 614 1184 614 1165 595 c 2
 621 51 l 2
 602 32 602 32 576 32 c 0
 550 32 550 32 531 51 c 0
 512 70 512 70 512 96 c 2
 512 384 l 1
 64 384 l 2
 38 384 38 384 19 403 c 0
 0 422 0 422 0 448 c 2
 0 832 l 2
 0 858 0 858 19 877 c 0
 38 896 38 896 64 896 c 2
 512 896 l 1
 512 1184 l 2
 512 1210 512 1210 531 1229 c 0
 550 1248 550 1248 576 1248 c 0
 602 1248 602 1248 621 1229 c 2
 1165 685 l 2
 1184 666 1184 666 1184 640 c 0
1536 992 m 2
 1536 288 l 2
 1536 169 1536 169 1451.5 84.5 c 0
 1367 0 1367 0 1248 0 c 2
 928 0 l 2
 915 0 915 0 905.5 9.5 c 0
 896 19 896 19 896 32 c 0
 896 36 896 36 895 52 c 0
 894 68 894 68 894.5 78.5 c 0
 895 89 895 89 897.5 102 c 0
 900 115 900 115 907.5 121.5 c 0
 915 128 915 128 928 128 c 2
 1248 128 l 2
 1314 128 1314 128 1361 175 c 0
 1408 222 1408 222 1408 288 c 2
 1408 992 l 2
 1408 1058 1408 1058 1361 1105 c 0
 1314 1152 1314 1152 1248 1152 c 2
 960 1152 l 1
 949 1152 l 1
 936 1152 l 1
 924.5 1153 l 1
 913 1156 l 1
 905 1161.5 l 1
 898 1170.5 l 1
 896 1184 l 2
 896 1188 896 1188 895 1204 c 0
 894 1220 894 1220 894.5 1230.5 c 0
 895 1241 895 1241 897.5 1254 c 0
 900 1267 900 1267 907.5 1273.5 c 0
 915 1280 915 1280 928 1280 c 2
 1248 1280 l 2
 1367 1280 1367 1280 1451.5 1195.5 c 0
 1536 1111 1536 1111 1536 992 c 2
EndSplineSet
EndChar

StartChar: trophy
Encoding: 152 61585 152
Width: 1664
Flags: W
LayerCount: 2
Fore
SplineSet
458 653 m 1
 384 815 384 815 384 1024 c 1
 128 1024 l 1
 128 928 l 2
 128 850 128 850 222.5 766 c 0
 317 682 317 682 458 653 c 1
1536 928 m 2
 1536 1024 l 1
 1280 1024 l 1
 1280 815 1280 815 1206 653 c 1
 1347 682 1347 682 1441.5 766 c 0
 1536 850 1536 850 1536 928 c 2
1664 1056 m 2
 1664 928 l 2
 1664 857 1664 857 1622.5 785 c 0
 1581 713 1581 713 1510.5 655 c 0
 1440 597 1440 597 1337.5 557.5 c 0
 1235 518 1235 518 1122 513 c 1
 1080 459 1080 459 1027 418 c 0
 989 384 989 384 974.5 345.5 c 0
 960 307 960 307 960 256 c 0
 960 202 960 202 990.5 165 c 0
 1021 128 1021 128 1088 128 c 0
 1163 128 1163 128 1221.5 82.5 c 0
 1280 37 1280 37 1280 -32 c 2
 1280 -96 l 2
 1280 -110 1280 -110 1271 -119 c 0
 1262 -128 1262 -128 1248 -128 c 2
 416 -128 l 2
 402 -128 402 -128 393 -119 c 0
 384 -110 384 -110 384 -96 c 2
 384 -32 l 2
 384 37 384 37 442.5 82.5 c 0
 501 128 501 128 576 128 c 0
 643 128 643 128 673.5 165 c 0
 704 202 704 202 704 256 c 0
 704 307 704 307 689.5 345.5 c 0
 675 384 675 384 637 418 c 0
 584 459 584 459 542 513 c 1
 429 518 429 518 326.5 557.5 c 0
 224 597 224 597 153.5 655 c 0
 83 713 83 713 41.5 785 c 0
 0 857 0 857 0 928 c 2
 0 1056 l 2
 0 1096 0 1096 28 1124 c 0
 56 1152 56 1152 96 1152 c 2
 384 1152 l 1
 384 1248 l 2
 384 1314 384 1314 431 1361 c 0
 478 1408 478 1408 544 1408 c 2
 1120 1408 l 2
 1186 1408 1186 1408 1233 1361 c 0
 1280 1314 1280 1314 1280 1248 c 2
 1280 1152 l 1
 1568 1152 l 2
 1608 1152 1608 1152 1636 1124 c 0
 1664 1096 1664 1096 1664 1056 c 2
EndSplineSet
EndChar

StartChar: github_sign
Encoding: 153 61586 153
Width: 1536
LayerCount: 2
Fore
SplineSet
519 336 m 0
 523 342 523 342 516 349 c 0
 507 356 507 356 502 351 c 0
 498 345 498 345 505 338 c 0
 514 331 514 331 519 336 c 0
491 377 m 0
 486 384 486 384 479 381 c 0
 473 377 473 377 479 369 c 0
 486 361 486 361 491 364 c 0
 497 368 497 368 491 377 c 0
450 417 m 0
 452 421 452 421 445 425 c 0
 438 427 438 427 437 423 c 0
 434 418 434 418 441 415 c 0
 449 413 449 413 450 417 c 0
471 394 m 0
 473 395 473 395 472.5 398.5 c 0
 472 402 472 402 469 404 c 0
 463 411 463 411 459 407 c 0
 455 403 455 403 460 396 c 0
 466 390 466 390 471 394 c 0
557 319 m 0
 559 326 559 326 548 330 c 0
 539 333 539 333 535 326 c 0
 533 319 533 319 544 315 c 0
 553 312 553 312 557 319 c 0
599 316 m 0
 599 324 599 324 587 324 c 0
 577 324 577 324 577 316 c 0
 577 308 577 308 588 308 c 0
 599 308 599 308 599 316 c 0
638 323 m 0
 636 330 636 330 625 328 c 0
 614 326 614 326 616 319 c 0
 618 311 618 311 628 313 c 0
 638 315 638 315 638 323 c 0
1280 640 m 0
 1280 852 1280 852 1130 1002 c 0
 980 1152 980 1152 768 1152 c 0
 556 1152 556 1152 406 1002 c 0
 256 852 256 852 256 640 c 0
 256 473 256 473 354 339.5 c 0
 452 206 452 206 606 154 c 0
 624 151 624 151 632.5 159 c 0
 641 167 641 167 641 179 c 0
 641 231 641 231 640 274 c 1
 634 273 634 273 624.5 271.5 c 0
 615 270 615 270 589 269.5 c 0
 563 269 563 269 541 273.5 c 0
 519 278 519 278 497.5 293.5 c 0
 476 309 476 309 468 335 c 0
 445 394 445 394 411 409 c 0
 409 410 409 410 406.5 412.5 c 2
 398.5 420.5 l 1
 391.5 430 l 1
 395.5 437.5 l 1
 415 441 l 2
 421 441 421 441 430 439 c 0
 439 437 439 437 460 423.5 c 0
 481 410 481 410 493 388 c 0
 509 360 509 360 530.5 346 c 0
 552 332 552 332 574 332 c 0
 596 332 596 332 612 335.5 c 0
 628 339 628 339 642 345 c 1
 649 392 649 392 675 414 c 1
 626 420 626 420 589 432.5 c 0
 552 445 552 445 516 471.5 c 0
 480 498 480 498 460.5 547.5 c 0
 441 597 441 597 441 667 c 0
 441 746 441 746 494 804 c 1
 470 866 470 866 499 940 c 1
 518 946 518 946 553.5 932.5 c 0
 589 919 589 919 614 903 c 2
 640 887 l 1
 698 904 698 904 768 904 c 0
 838 904 838 904 896 887 c 1
 907 894 907 894 924.5 905 c 0
 942 916 942 916 980 931 c 0
 1018 946 1018 946 1037 940 c 1
 1066 866 1066 866 1042 804 c 1
 1095 746 1095 746 1095 667 c 0
 1095 610 1095 610 1081 566.5 c 0
 1067 523 1067 523 1045.5 496.5 c 0
 1024 470 1024 470 992 452 c 0
 960 434 960 434 929.5 426 c 0
 899 418 899 418 861 414 c 1
 896 383 896 383 896 319 c 0
 896 279 896 279 895.5 230 c 0
 895 181 895 181 895 179 c 0
 895 167 895 167 903.5 159 c 0
 912 151 912 151 930 154 c 0
 1084 206 1084 206 1182 339.5 c 0
 1280 473 1280 473 1280 640 c 0
1536 1120 m 2
 1536 160 l 2
 1536 41 1536 41 1451.5 -43.5 c 0
 1367 -128 1367 -128 1248 -128 c 2
 288 -128 l 2
 169 -128 169 -128 84.5 -43.5 c 0
 0 41 0 41 0 160 c 2
 0 1120 l 2
 0 1239 0 1239 84.5 1323.5 c 0
 169 1408 169 1408 288 1408 c 2
 1248 1408 l 2
 1367 1408 1367 1408 1451.5 1323.5 c 0
 1536 1239 1536 1239 1536 1120 c 2
EndSplineSet
EndChar

StartChar: upload_alt
Encoding: 154 61587 154
Width: 1664
Flags: W
LayerCount: 2
Fore
SplineSet
1280 64 m 0
 1280 90 1280 90 1261 109 c 0
 1242 128 1242 128 1216 128 c 0
 1190 128 1190 128 1171 109 c 0
 1152 90 1152 90 1152 64 c 0
 1152 38 1152 38 1171 19 c 0
 1190 0 1190 0 1216 0 c 0
 1242 0 1242 0 1261 19 c 0
 1280 38 1280 38 1280 64 c 0
1536 64 m 0
 1536 90 1536 90 1517 109 c 0
 1498 128 1498 128 1472 128 c 0
 1446 128 1446 128 1427 109 c 0
 1408 90 1408 90 1408 64 c 0
 1408 38 1408 38 1427 19 c 0
 1446 0 1446 0 1472 0 c 0
 1498 0 1498 0 1517 19 c 0
 1536 38 1536 38 1536 64 c 0
1664 288 m 2
 1664 -32 l 2
 1664 -72 1664 -72 1636 -100 c 0
 1608 -128 1608 -128 1568 -128 c 2
 96 -128 l 2
 56 -128 56 -128 28 -100 c 0
 0 -72 0 -72 0 -32 c 2
 0 288 l 2
 0 328 0 328 28 356 c 0
 56 384 56 384 96 384 c 2
 523 384 l 1
 544 328 544 328 593.5 292 c 0
 643 256 643 256 704 256 c 2
 960 256 l 2
 1021 256 1021 256 1070.5 292 c 0
 1120 328 1120 328 1141 384 c 1
 1568 384 l 2
 1608 384 1608 384 1636 356 c 0
 1664 328 1664 328 1664 288 c 2
1339 936 m 0
 1322 896 1322 896 1280 896 c 2
 1024 896 l 1
 1024 448 l 2
 1024 422 1024 422 1005 403 c 0
 986 384 986 384 960 384 c 2
 704 384 l 2
 678 384 678 384 659 403 c 0
 640 422 640 422 640 448 c 2
 640 896 l 1
 384 896 l 2
 342 896 342 896 325 936 c 0
 308 975 308 975 339 1005 c 2
 787 1453 l 2
 805 1472 805 1472 832 1472 c 0
 859 1472 859 1472 877 1453 c 2
 1325 1005 l 2
 1356 975 1356 975 1339 936 c 0
EndSplineSet
EndChar

StartChar: lemon
Encoding: 155 61588 155
Width: 1536
LayerCount: 2
Fore
SplineSet
1407 710 m 0
 1407 754 1407 754 1400 823.5 c 0
 1393 893 1393 893 1382 920 c 0
 1370 950 1370 950 1365 964 c 0
 1360 978 1360 978 1356 1000.5 c 0
 1352 1023 1352 1023 1352 1049 c 0
 1352 1072 1352 1072 1357 1117.5 c 0
 1362 1163 1362 1163 1362 1185 c 0
 1362 1222 1362 1222 1352 1240 c 0
 1348 1241 1348 1241 1339 1241 c 0
 1320 1241 1320 1241 1281 1236.5 c 0
 1242 1232 1242 1232 1222 1232 c 0
 1162 1232 1162 1232 1046 1256 c 0
 930 1280 930 1280 871 1280 c 0
 828 1280 828 1280 776.5 1268.5 c 0
 725 1257 725 1257 691.5 1245 c 0
 658 1233 658 1233 602 1211 c 0
 465 1157 465 1157 400 1108 c 0
 304 1035 304 1035 240.5 918.5 c 0
 177 802 177 802 152.5 682.5 c 0
 128 563 128 563 128 434 c 0
 128 394 128 394 140.5 314 c 0
 153 234 153 234 153 193 c 0
 153 170 153 170 142 126.5 c 0
 131 83 131 83 131 61 c 0
 131 39 131 39 143 24.5 c 0
 155 10 155 10 177 10 c 0
 201 10 201 10 249.5 21 c 0
 298 32 298 32 323 32 c 0
 380 32 380 32 492.5 16.5 c 0
 605 1 605 1 662 1 c 0
 843 1 843 1 946 37 c 0
 1075 82 1075 82 1181.5 189.5 c 0
 1288 297 1288 297 1347.5 435 c 0
 1407 573 1407 573 1407 710 c 0
1535 712 m 0
 1535 547 1535 547 1465 384.5 c 0
 1395 222 1395 222 1269 96.5 c 0
 1143 -29 1143 -29 988 -84 c 0
 864 -128 864 -128 662 -128 c 0
 605 -128 605 -128 492 -113.5 c 0
 379 -99 379 -99 323 -99 c 0
 299 -99 299 -99 250.5 -113.5 c 0
 202 -128 202 -128 177 -128 c 0
 104 -128 104 -128 53.5 -72.5 c 0
 3 -17 3 -17 3 56 c 0
 3 80 3 80 14 124 c 0
 25 168 25 168 25 191 c 0
 25 231 25 231 12.5 311.5 c 0
 0 392 0 392 0 433 c 0
 0 544 0 544 18 650.5 c 0
 36 757 36 757 72.5 860 c 0
 109 963 109 963 173 1054 c 0
 237 1145 237 1145 323 1210 c 0
 401 1269 401 1269 555 1330 c 0
 749 1408 749 1408 871 1408 c 0
 931 1408 931 1408 1046.5 1384 c 0
 1162 1360 1162 1360 1220 1360 c 0
 1239 1360 1239 1360 1277 1365 c 0
 1315 1370 1315 1370 1335 1370 c 0
 1416 1370 1416 1370 1453 1319.5 c 0
 1490 1269 1490 1269 1490 1185 c 0
 1490 1162 1490 1162 1485 1117 c 0
 1480 1072 1480 1072 1480 1049 c 0
 1480 1036 1480 1036 1482 1024 c 0
 1484 1012 1484 1012 1485.5 1007.5 c 0
 1487 1003 1487 1003 1493 987 c 0
 1499 971 1499 971 1501 967 c 0
 1517 927 1517 927 1526 848.5 c 0
 1535 770 1535 770 1535 712 c 0
EndSplineSet
EndChar

StartChar: phone
Encoding: 156 61589 156
Width: 1408
Flags: W
LayerCount: 2
Fore
SplineSet
1408 296 m 0
 1408 269 1408 269 1398 225.5 c 0
 1388 182 1388 182 1377 157 c 0
 1356 107 1356 107 1255 51 c 0
 1161 0 1161 0 1069 0 c 0
 1042 0 1042 0 1016 3.5 c 0
 990 7 990 7 958.5 16 c 0
 927 25 927 25 911.5 30.5 c 0
 896 36 896 36 856 51 c 0
 816 66 816 66 807 69 c 0
 709 104 709 104 632 152 c 0
 505 231 505 231 368 368 c 0
 231 505 231 505 152 632 c 0
 104 709 104 709 69 807 c 0
 66 816 66 816 51 856 c 0
 36 896 36 896 30.5 911.5 c 0
 25 927 25 927 16 958.5 c 0
 7 990 7 990 3.5 1016 c 0
 0 1042 0 1042 0 1069 c 0
 0 1161 0 1161 51 1255 c 0
 107 1356 107 1356 157 1377 c 0
 182 1388 182 1388 225.5 1398 c 0
 269 1408 269 1408 296 1408 c 0
 310 1408 310 1408 317 1405 c 0
 335 1399 335 1399 370 1329 c 0
 381 1310 381 1310 400 1275 c 0
 419 1240 419 1240 435 1211.5 c 0
 451 1183 451 1183 466 1158 c 0
 469 1154 469 1154 483.5 1133 c 0
 498 1112 498 1112 505 1097.5 c 0
 512 1083 512 1083 512 1069 c 0
 512 1049 512 1049 483.5 1019 c 0
 455 989 455 989 421.5 964 c 0
 388 939 388 939 359.5 911 c 0
 331 883 331 883 331 865 c 0
 331 856 331 856 336 842.5 c 0
 341 829 341 829 344.5 822 c 0
 348 815 348 815 358.5 798 c 0
 369 781 369 781 370 779 c 0
 446 642 446 642 544 544 c 0
 642 446 642 446 779 370 c 0
 781 369 781 369 798 358.5 c 0
 815 348 815 348 822 344.5 c 0
 829 341 829 341 842.5 336 c 0
 856 331 856 331 865 331 c 0
 883 331 883 331 911 359.5 c 0
 939 388 939 388 964 421.5 c 0
 989 455 989 455 1019 483.5 c 0
 1049 512 1049 512 1069 512 c 0
 1083 512 1083 512 1097.5 505 c 0
 1112 498 1112 498 1133 483.5 c 0
 1154 469 1154 469 1158 466 c 0
 1183 451 1183 451 1211.5 435 c 0
 1240 419 1240 419 1275 400 c 0
 1310 381 1310 381 1329 370 c 0
 1399 335 1399 335 1405 317 c 0
 1408 310 1408 310 1408 296 c 0
EndSplineSet
EndChar

StartChar: check_empty
Encoding: 157 61590 157
Width: 1408
Flags: W
LayerCount: 2
Fore
SplineSet
1120 1280 m 2
 288 1280 l 2
 222 1280 222 1280 175 1233 c 0
 128 1186 128 1186 128 1120 c 2
 128 288 l 2
 128 222 128 222 175 175 c 0
 222 128 222 128 288 128 c 2
 1120 128 l 2
 1186 128 1186 128 1233 175 c 0
 1280 222 1280 222 1280 288 c 2
 1280 1120 l 2
 1280 1186 1280 1186 1233 1233 c 0
 1186 1280 1186 1280 1120 1280 c 2
1408 1120 m 2
 1408 288 l 2
 1408 169 1408 169 1323.5 84.5 c 0
 1239 0 1239 0 1120 0 c 2
 288 0 l 2
 169 0 169 0 84.5 84.5 c 0
 0 169 0 169 0 288 c 2
 0 1120 l 2
 0 1239 0 1239 84.5 1323.5 c 0
 169 1408 169 1408 288 1408 c 2
 1120 1408 l 2
 1239 1408 1239 1408 1323.5 1323.5 c 0
 1408 1239 1408 1239 1408 1120 c 2
EndSplineSet
EndChar

StartChar: bookmark_empty
Encoding: 158 61591 158
Width: 1280
Flags: W
LayerCount: 2
Fore
SplineSet
1152 1280 m 1
 128 1280 l 1
 128 38 l 1
 551 444 l 1
 640 529 l 1
 729 444 l 1
 1152 38 l 1
 1152 1280 l 1
1164 1408 m 2
 1187 1408 1187 1408 1208 1399 c 0
 1241 1386 1241 1386 1260.5 1358 c 0
 1280 1330 1280 1330 1280 1296 c 2
 1280 7 l 2
 1280 -27 1280 -27 1260.5 -55 c 0
 1241 -83 1241 -83 1208 -96 c 0
 1189 -104 1189 -104 1164 -104 c 0
 1116 -104 1116 -104 1081 -72 c 2
 640 352 l 1
 199 -72 l 2
 163 -105 163 -105 116 -105 c 0
 93 -105 93 -105 72 -96 c 0
 39 -83 39 -83 19.5 -55 c 0
 0 -27 0 -27 0 7 c 2
 0 1296 l 2
 0 1330 0 1330 19.5 1358 c 0
 39 1386 39 1386 72 1399 c 0
 93 1408 93 1408 116 1408 c 2
 1164 1408 l 2
EndSplineSet
EndChar

StartChar: phone_sign
Encoding: 159 61592 159
Width: 1536
LayerCount: 2
Fore
SplineSet
1280 343 m 0
 1280 354 1280 354 1278 359 c 0
 1276 364 1276 364 1260 375.5 c 0
 1244 387 1244 387 1219.5 400.5 c 0
 1195 414 1195 414 1172 427 c 0
 1149 440 1149 440 1126.5 452 c 0
 1104 464 1104 464 1098 467 c 0
 1093 470 1093 470 1079 480 c 0
 1065 490 1065 490 1054 495 c 0
 1043 500 1043 500 1033 500 c 0
 1018 500 1018 500 996.5 479.5 c 0
 975 459 975 459 957 434.5 c 0
 939 410 939 410 918.5 389.5 c 0
 898 369 898 369 885 369 c 0
 878 369 878 369 868.5 372.5 c 0
 859 376 859 376 853 379 c 0
 847 382 847 382 836 388.5 c 0
 825 395 825 395 822 397 c 0
 723 452 723 452 652 523.5 c 0
 581 595 581 595 525 694 c 0
 523 697 523 697 516.5 708 c 0
 510 719 510 719 507 725 c 0
 504 731 504 731 500.5 740.5 c 0
 497 750 497 750 497 757 c 0
 497 770 497 770 517.5 790.5 c 0
 538 811 538 811 562.5 829 c 0
 587 847 587 847 607.5 868.5 c 0
 628 890 628 890 628 905 c 0
 628 915 628 915 623 926 c 0
 618 937 618 937 608 951 c 0
 598 965 598 965 595 970 c 0
 592 976 592 976 580 998.5 c 0
 568 1021 568 1021 555 1044 c 0
 542 1067 542 1067 528.5 1091.5 c 0
 515 1116 515 1116 503.5 1132 c 0
 492 1148 492 1148 487 1150 c 0
 482 1152 482 1152 471 1152 c 0
 423 1152 423 1152 370 1130 c 0
 324 1109 324 1109 290 1035.5 c 0
 256 962 256 962 256 905 c 0
 256 889 256 889 258.5 871 c 0
 261 853 261 853 263.5 840.5 c 0
 266 828 266 828 272.5 807.5 c 0
 279 787 279 787 282.5 778 c 0
 286 769 286 769 295 745 c 0
 304 721 304 721 306 715 c 0
 366 551 366 551 522.5 394.5 c 0
 679 238 679 238 843 178 c 0
 849 176 849 176 873 167 c 0
 897 158 897 158 906 154.5 c 0
 915 151 915 151 935.5 144.5 c 0
 956 138 956 138 968.5 135.5 c 0
 981 133 981 133 999 130.5 c 0
 1017 128 1017 128 1033 128 c 0
 1090 128 1090 128 1163.5 162 c 0
 1237 196 1237 196 1258 242 c 0
 1280 295 1280 295 1280 343 c 0
1536 1120 m 2
 1536 160 l 2
 1536 41 1536 41 1451.5 -43.5 c 0
 1367 -128 1367 -128 1248 -128 c 2
 288 -128 l 2
 169 -128 169 -128 84.5 -43.5 c 0
 0 41 0 41 0 160 c 2
 0 1120 l 2
 0 1239 0 1239 84.5 1323.5 c 0
 169 1408 169 1408 288 1408 c 2
 1248 1408 l 2
 1367 1408 1367 1408 1451.5 1323.5 c 0
 1536 1239 1536 1239 1536 1120 c 2
EndSplineSet
EndChar

StartChar: twitter
Encoding: 160 61593 160
Width: 1664
Flags: W
LayerCount: 2
Fore
SplineSet
1620 1128 m 1
 1553 1030 1553 1030 1458 961 c 1
 1459 947 1459 947 1459 919 c 0
 1459 789 1459 789 1421 659.5 c 0
 1383 530 1383 530 1305.5 411 c 0
 1228 292 1228 292 1121 200.5 c 0
 1014 109 1014 109 863 54.5 c 0
 712 0 712 0 540 0 c 0
 269 0 269 0 44 145 c 1
 79 141 79 141 122 141 c 0
 347 141 347 141 523 279 c 1
 418 281 418 281 335 343.5 c 0
 252 406 252 406 221 503 c 1
 254 498 254 498 282 498 c 0
 325 498 325 498 367 509 c 1
 255 532 255 532 181.5 620.5 c 0
 108 709 108 709 108 826 c 2
 108 830 l 1
 176 792 176 792 254 789 c 1
 188 833 188 833 149 904 c 0
 110 975 110 975 110 1058 c 0
 110 1146 110 1146 154 1221 c 1
 275 1072 275 1072 448.5 982.5 c 0
 622 893 622 893 820 883 c 1
 812 921 812 921 812 957 c 0
 812 1091 812 1091 906.5 1185.5 c 0
 1001 1280 1001 1280 1135 1280 c 0
 1275 1280 1275 1280 1371 1178 c 1
 1480 1199 1480 1199 1576 1256 c 1
 1539 1141 1539 1141 1434 1078 c 1
 1527 1088 1527 1088 1620 1128 c 1
EndSplineSet
EndChar

StartChar: facebook
Encoding: 161 61594 161
Width: 1024
Flags: W
LayerCount: 2
Fore
SplineSet
959 1524 m 1
 959 1260 l 1
 802 1260 l 2
 716 1260 716 1260 686 1224 c 0
 656 1188 656 1188 656 1116 c 2
 656 927 l 1
 949 927 l 1
 910 631 l 1
 656 631 l 1
 656 -128 l 1
 350 -128 l 1
 350 631 l 1
 95 631 l 1
 95 927 l 1
 350 927 l 1
 350 1145 l 2
 350 1331 350 1331 454 1433.5 c 0
 558 1536 558 1536 731 1536 c 0
 878 1536 878 1536 959 1524 c 1
EndSplineSet
EndChar

StartChar: github
Encoding: 162 61595 162
Width: 1536
LayerCount: 2
Fore
SplineSet
768 1408 m 0
 977 1408 977 1408 1153.5 1305 c 0
 1330 1202 1330 1202 1433 1025.5 c 0
 1536 849 1536 849 1536 640 c 0
 1536 389 1536 389 1389.5 188.5 c 0
 1243 -12 1243 -12 1011 -89 c 0
 984 -94 984 -94 971 -82 c 0
 958 -70 958 -70 958 -52 c 0
 958 -49 958 -49 958.5 24.5 c 0
 959 98 959 98 959 159 c 0
 959 256 959 256 907 301 c 1
 964 307 964 307 1009.5 319 c 0
 1055 331 1055 331 1103.5 358 c 0
 1152 385 1152 385 1184.5 424.5 c 0
 1217 464 1217 464 1237.5 529.5 c 0
 1258 595 1258 595 1258 680 c 0
 1258 799 1258 799 1179 886 c 1
 1216 977 1216 977 1171 1090 c 1
 1143 1099 1143 1099 1090 1079 c 0
 1037 1059 1037 1059 998 1035 c 2
 960 1011 l 1
 867 1037 867 1037 768 1037 c 0
 669 1037 669 1037 576 1011 c 1
 560 1022 560 1022 533.5 1038 c 0
 507 1054 507 1054 450 1076.5 c 0
 393 1099 393 1099 365 1090 c 1
 320 977 320 977 357 886 c 1
 278 799 278 799 278 680 c 0
 278 595 278 595 298.5 530 c 0
 319 465 319 465 351 425 c 0
 383 385 383 385 431.5 358 c 0
 480 331 480 331 525.5 319 c 0
 571 307 571 307 628 301 c 1
 589 265 589 265 579 198 c 1
 558 188 558 188 534 183 c 0
 510 178 510 178 477 178 c 0
 444 178 444 178 411.5 199.5 c 0
 379 221 379 221 356 262 c 0
 337 294 337 294 307.5 314 c 0
 278 334 278 334 258 338 c 2
 238 341 l 2
 217 341 217 341 209 336.5 c 0
 201 332 201 332 204 325 c 0
 207 318 207 318 213 311 c 0
 219 304 219 304 226 299 c 2
 233 294 l 1
 255 284 255 284 276.5 256 c 0
 298 228 298 228 308 205 c 2
 318 182 l 2
 331 144 331 144 362 120.5 c 0
 393 97 393 97 429 90.5 c 0
 465 84 465 84 498.5 83.5 c 0
 532 83 532 83 554 87 c 2
 577 91 l 1
 577 53 577 53 577.5 2.5 c 0
 578 -48 578 -48 578 -52 c 0
 578 -70 578 -70 565 -82 c 0
 552 -94 552 -94 525 -89 c 0
 293 -12 293 -12 146.5 188.5 c 0
 0 389 0 389 0 640 c 0
 0 849 0 849 103 1025.5 c 0
 206 1202 206 1202 382.5 1305 c 0
 559 1408 559 1408 768 1408 c 0
291 305 m 0
 294 312 294 312 284 317 c 0
 274 320 274 320 271 315 c 0
 268 308 268 308 278 303 c 0
 287 297 287 297 291 305 c 0
322 271 m 0
 329 276 329 276 320 287 c 0
 310 296 310 296 304 290 c 0
 297 285 297 285 306 274 c 0
 316 264 316 264 322 271 c 0
352 226 m 0
 361 233 361 233 352 245 c 0
 344 258 344 258 335 251 c 0
 326 246 326 246 335 233 c 0
 344 220 344 220 352 226 c 0
394 184 m 0
 402 192 402 192 390 203 c 0
 378 215 378 215 370 206 c 0
 361 198 361 198 374 187 c 0
 386 175 386 175 394 184 c 0
451 159 m 0
 454 170 454 170 438 175 c 0
 423 179 423 179 419 168 c 0
 415 157 415 157 432 153 c 0
 447 147 447 147 451 159 c 0
514 154 m 0
 514 167 514 167 497 165 c 0
 481 165 481 165 481 154 c 0
 481 141 481 141 498 143 c 0
 514 143 514 143 514 154 c 0
572 164 m 0
 570 175 570 175 554 173 c 0
 538 170 538 170 540 158 c 0
 542 146 542 146 558 150 c 0
 574 154 574 154 572 164 c 0
EndSplineSet
EndChar

StartChar: unlock
Encoding: 163 61596 163
Width: 1664
Flags: W
LayerCount: 2
Fore
SplineSet
1664 960 m 2
 1664 704 l 2
 1664 678 1664 678 1645 659 c 0
 1626 640 1626 640 1600 640 c 2
 1536 640 l 2
 1510 640 1510 640 1491 659 c 0
 1472 678 1472 678 1472 704 c 2
 1472 960 l 2
 1472 1066 1472 1066 1397 1141 c 0
 1322 1216 1322 1216 1216 1216 c 0
 1110 1216 1110 1216 1035 1141 c 0
 960 1066 960 1066 960 960 c 2
 960 768 l 1
 1056 768 l 2
 1096 768 1096 768 1124 740 c 0
 1152 712 1152 712 1152 672 c 2
 1152 96 l 2
 1152 56 1152 56 1124 28 c 0
 1096 0 1096 0 1056 0 c 2
 96 0 l 2
 56 0 56 0 28 28 c 0
 0 56 0 56 0 96 c 2
 0 672 l 2
 0 712 0 712 28 740 c 0
 56 768 56 768 96 768 c 2
 768 768 l 1
 768 960 l 2
 768 1145 768 1145 899.5 1276.5 c 0
 1031 1408 1031 1408 1216 1408 c 0
 1401 1408 1401 1408 1532.5 1276.5 c 0
 1664 1145 1664 1145 1664 960 c 2
EndSplineSet
EndChar

StartChar: credit_card
Encoding: 164 61597 164
Width: 1920
Flags: W
LayerCount: 2
Fore
SplineSet
1760 1408 m 2
 1826 1408 1826 1408 1873 1361 c 0
 1920 1314 1920 1314 1920 1248 c 2
 1920 32 l 2
 1920 -34 1920 -34 1873 -81 c 0
 1826 -128 1826 -128 1760 -128 c 2
 160 -128 l 2
 94 -128 94 -128 47 -81 c 0
 0 -34 0 -34 0 32 c 2
 0 1248 l 2
 0 1314 0 1314 47 1361 c 0
 94 1408 94 1408 160 1408 c 2
 1760 1408 l 2
160 1280 m 2
 147 1280 147 1280 137.5 1270.5 c 0
 128 1261 128 1261 128 1248 c 2
 128 1024 l 1
 1792 1024 l 1
 1792 1248 l 2
 1792 1261 1792 1261 1782.5 1270.5 c 0
 1773 1280 1773 1280 1760 1280 c 2
 160 1280 l 2
1760 0 m 2
 1773 0 1773 0 1782.5 9.5 c 0
 1792 19 1792 19 1792 32 c 2
 1792 640 l 1
 128 640 l 1
 128 32 l 2
 128 19 128 19 137.5 9.5 c 0
 147 0 147 0 160 0 c 2
 1760 0 l 2
256 128 m 1
 256 256 l 1
 512 256 l 1
 512 128 l 1
 256 128 l 1
640 128 m 1
 640 256 l 1
 1024 256 l 1
 1024 128 l 1
 640 128 l 1
EndSplineSet
EndChar

StartChar: rss
Encoding: 165 61598 165
Width: 1408
Flags: W
LayerCount: 2
Fore
SplineSet
384 192 m 0
 384 112 384 112 328 56 c 0
 272 0 272 0 192 0 c 0
 112 0 112 0 56 56 c 0
 0 112 0 112 0 192 c 0
 0 272 0 272 56 328 c 0
 112 384 112 384 192 384 c 0
 272 384 272 384 328 328 c 0
 384 272 384 272 384 192 c 0
896 69 m 0
 898 41 898 41 879 21 c 0
 861 0 861 0 832 0 c 2
 697 0 l 2
 672 0 672 0 654 16.5 c 0
 636 33 636 33 634 58 c 0
 612 287 612 287 449.5 449.5 c 0
 287 612 287 612 58 634 c 0
 33 636 33 636 16.5 654 c 0
 0 672 0 672 0 697 c 2
 0 832 l 2
 0 861 0 861 21 879 c 0
 38 896 38 896 64 896 c 2
 69 896 l 1
 229 883 229 883 375 815.5 c 0
 521 748 521 748 634 634 c 0
 748 521 748 521 815.5 375 c 0
 883 229 883 229 896 69 c 0
1408 67 m 0
 1410 40 1410 40 1390 20 c 0
 1372 0 1372 0 1344 0 c 2
 1201 0 l 2
 1175 0 1175 0 1156.5 17.5 c 0
 1138 35 1138 35 1137 60 c 0
 1125 275 1125 275 1036 468.5 c 0
 947 662 947 662 804.5 804.5 c 0
 662 947 662 947 468.5 1036 c 0
 275 1125 275 1125 60 1138 c 0
 35 1139 35 1139 17.5 1157.5 c 0
 0 1176 0 1176 0 1201 c 2
 0 1344 l 2
 0 1372 0 1372 20 1390 c 0
 38 1408 38 1408 64 1408 c 2
 67 1408 l 1
 329 1395 329 1395 568.5 1288 c 0
 808 1181 808 1181 994 994 c 0
 1181 808 1181 808 1288 568.5 c 0
 1395 329 1395 329 1408 67 c 0
EndSplineSet
EndChar

